G04 #@! TF.GenerationSoftware,KiCad,Pcbnew,(6.0.7-1)-1*
G04 #@! TF.CreationDate,2022-09-16T09:39:52+09:00*
G04 #@! TF.ProjectId,keyboard,6b657962-6f61-4726-942e-6b696361645f,rev?*
G04 #@! TF.SameCoordinates,Original*
G04 #@! TF.FileFunction,Legend,Bot*
G04 #@! TF.FilePolarity,Positive*
%FSLAX46Y46*%
G04 Gerber Fmt 4.6, Leading zero omitted, Abs format (unit mm)*
G04 Created by KiCad (PCBNEW (6.0.7-1)-1) date 2022-09-16 09:39:52*
%MOMM*%
%LPD*%
G01*
G04 APERTURE LIST*
%ADD10C,0.150000*%
%ADD11C,0.120000*%
G04 APERTURE END LIST*
D10*
X45074269Y-58233216D02*
X45407603Y-57757026D01*
X45645698Y-58233216D02*
X45645698Y-57233216D01*
X45264745Y-57233216D01*
X45169507Y-57280836D01*
X45121888Y-57328455D01*
X45074269Y-57423693D01*
X45074269Y-57566550D01*
X45121888Y-57661788D01*
X45169507Y-57709407D01*
X45264745Y-57757026D01*
X45645698Y-57757026D01*
X44217126Y-57566550D02*
X44217126Y-58233216D01*
X44455222Y-57185597D02*
X44693317Y-57899883D01*
X44074269Y-57899883D01*
X74002415Y-66510420D02*
X74335749Y-66034230D01*
X74573844Y-66510420D02*
X74573844Y-65510420D01*
X74192891Y-65510420D01*
X74097653Y-65558040D01*
X74050034Y-65605659D01*
X74002415Y-65700897D01*
X74002415Y-65843754D01*
X74050034Y-65938992D01*
X74097653Y-65986611D01*
X74192891Y-66034230D01*
X74573844Y-66034230D01*
X73621463Y-65605659D02*
X73573844Y-65558040D01*
X73478606Y-65510420D01*
X73240510Y-65510420D01*
X73145272Y-65558040D01*
X73097653Y-65605659D01*
X73050034Y-65700897D01*
X73050034Y-65796135D01*
X73097653Y-65938992D01*
X73669082Y-66510420D01*
X73050034Y-66510420D01*
X58506660Y-46967142D02*
X58554279Y-47014761D01*
X58697136Y-47062380D01*
X58792374Y-47062380D01*
X58935232Y-47014761D01*
X59030470Y-46919523D01*
X59078089Y-46824285D01*
X59125708Y-46633809D01*
X59125708Y-46490952D01*
X59078089Y-46300476D01*
X59030470Y-46205238D01*
X58935232Y-46110000D01*
X58792374Y-46062380D01*
X58697136Y-46062380D01*
X58554279Y-46110000D01*
X58506660Y-46157619D01*
X57554279Y-47062380D02*
X58125708Y-47062380D01*
X57839994Y-47062380D02*
X57839994Y-46062380D01*
X57935232Y-46205238D01*
X58030470Y-46300476D01*
X58125708Y-46348095D01*
X64723287Y-50267141D02*
X64770906Y-50314760D01*
X64913763Y-50362379D01*
X65009001Y-50362379D01*
X65151859Y-50314760D01*
X65247097Y-50219522D01*
X65294716Y-50124284D01*
X65342335Y-49933808D01*
X65342335Y-49790951D01*
X65294716Y-49600475D01*
X65247097Y-49505237D01*
X65151859Y-49409999D01*
X65009001Y-49362379D01*
X64913763Y-49362379D01*
X64770906Y-49409999D01*
X64723287Y-49457618D01*
X64342335Y-49457618D02*
X64294716Y-49409999D01*
X64199478Y-49362379D01*
X63961382Y-49362379D01*
X63866144Y-49409999D01*
X63818525Y-49457618D01*
X63770906Y-49552856D01*
X63770906Y-49648094D01*
X63818525Y-49790951D01*
X64389954Y-50362379D01*
X63770906Y-50362379D01*
X43266410Y-62627866D02*
X43599744Y-62151676D01*
X43837839Y-62627866D02*
X43837839Y-61627866D01*
X43456886Y-61627866D01*
X43361648Y-61675486D01*
X43314029Y-61723105D01*
X43266410Y-61818343D01*
X43266410Y-61961200D01*
X43314029Y-62056438D01*
X43361648Y-62104057D01*
X43456886Y-62151676D01*
X43837839Y-62151676D01*
X42933077Y-61627866D02*
X42314029Y-61627866D01*
X42647363Y-62008819D01*
X42504505Y-62008819D01*
X42409267Y-62056438D01*
X42361648Y-62104057D01*
X42314029Y-62199295D01*
X42314029Y-62437390D01*
X42361648Y-62532628D01*
X42409267Y-62580247D01*
X42504505Y-62627866D01*
X42790220Y-62627866D01*
X42885458Y-62580247D01*
X42933077Y-62532628D01*
X70799770Y-49085949D02*
X71133104Y-48609759D01*
X71371199Y-49085949D02*
X71371199Y-48085949D01*
X70990246Y-48085949D01*
X70895008Y-48133569D01*
X70847389Y-48181188D01*
X70799770Y-48276426D01*
X70799770Y-48419283D01*
X70847389Y-48514521D01*
X70895008Y-48562140D01*
X70990246Y-48609759D01*
X71371199Y-48609759D01*
X69847389Y-49085949D02*
X70418818Y-49085949D01*
X70133104Y-49085949D02*
X70133104Y-48085949D01*
X70228342Y-48228807D01*
X70323580Y-48324045D01*
X70418818Y-48371664D01*
X64168572Y-36421076D02*
X64025715Y-36468695D01*
X63787619Y-36468695D01*
X63692381Y-36421076D01*
X63644762Y-36373457D01*
X63597143Y-36278219D01*
X63597143Y-36182981D01*
X63644762Y-36087743D01*
X63692381Y-36040124D01*
X63787619Y-35992505D01*
X63978096Y-35944886D01*
X64073334Y-35897267D01*
X64120953Y-35849648D01*
X64168572Y-35754410D01*
X64168572Y-35659172D01*
X64120953Y-35563934D01*
X64073334Y-35516315D01*
X63978096Y-35468695D01*
X63740000Y-35468695D01*
X63597143Y-35516315D01*
X63263810Y-35468695D02*
X63025715Y-36468695D01*
X62835239Y-35754410D01*
X62644762Y-36468695D01*
X62406667Y-35468695D01*
X61501905Y-36468695D02*
X62073334Y-36468695D01*
X61787619Y-36468695D02*
X61787619Y-35468695D01*
X61882858Y-35611553D01*
X61978096Y-35706791D01*
X62073334Y-35754410D01*
X64230415Y-64871490D02*
X64230415Y-65681014D01*
X64182796Y-65776252D01*
X64135177Y-65823871D01*
X64039939Y-65871490D01*
X63849463Y-65871490D01*
X63754225Y-65823871D01*
X63706606Y-65776252D01*
X63658987Y-65681014D01*
X63658987Y-64871490D01*
X62658987Y-65871490D02*
X63230415Y-65871490D01*
X62944701Y-65871490D02*
X62944701Y-64871490D01*
X63039939Y-65014348D01*
X63135177Y-65109586D01*
X63230415Y-65157205D01*
X79725130Y-63313843D02*
X79772749Y-63361462D01*
X79915606Y-63409081D01*
X80010844Y-63409081D01*
X80153702Y-63361462D01*
X80248940Y-63266224D01*
X80296559Y-63170986D01*
X80344178Y-62980510D01*
X80344178Y-62837653D01*
X80296559Y-62647177D01*
X80248940Y-62551939D01*
X80153702Y-62456701D01*
X80010844Y-62409081D01*
X79915606Y-62409081D01*
X79772749Y-62456701D01*
X79725130Y-62504320D01*
X78820368Y-62409081D02*
X79296559Y-62409081D01*
X79344178Y-62885272D01*
X79296559Y-62837653D01*
X79201321Y-62790034D01*
X78963225Y-62790034D01*
X78867987Y-62837653D01*
X78820368Y-62885272D01*
X78772749Y-62980510D01*
X78772749Y-63218605D01*
X78820368Y-63313843D01*
X78867987Y-63361462D01*
X78963225Y-63409081D01*
X79201321Y-63409081D01*
X79296559Y-63361462D01*
X79344178Y-63313843D01*
X88487500Y-38734596D02*
X88535119Y-38782215D01*
X88677976Y-38829834D01*
X88773214Y-38829834D01*
X88916072Y-38782215D01*
X89011310Y-38686977D01*
X89058929Y-38591739D01*
X89106548Y-38401263D01*
X89106548Y-38258406D01*
X89058929Y-38067930D01*
X89011310Y-37972692D01*
X88916072Y-37877454D01*
X88773214Y-37829834D01*
X88677976Y-37829834D01*
X88535119Y-37877454D01*
X88487500Y-37925073D01*
X88154167Y-37829834D02*
X87487500Y-37829834D01*
X87916072Y-38829834D01*
X49407555Y-60070554D02*
X49455174Y-60118173D01*
X49598031Y-60165792D01*
X49693269Y-60165792D01*
X49836127Y-60118173D01*
X49931365Y-60022935D01*
X49978984Y-59927697D01*
X50026603Y-59737221D01*
X50026603Y-59594364D01*
X49978984Y-59403888D01*
X49931365Y-59308650D01*
X49836127Y-59213412D01*
X49693269Y-59165792D01*
X49598031Y-59165792D01*
X49455174Y-59213412D01*
X49407555Y-59261031D01*
X49074222Y-59165792D02*
X48455174Y-59165792D01*
X48788508Y-59546745D01*
X48645650Y-59546745D01*
X48550412Y-59594364D01*
X48502793Y-59641983D01*
X48455174Y-59737221D01*
X48455174Y-59975316D01*
X48502793Y-60070554D01*
X48550412Y-60118173D01*
X48645650Y-60165792D01*
X48931365Y-60165792D01*
X49026603Y-60118173D01*
X49074222Y-60070554D01*
X60004778Y-47313105D02*
X59338112Y-48313105D01*
X59338112Y-47313105D02*
X60004778Y-48313105D01*
X58433350Y-48313105D02*
X59004778Y-48313105D01*
X58719064Y-48313105D02*
X58719064Y-47313105D01*
X58814302Y-47455963D01*
X58909540Y-47551201D01*
X59004778Y-47598820D01*
X202334345Y-35784380D02*
X202334345Y-36593904D01*
X202286726Y-36689142D01*
X202239107Y-36736761D01*
X202143869Y-36784380D01*
X201953392Y-36784380D01*
X201858154Y-36736761D01*
X201810535Y-36689142D01*
X201762916Y-36593904D01*
X201762916Y-35784380D01*
X201334345Y-36736761D02*
X201191488Y-36784380D01*
X200953392Y-36784380D01*
X200858154Y-36736761D01*
X200810535Y-36689142D01*
X200762916Y-36593904D01*
X200762916Y-36498666D01*
X200810535Y-36403428D01*
X200858154Y-36355809D01*
X200953392Y-36308190D01*
X201143869Y-36260571D01*
X201239107Y-36212952D01*
X201286726Y-36165333D01*
X201334345Y-36070095D01*
X201334345Y-35974857D01*
X201286726Y-35879619D01*
X201239107Y-35832000D01*
X201143869Y-35784380D01*
X200905773Y-35784380D01*
X200762916Y-35832000D01*
X200001011Y-36260571D02*
X199858154Y-36308190D01*
X199810535Y-36355809D01*
X199762916Y-36451047D01*
X199762916Y-36593904D01*
X199810535Y-36689142D01*
X199858154Y-36736761D01*
X199953392Y-36784380D01*
X200334345Y-36784380D01*
X200334345Y-35784380D01*
X200001011Y-35784380D01*
X199905773Y-35832000D01*
X199858154Y-35879619D01*
X199810535Y-35974857D01*
X199810535Y-36070095D01*
X199858154Y-36165333D01*
X199905773Y-36212952D01*
X200001011Y-36260571D01*
X200334345Y-36260571D01*
X198810535Y-36784380D02*
X199381964Y-36784380D01*
X199096250Y-36784380D02*
X199096250Y-35784380D01*
X199191488Y-35927238D01*
X199286726Y-36022476D01*
X199381964Y-36070095D01*
X84182744Y-38663295D02*
X84230363Y-38710914D01*
X84373220Y-38758533D01*
X84468458Y-38758533D01*
X84611316Y-38710914D01*
X84706554Y-38615676D01*
X84754173Y-38520438D01*
X84801792Y-38329962D01*
X84801792Y-38187105D01*
X84754173Y-37996629D01*
X84706554Y-37901391D01*
X84611316Y-37806153D01*
X84468458Y-37758533D01*
X84373220Y-37758533D01*
X84230363Y-37806153D01*
X84182744Y-37853772D01*
X83325601Y-37758533D02*
X83516078Y-37758533D01*
X83611316Y-37806153D01*
X83658935Y-37853772D01*
X83754173Y-37996629D01*
X83801792Y-38187105D01*
X83801792Y-38568057D01*
X83754173Y-38663295D01*
X83706554Y-38710914D01*
X83611316Y-38758533D01*
X83420839Y-38758533D01*
X83325601Y-38710914D01*
X83277982Y-38663295D01*
X83230363Y-38568057D01*
X83230363Y-38329962D01*
X83277982Y-38234724D01*
X83325601Y-38187105D01*
X83420839Y-38139486D01*
X83611316Y-38139486D01*
X83706554Y-38187105D01*
X83754173Y-38234724D01*
X83801792Y-38329962D01*
X79949195Y-38698946D02*
X79996814Y-38746565D01*
X80139671Y-38794184D01*
X80234909Y-38794184D01*
X80377767Y-38746565D01*
X80473005Y-38651327D01*
X80520624Y-38556089D01*
X80568243Y-38365613D01*
X80568243Y-38222756D01*
X80520624Y-38032280D01*
X80473005Y-37937042D01*
X80377767Y-37841804D01*
X80234909Y-37794184D01*
X80139671Y-37794184D01*
X79996814Y-37841804D01*
X79949195Y-37889423D01*
X79092052Y-38127518D02*
X79092052Y-38794184D01*
X79330148Y-37746565D02*
X79568243Y-38460851D01*
X78949195Y-38460851D01*
D11*
X45168855Y-58720836D02*
X44646351Y-58720836D01*
X45168855Y-60140836D02*
X44646351Y-60140836D01*
X73574497Y-65118040D02*
X74097001Y-65118040D01*
X73574497Y-63698040D02*
X74097001Y-63698040D01*
X58601246Y-48970000D02*
X58078742Y-48970000D01*
X58601246Y-47550000D02*
X58078742Y-47550000D01*
X64295369Y-48969999D02*
X64817873Y-48969999D01*
X64295369Y-47549999D02*
X64817873Y-47549999D01*
X43360996Y-64535486D02*
X42838492Y-64535486D01*
X43360996Y-63115486D02*
X42838492Y-63115486D01*
X70371852Y-47693569D02*
X70894356Y-47693569D01*
X70371852Y-46273569D02*
X70894356Y-46273569D01*
X61135239Y-37466315D02*
X61585239Y-37016315D01*
X60085239Y-38766315D02*
X60085239Y-40766315D01*
X64535239Y-42066315D02*
X64085239Y-42516315D01*
X61135239Y-42066315D02*
X61585239Y-42516315D01*
X64535239Y-37466315D02*
X64085239Y-37016315D01*
X65585239Y-38766315D02*
X65585239Y-40766315D01*
X64085239Y-42516315D02*
X61585239Y-42516315D01*
X64085239Y-37016315D02*
X61585239Y-37016315D01*
D10*
X58293511Y-52794110D02*
X58293511Y-53469110D01*
X58293511Y-52794110D02*
X58968511Y-52794110D01*
X58293511Y-63144110D02*
X58968511Y-63144110D01*
X68643511Y-52794110D02*
X67968511Y-52794110D01*
X58293511Y-63144110D02*
X58293511Y-62569110D01*
X68643511Y-63144110D02*
X67968511Y-63144110D01*
X58293511Y-62569110D02*
X57018511Y-62569110D01*
X68643511Y-52794110D02*
X68643511Y-53469110D01*
X68643511Y-63144110D02*
X68643511Y-62469110D01*
D11*
X79819716Y-65316701D02*
X79297212Y-65316701D01*
X79819716Y-63896701D02*
X79297212Y-63896701D01*
X88059582Y-37437454D02*
X88582086Y-37437454D01*
X88059582Y-36017454D02*
X88582086Y-36017454D01*
X48979637Y-57353412D02*
X49502141Y-57353412D01*
X48979637Y-58773412D02*
X49502141Y-58773412D01*
X56545255Y-43210725D02*
X61845255Y-43210725D01*
X56545255Y-46910725D02*
X56545255Y-43210725D01*
D10*
X196746250Y-34300000D02*
X196746250Y-39750000D01*
X196746250Y-39750000D02*
X204446250Y-39750000D01*
X204446250Y-34300000D02*
X204446250Y-39750000D01*
D11*
X83754826Y-35946153D02*
X84277330Y-35946153D01*
X83754826Y-37366153D02*
X84277330Y-37366153D01*
X79521277Y-37401804D02*
X80043781Y-37401804D01*
X79521277Y-35981804D02*
X80043781Y-35981804D01*
M02*
