G04 #@! TF.GenerationSoftware,KiCad,Pcbnew,(6.0.7-1)-1*
G04 #@! TF.CreationDate,2022-09-16T02:28:04+09:00*
G04 #@! TF.ProjectId,keyboard,6b657962-6f61-4726-942e-6b696361645f,rev?*
G04 #@! TF.SameCoordinates,Original*
G04 #@! TF.FileFunction,Soldermask,Bot*
G04 #@! TF.FilePolarity,Negative*
%FSLAX46Y46*%
G04 Gerber Fmt 4.6, Leading zero omitted, Abs format (unit mm)*
G04 Created by KiCad (PCBNEW (6.0.7-1)-1) date 2022-09-16 02:28:04*
%MOMM*%
%LPD*%
G01*
G04 APERTURE LIST*
G04 Aperture macros list*
%AMRoundRect*
0 Rectangle with rounded corners*
0 $1 Rounding radius*
0 $2 $3 $4 $5 $6 $7 $8 $9 X,Y pos of 4 corners*
0 Add a 4 corners polygon primitive as box body*
4,1,4,$2,$3,$4,$5,$6,$7,$8,$9,$2,$3,0*
0 Add four circle primitives for the rounded corners*
1,1,$1+$1,$2,$3*
1,1,$1+$1,$4,$5*
1,1,$1+$1,$6,$7*
1,1,$1+$1,$8,$9*
0 Add four rect primitives between the rounded corners*
20,1,$1+$1,$2,$3,$4,$5,0*
20,1,$1+$1,$4,$5,$6,$7,0*
20,1,$1+$1,$6,$7,$8,$9,0*
20,1,$1+$1,$8,$9,$2,$3,0*%
%AMHorizOval*
0 Thick line with rounded ends*
0 $1 width*
0 $2 $3 position (X,Y) of the first rounded end (center of the circle)*
0 $4 $5 position (X,Y) of the second rounded end (center of the circle)*
0 Add line between two ends*
20,1,$1,$2,$3,$4,$5,0*
0 Add two circle primitives to create the rounded ends*
1,1,$1,$2,$3*
1,1,$1,$4,$5*%
G04 Aperture macros list end*
%ADD10C,1.750000*%
%ADD11C,3.987800*%
%ADD12C,2.250000*%
%ADD13HorizOval,2.250000X0.655001X0.730000X-0.655001X-0.730000X0*%
%ADD14HorizOval,2.250000X0.020000X0.290000X-0.020000X-0.290000X0*%
%ADD15R,1.600000X1.600000*%
%ADD16C,1.600000*%
%ADD17C,3.048000*%
%ADD18RoundRect,0.250000X0.325000X0.450000X-0.325000X0.450000X-0.325000X-0.450000X0.325000X-0.450000X0*%
%ADD19RoundRect,0.250000X-0.325000X-0.450000X0.325000X-0.450000X0.325000X0.450000X-0.325000X0.450000X0*%
%ADD20R,1.700000X1.000000*%
%ADD21R,1.500000X0.550000*%
%ADD22R,0.550000X1.500000*%
%ADD23R,1.600000X1.300000*%
%ADD24O,1.700000X2.700000*%
%ADD25R,0.500000X2.250000*%
G04 APERTURE END LIST*
D10*
X272232500Y-113800000D03*
X262072500Y-113800000D03*
D11*
X267152500Y-113800000D03*
D12*
X264652500Y-109800000D03*
D13*
X263997501Y-110530000D03*
D14*
X269672500Y-109010000D03*
D12*
X269692500Y-108720000D03*
D15*
X96202500Y-137250000D03*
D16*
X96202500Y-129450000D03*
D10*
X86495000Y-47125000D03*
X76335000Y-47125000D03*
D11*
X81415000Y-47125000D03*
D12*
X78915000Y-43125000D03*
D13*
X78260001Y-43855000D03*
D12*
X83955000Y-42045000D03*
D14*
X83935000Y-42335000D03*
D10*
X119832500Y-113800000D03*
D11*
X114752500Y-113800000D03*
D10*
X109672500Y-113800000D03*
D13*
X111597501Y-110530000D03*
D12*
X112252500Y-109800000D03*
D14*
X117272500Y-109010000D03*
D12*
X117292500Y-108720000D03*
D15*
X191452500Y-137250000D03*
D16*
X191452500Y-129450000D03*
D15*
X343852500Y-118200000D03*
D16*
X343852500Y-110400000D03*
D10*
X95385000Y-75700000D03*
D11*
X100465000Y-75700000D03*
D10*
X105545000Y-75700000D03*
D12*
X97965000Y-71700000D03*
D13*
X97310001Y-72430000D03*
D14*
X102985000Y-70910000D03*
D12*
X103005000Y-70620000D03*
D15*
X272415000Y-99150000D03*
D16*
X272415000Y-91350000D03*
D15*
X362902500Y-99150000D03*
D16*
X362902500Y-91350000D03*
D10*
X347797500Y-47125000D03*
D11*
X352877500Y-47125000D03*
D10*
X357957500Y-47125000D03*
D12*
X350377500Y-43125000D03*
D13*
X349722501Y-43855000D03*
D14*
X355397500Y-42335000D03*
D12*
X355417500Y-42045000D03*
D10*
X124595000Y-47125000D03*
D11*
X119515000Y-47125000D03*
D10*
X114435000Y-47125000D03*
D13*
X116360001Y-43855000D03*
D12*
X117015000Y-43125000D03*
D14*
X122035000Y-42335000D03*
D12*
X122055000Y-42045000D03*
D15*
X362902500Y-80100000D03*
D16*
X362902500Y-72300000D03*
D15*
X143827500Y-118200000D03*
D16*
X143827500Y-110400000D03*
D15*
X320040000Y-118200000D03*
D16*
X320040000Y-110400000D03*
D15*
X320040000Y-99150000D03*
D16*
X320040000Y-91350000D03*
D15*
X343852500Y-99150000D03*
D16*
X343852500Y-91350000D03*
D10*
X157297500Y-132850000D03*
D11*
X162377500Y-132850000D03*
D10*
X167457500Y-132850000D03*
D12*
X159877500Y-128850000D03*
D13*
X159222501Y-129580000D03*
D14*
X164897500Y-128060000D03*
D12*
X164917500Y-127770000D03*
D15*
X239077500Y-118200000D03*
D16*
X239077500Y-110400000D03*
D15*
X229552500Y-137250000D03*
D16*
X229552500Y-129450000D03*
D15*
X320040000Y-80100000D03*
D16*
X320040000Y-72300000D03*
D10*
X138247500Y-132850000D03*
X148407500Y-132850000D03*
D11*
X143327500Y-132850000D03*
D12*
X140827500Y-128850000D03*
D13*
X140172501Y-129580000D03*
D14*
X145847500Y-128060000D03*
D12*
X145867500Y-127770000D03*
D15*
X300990000Y-51525000D03*
D16*
X300990000Y-43725000D03*
D10*
X357957500Y-75700000D03*
D11*
X352877500Y-75700000D03*
D10*
X347797500Y-75700000D03*
D12*
X350377500Y-71700000D03*
D13*
X349722501Y-72430000D03*
D12*
X355417500Y-70620000D03*
D14*
X355397500Y-70910000D03*
D10*
X138882500Y-113800000D03*
D11*
X133802500Y-113800000D03*
D10*
X128722500Y-113800000D03*
D12*
X131302500Y-109800000D03*
D13*
X130647501Y-110530000D03*
D14*
X136322500Y-109010000D03*
D12*
X136342500Y-108720000D03*
D10*
X219845000Y-75700000D03*
X209685000Y-75700000D03*
D11*
X214765000Y-75700000D03*
D12*
X212265000Y-71700000D03*
D13*
X211610001Y-72430000D03*
D12*
X217305000Y-70620000D03*
D14*
X217285000Y-70910000D03*
D10*
X215082500Y-113800000D03*
X204922500Y-113800000D03*
D11*
X210002500Y-113800000D03*
D13*
X206847501Y-110530000D03*
D12*
X207502500Y-109800000D03*
X212542500Y-108720000D03*
D14*
X212522500Y-109010000D03*
D15*
X105727500Y-118200000D03*
D16*
X105727500Y-110400000D03*
D10*
X224607500Y-132850000D03*
X214447500Y-132850000D03*
D11*
X219527500Y-132850000D03*
D13*
X216372501Y-129580000D03*
D12*
X217027500Y-128850000D03*
X222067500Y-127770000D03*
D14*
X222047500Y-128060000D03*
D10*
X110307500Y-132850000D03*
X100147500Y-132850000D03*
D11*
X105227500Y-132850000D03*
D13*
X102072501Y-129580000D03*
D12*
X102727500Y-128850000D03*
D14*
X107747500Y-128060000D03*
D12*
X107767500Y-127770000D03*
D15*
X72390000Y-80100000D03*
D16*
X72390000Y-72300000D03*
D11*
X157615000Y-75700000D03*
D10*
X152535000Y-75700000D03*
X162695000Y-75700000D03*
D13*
X154460001Y-72430000D03*
D12*
X155115000Y-71700000D03*
D14*
X160135000Y-70910000D03*
D12*
X160155000Y-70620000D03*
D17*
X300521750Y-125865000D03*
D10*
X283503750Y-132850000D03*
D11*
X288583750Y-132850000D03*
D10*
X293663750Y-132850000D03*
D11*
X300521750Y-141105000D03*
D17*
X276645750Y-125865000D03*
D11*
X276645750Y-141105000D03*
D13*
X285428751Y-129580000D03*
D12*
X286083750Y-128850000D03*
X291123750Y-127770000D03*
D14*
X291103750Y-128060000D03*
D10*
X328747500Y-113800000D03*
D11*
X333827500Y-113800000D03*
D10*
X338907500Y-113800000D03*
D12*
X331327500Y-109800000D03*
D13*
X330672501Y-110530000D03*
D12*
X336367500Y-108720000D03*
D14*
X336347500Y-109010000D03*
D10*
X66810000Y-94750000D03*
X76970000Y-94750000D03*
D11*
X71890000Y-94750000D03*
D13*
X68735001Y-91480000D03*
D12*
X69390000Y-90750000D03*
X74430000Y-89670000D03*
D14*
X74410000Y-89960000D03*
D15*
X124777500Y-118200000D03*
D16*
X124777500Y-110400000D03*
D10*
X295410000Y-75700000D03*
D17*
X312428000Y-68715000D03*
X288552000Y-68715000D03*
D10*
X305570000Y-75700000D03*
D11*
X312428000Y-83955000D03*
X300490000Y-75700000D03*
X288552000Y-83955000D03*
D12*
X297990000Y-71700000D03*
D13*
X297335001Y-72430000D03*
D12*
X303030000Y-70620000D03*
D14*
X303010000Y-70910000D03*
D11*
X310046750Y-122055000D03*
D10*
X293028750Y-113800000D03*
D17*
X310046750Y-106815000D03*
D11*
X286170750Y-122055000D03*
D10*
X303188750Y-113800000D03*
D17*
X286170750Y-106815000D03*
D11*
X298108750Y-113800000D03*
D13*
X294953751Y-110530000D03*
D12*
X295608750Y-109800000D03*
X300648750Y-108720000D03*
D14*
X300628750Y-109010000D03*
D11*
X314777500Y-151900000D03*
D10*
X319857500Y-151900000D03*
X309697500Y-151900000D03*
D13*
X311622501Y-148630000D03*
D12*
X312277500Y-147900000D03*
D14*
X317297500Y-147110000D03*
D12*
X317317500Y-146820000D03*
D15*
X267652500Y-137250000D03*
D16*
X267652500Y-129450000D03*
D10*
X253182500Y-113800000D03*
D11*
X248102500Y-113800000D03*
D10*
X243022500Y-113800000D03*
D13*
X244947501Y-110530000D03*
D12*
X245602500Y-109800000D03*
X250642500Y-108720000D03*
D14*
X250622500Y-109010000D03*
D17*
X214758650Y-144915000D03*
D11*
X114758850Y-160155000D03*
D10*
X159678750Y-151900000D03*
D17*
X114758850Y-144915000D03*
D10*
X169838750Y-151900000D03*
D11*
X214758650Y-160155000D03*
X164758750Y-151900000D03*
D13*
X161603751Y-148630000D03*
D12*
X162258750Y-147900000D03*
X167298750Y-146820000D03*
D14*
X167278750Y-147110000D03*
D10*
X200160000Y-94750000D03*
X210320000Y-94750000D03*
D11*
X205240000Y-94750000D03*
D13*
X202085001Y-91480000D03*
D12*
X202740000Y-90750000D03*
X207780000Y-89670000D03*
D14*
X207760000Y-89960000D03*
D10*
X243657500Y-132850000D03*
X233497500Y-132850000D03*
D11*
X238577500Y-132850000D03*
D12*
X236077500Y-128850000D03*
D13*
X235422501Y-129580000D03*
D14*
X241097500Y-128060000D03*
D12*
X241117500Y-127770000D03*
D15*
X129540000Y-80100000D03*
D16*
X129540000Y-72300000D03*
D15*
X58102500Y-156300000D03*
D16*
X58102500Y-148500000D03*
D10*
X176982500Y-113800000D03*
D11*
X171902500Y-113800000D03*
D10*
X166822500Y-113800000D03*
D13*
X168747501Y-110530000D03*
D12*
X169402500Y-109800000D03*
X174442500Y-108720000D03*
D14*
X174422500Y-109010000D03*
D15*
X320040000Y-51525000D03*
D16*
X320040000Y-43725000D03*
D10*
X42997500Y-94750000D03*
X53157500Y-94750000D03*
D11*
X48077500Y-94750000D03*
D12*
X45577500Y-90750000D03*
D13*
X44922501Y-91480000D03*
D14*
X50597500Y-89960000D03*
D12*
X50617500Y-89670000D03*
D10*
X105545000Y-47125000D03*
X95385000Y-47125000D03*
D11*
X100465000Y-47125000D03*
D13*
X97310001Y-43855000D03*
D12*
X97965000Y-43125000D03*
X103005000Y-42045000D03*
D14*
X102985000Y-42335000D03*
D15*
X148590000Y-51525000D03*
D16*
X148590000Y-43725000D03*
D15*
X258127500Y-118200000D03*
D16*
X258127500Y-110400000D03*
D11*
X352877500Y-113800000D03*
D10*
X347797500Y-113800000D03*
X357957500Y-113800000D03*
D13*
X349722501Y-110530000D03*
D12*
X350377500Y-109800000D03*
X355417500Y-108720000D03*
D14*
X355397500Y-109010000D03*
D11*
X200477500Y-132850000D03*
D10*
X195397500Y-132850000D03*
X205557500Y-132850000D03*
D13*
X197322501Y-129580000D03*
D12*
X197977500Y-128850000D03*
D14*
X202997500Y-128060000D03*
D12*
X203017500Y-127770000D03*
D15*
X110490000Y-80100000D03*
D16*
X110490000Y-72300000D03*
D11*
X190952500Y-113800000D03*
D10*
X196032500Y-113800000D03*
X185872500Y-113800000D03*
D12*
X188452500Y-109800000D03*
D13*
X187797501Y-110530000D03*
D14*
X193472500Y-109010000D03*
D12*
X193492500Y-108720000D03*
D10*
X252547500Y-132850000D03*
X262707500Y-132850000D03*
D11*
X257627500Y-132850000D03*
D13*
X254472501Y-129580000D03*
D12*
X255127500Y-128850000D03*
D14*
X260147500Y-128060000D03*
D12*
X260167500Y-127770000D03*
D15*
X291465000Y-99150000D03*
D16*
X291465000Y-91350000D03*
D10*
X181110000Y-47125000D03*
D11*
X186190000Y-47125000D03*
D10*
X191270000Y-47125000D03*
D12*
X183690000Y-43125000D03*
D13*
X183035001Y-43855000D03*
D12*
X188730000Y-42045000D03*
D14*
X188710000Y-42335000D03*
D15*
X181927500Y-118200000D03*
D16*
X181927500Y-110400000D03*
D15*
X281940000Y-80100000D03*
D16*
X281940000Y-72300000D03*
D15*
X148590000Y-80100000D03*
D16*
X148590000Y-72300000D03*
D10*
X200160000Y-47125000D03*
D11*
X205240000Y-47125000D03*
D10*
X210320000Y-47125000D03*
D12*
X202740000Y-43125000D03*
D13*
X202085001Y-43855000D03*
D12*
X207780000Y-42045000D03*
D14*
X207760000Y-42335000D03*
D15*
X100965000Y-99150000D03*
D16*
X100965000Y-91350000D03*
D15*
X248602500Y-156300000D03*
D16*
X248602500Y-148500000D03*
D10*
X278741250Y-151900000D03*
X288901250Y-151900000D03*
D11*
X283821250Y-151900000D03*
D13*
X280666251Y-148630000D03*
D12*
X281321250Y-147900000D03*
D14*
X286341250Y-147110000D03*
D12*
X286361250Y-146820000D03*
D15*
X77152500Y-137250000D03*
D16*
X77152500Y-129450000D03*
D11*
X43283250Y-141105000D03*
X55221250Y-132850000D03*
X67159250Y-141105000D03*
D17*
X67159250Y-125865000D03*
X43283250Y-125865000D03*
D10*
X50141250Y-132850000D03*
X60301250Y-132850000D03*
D13*
X52066251Y-129580000D03*
D12*
X52721250Y-128850000D03*
D14*
X57741250Y-128060000D03*
D12*
X57761250Y-127770000D03*
D10*
X134120000Y-94750000D03*
X123960000Y-94750000D03*
D11*
X129040000Y-94750000D03*
D13*
X125885001Y-91480000D03*
D12*
X126540000Y-90750000D03*
D14*
X131560000Y-89960000D03*
D12*
X131580000Y-89670000D03*
D15*
X248602500Y-137250000D03*
D16*
X248602500Y-129450000D03*
D10*
X74588750Y-151900000D03*
X64428750Y-151900000D03*
D11*
X69508750Y-151900000D03*
D12*
X67008750Y-147900000D03*
D13*
X66353751Y-148630000D03*
D12*
X72048750Y-146820000D03*
D14*
X72028750Y-147110000D03*
D15*
X362902500Y-118200000D03*
D16*
X362902500Y-110400000D03*
D15*
X277177500Y-118200000D03*
D16*
X277177500Y-110400000D03*
D11*
X76652500Y-113800000D03*
D10*
X71572500Y-113800000D03*
X81732500Y-113800000D03*
D13*
X73497501Y-110530000D03*
D12*
X74152500Y-109800000D03*
D14*
X79172500Y-109010000D03*
D12*
X79192500Y-108720000D03*
D10*
X276995000Y-47125000D03*
X266835000Y-47125000D03*
D11*
X271915000Y-47125000D03*
D12*
X269415000Y-43125000D03*
D13*
X268760001Y-43855000D03*
D14*
X274435000Y-42335000D03*
D12*
X274455000Y-42045000D03*
D10*
X100782500Y-113800000D03*
X90622500Y-113800000D03*
D11*
X95702500Y-113800000D03*
D12*
X93202500Y-109800000D03*
D13*
X92547501Y-110530000D03*
D14*
X98222500Y-109010000D03*
D12*
X98242500Y-108720000D03*
D15*
X129540000Y-51525000D03*
D16*
X129540000Y-43725000D03*
D10*
X38235000Y-47125000D03*
X48395000Y-47125000D03*
D11*
X43315000Y-47125000D03*
D13*
X40160001Y-43855000D03*
D12*
X40815000Y-43125000D03*
D14*
X45835000Y-42335000D03*
D12*
X45855000Y-42045000D03*
D15*
X81915000Y-156300000D03*
D16*
X81915000Y-148500000D03*
D10*
X338907500Y-75700000D03*
D11*
X333827500Y-75700000D03*
D10*
X328747500Y-75700000D03*
D13*
X330672501Y-72430000D03*
D12*
X331327500Y-71700000D03*
D14*
X336347500Y-70910000D03*
D12*
X336367500Y-70620000D03*
D15*
X81915000Y-99150000D03*
D16*
X81915000Y-91350000D03*
D15*
X115252500Y-137250000D03*
D16*
X115252500Y-129450000D03*
D15*
X53340000Y-80100000D03*
D16*
X53340000Y-72300000D03*
D10*
X88241250Y-151900000D03*
X98401250Y-151900000D03*
D11*
X93321250Y-151900000D03*
D12*
X90821250Y-147900000D03*
D13*
X90166251Y-148630000D03*
D12*
X95861250Y-146820000D03*
D14*
X95841250Y-147110000D03*
D10*
X266835000Y-75700000D03*
D11*
X271915000Y-75700000D03*
D10*
X276995000Y-75700000D03*
D12*
X269415000Y-71700000D03*
D13*
X268760001Y-72430000D03*
D14*
X274435000Y-70910000D03*
D12*
X274455000Y-70620000D03*
D11*
X224290000Y-94750000D03*
D10*
X229370000Y-94750000D03*
X219210000Y-94750000D03*
D13*
X221135001Y-91480000D03*
D12*
X221790000Y-90750000D03*
X226830000Y-89670000D03*
D14*
X226810000Y-89960000D03*
D15*
X272415000Y-156300000D03*
D16*
X272415000Y-148500000D03*
D15*
X200977500Y-118200000D03*
D16*
X200977500Y-110400000D03*
D15*
X243840000Y-80100000D03*
D16*
X243840000Y-72300000D03*
D11*
X352877500Y-151900000D03*
D10*
X357957500Y-151900000D03*
X347797500Y-151900000D03*
D12*
X350377500Y-147900000D03*
D13*
X349722501Y-148630000D03*
D12*
X355417500Y-146820000D03*
D14*
X355397500Y-147110000D03*
D10*
X285885000Y-47125000D03*
X296045000Y-47125000D03*
D11*
X290965000Y-47125000D03*
D12*
X288465000Y-43125000D03*
D13*
X287810001Y-43855000D03*
D14*
X293485000Y-42335000D03*
D12*
X293505000Y-42045000D03*
D15*
X343852500Y-137250000D03*
D16*
X343852500Y-129450000D03*
D15*
X62865000Y-99150000D03*
D16*
X62865000Y-91350000D03*
D15*
X134302500Y-137250000D03*
D16*
X134302500Y-129450000D03*
D15*
X281940000Y-51525000D03*
D16*
X281940000Y-43725000D03*
D11*
X186190000Y-94750000D03*
D10*
X191270000Y-94750000D03*
X181110000Y-94750000D03*
D12*
X183690000Y-90750000D03*
D13*
X183035001Y-91480000D03*
D12*
X188730000Y-89670000D03*
D14*
X188710000Y-89960000D03*
D15*
X296227500Y-156300000D03*
D16*
X296227500Y-148500000D03*
D15*
X210502500Y-137250000D03*
D16*
X210502500Y-129450000D03*
D15*
X324802500Y-156300000D03*
D16*
X324802500Y-148500000D03*
D15*
X186690000Y-80100000D03*
D16*
X186690000Y-72300000D03*
D15*
X224790000Y-80100000D03*
D16*
X224790000Y-72300000D03*
D15*
X215265000Y-99150000D03*
D16*
X215265000Y-91350000D03*
D11*
X229052500Y-113800000D03*
D10*
X223972500Y-113800000D03*
X234132500Y-113800000D03*
D12*
X226552500Y-109800000D03*
D13*
X225897501Y-110530000D03*
D12*
X231592500Y-108720000D03*
D14*
X231572500Y-109010000D03*
D15*
X162877500Y-118200000D03*
D16*
X162877500Y-110400000D03*
D11*
X86177500Y-132850000D03*
D10*
X91257500Y-132850000D03*
X81097500Y-132850000D03*
D12*
X83677500Y-128850000D03*
D13*
X83022501Y-129580000D03*
D12*
X88717500Y-127770000D03*
D14*
X88697500Y-128060000D03*
D15*
X196215000Y-51525000D03*
D16*
X196215000Y-43725000D03*
D15*
X53340000Y-51525000D03*
D16*
X53340000Y-43725000D03*
D10*
X304935000Y-47125000D03*
D11*
X310015000Y-47125000D03*
D10*
X315095000Y-47125000D03*
D12*
X307515000Y-43125000D03*
D13*
X306860001Y-43855000D03*
D14*
X312535000Y-42335000D03*
D12*
X312555000Y-42045000D03*
D15*
X110490000Y-51525000D03*
D16*
X110490000Y-43725000D03*
D10*
X310332500Y-94750000D03*
X300172500Y-94750000D03*
D11*
X305252500Y-94750000D03*
D13*
X302097501Y-91480000D03*
D12*
X302752500Y-90750000D03*
X307792500Y-89670000D03*
D14*
X307772500Y-89960000D03*
D15*
X253365000Y-99150000D03*
D16*
X253365000Y-91350000D03*
D10*
X157932500Y-113800000D03*
D11*
X152852500Y-113800000D03*
D10*
X147772500Y-113800000D03*
D12*
X150352500Y-109800000D03*
D13*
X149697501Y-110530000D03*
D12*
X155392500Y-108720000D03*
D14*
X155372500Y-109010000D03*
D11*
X43315000Y-75700000D03*
D10*
X48395000Y-75700000D03*
X38235000Y-75700000D03*
D12*
X40815000Y-71700000D03*
D13*
X40160001Y-72430000D03*
D14*
X45835000Y-70910000D03*
D12*
X45855000Y-70620000D03*
D11*
X281440000Y-94750000D03*
D10*
X276360000Y-94750000D03*
X286520000Y-94750000D03*
D12*
X278940000Y-90750000D03*
D13*
X278285001Y-91480000D03*
D14*
X283960000Y-89960000D03*
D12*
X283980000Y-89670000D03*
D11*
X333827500Y-132850000D03*
D10*
X338907500Y-132850000D03*
X328747500Y-132850000D03*
D12*
X331327500Y-128850000D03*
D13*
X330672501Y-129580000D03*
D12*
X336367500Y-127770000D03*
D14*
X336347500Y-128060000D03*
D11*
X333827500Y-151900000D03*
D10*
X338907500Y-151900000D03*
X328747500Y-151900000D03*
D12*
X331327500Y-147900000D03*
D13*
X330672501Y-148630000D03*
D14*
X336347500Y-147110000D03*
D12*
X336367500Y-146820000D03*
D15*
X167640000Y-80100000D03*
D16*
X167640000Y-72300000D03*
D15*
X234315000Y-51525000D03*
D16*
X234315000Y-43725000D03*
D10*
X241276250Y-151900000D03*
D11*
X236196250Y-151900000D03*
D10*
X231116250Y-151900000D03*
D13*
X233041251Y-148630000D03*
D12*
X233696250Y-147900000D03*
X238736250Y-146820000D03*
D14*
X238716250Y-147110000D03*
D10*
X153170000Y-94750000D03*
D11*
X148090000Y-94750000D03*
D10*
X143010000Y-94750000D03*
D13*
X144935001Y-91480000D03*
D12*
X145590000Y-90750000D03*
D14*
X150610000Y-89960000D03*
D12*
X150630000Y-89670000D03*
D15*
X86677500Y-118200000D03*
D16*
X86677500Y-110400000D03*
D10*
X257945000Y-47125000D03*
X247785000Y-47125000D03*
D11*
X252865000Y-47125000D03*
D12*
X250365000Y-43125000D03*
D13*
X249710001Y-43855000D03*
D12*
X255405000Y-42045000D03*
D14*
X255385000Y-42335000D03*
D10*
X186507500Y-132850000D03*
X176347500Y-132850000D03*
D11*
X181427500Y-132850000D03*
D12*
X178927500Y-128850000D03*
D13*
X178272501Y-129580000D03*
D14*
X183947500Y-128060000D03*
D12*
X183967500Y-127770000D03*
D10*
X172220000Y-94750000D03*
D11*
X167140000Y-94750000D03*
D10*
X162060000Y-94750000D03*
D12*
X164640000Y-90750000D03*
D13*
X163985001Y-91480000D03*
D14*
X169660000Y-89960000D03*
D12*
X169680000Y-89670000D03*
D15*
X234315000Y-99150000D03*
D16*
X234315000Y-91350000D03*
D15*
X362902500Y-51525000D03*
D16*
X362902500Y-43725000D03*
D10*
X265088750Y-151900000D03*
D11*
X260008750Y-151900000D03*
D10*
X254928750Y-151900000D03*
D12*
X257508750Y-147900000D03*
D13*
X256853751Y-148630000D03*
D14*
X262528750Y-147110000D03*
D12*
X262548750Y-146820000D03*
D15*
X177165000Y-51525000D03*
D16*
X177165000Y-43725000D03*
D15*
X262890000Y-51525000D03*
D16*
X262890000Y-43725000D03*
D11*
X50458750Y-113800000D03*
D10*
X55538750Y-113800000D03*
X45378750Y-113800000D03*
D13*
X47303751Y-110530000D03*
D12*
X47958750Y-109800000D03*
X52998750Y-108720000D03*
D14*
X52978750Y-109010000D03*
D11*
X45696250Y-151900000D03*
D10*
X40616250Y-151900000D03*
X50776250Y-151900000D03*
D13*
X42541251Y-148630000D03*
D12*
X43196250Y-147900000D03*
D14*
X48216250Y-147110000D03*
D12*
X48236250Y-146820000D03*
D15*
X343852500Y-80100000D03*
D16*
X343852500Y-72300000D03*
D10*
X172220000Y-47125000D03*
X162060000Y-47125000D03*
D11*
X167140000Y-47125000D03*
D13*
X163985001Y-43855000D03*
D12*
X164640000Y-43125000D03*
X169680000Y-42045000D03*
D14*
X169660000Y-42335000D03*
D10*
X57285000Y-75700000D03*
X67445000Y-75700000D03*
D11*
X62365000Y-75700000D03*
D13*
X59210001Y-72430000D03*
D12*
X59865000Y-71700000D03*
D14*
X64885000Y-70910000D03*
D12*
X64905000Y-70620000D03*
D15*
X343852500Y-51525000D03*
D16*
X343852500Y-43725000D03*
D11*
X224290000Y-47125000D03*
D10*
X229370000Y-47125000D03*
X219210000Y-47125000D03*
D12*
X221790000Y-43125000D03*
D13*
X221135001Y-43855000D03*
D12*
X226830000Y-42045000D03*
D14*
X226810000Y-42335000D03*
D15*
X262890000Y-80100000D03*
D16*
X262890000Y-72300000D03*
D11*
X109990000Y-94750000D03*
D10*
X104910000Y-94750000D03*
X115070000Y-94750000D03*
D12*
X107490000Y-90750000D03*
D13*
X106835001Y-91480000D03*
D12*
X112530000Y-89670000D03*
D14*
X112510000Y-89960000D03*
D15*
X343852500Y-156300000D03*
D16*
X343852500Y-148500000D03*
D10*
X247785000Y-75700000D03*
D11*
X252865000Y-75700000D03*
D10*
X257945000Y-75700000D03*
D12*
X250365000Y-71700000D03*
D13*
X249710001Y-72430000D03*
D14*
X255385000Y-70910000D03*
D12*
X255405000Y-70620000D03*
D11*
X124277500Y-132850000D03*
D10*
X119197500Y-132850000D03*
X129357500Y-132850000D03*
D12*
X121777500Y-128850000D03*
D13*
X121122501Y-129580000D03*
D12*
X126817500Y-127770000D03*
D14*
X126797500Y-128060000D03*
D10*
X133485000Y-75700000D03*
D11*
X138565000Y-75700000D03*
D10*
X143645000Y-75700000D03*
D13*
X135410001Y-72430000D03*
D12*
X136065000Y-71700000D03*
D14*
X141085000Y-70910000D03*
D12*
X141105000Y-70620000D03*
D10*
X238260000Y-94750000D03*
D11*
X243340000Y-94750000D03*
D10*
X248420000Y-94750000D03*
D13*
X240185001Y-91480000D03*
D12*
X240840000Y-90750000D03*
X245880000Y-89670000D03*
D14*
X245860000Y-89960000D03*
D10*
X114435000Y-75700000D03*
D11*
X119515000Y-75700000D03*
D10*
X124595000Y-75700000D03*
D12*
X117015000Y-71700000D03*
D13*
X116360001Y-72430000D03*
D12*
X122055000Y-70620000D03*
D14*
X122035000Y-70910000D03*
D10*
X338907500Y-94750000D03*
D11*
X333827500Y-94750000D03*
D10*
X328747500Y-94750000D03*
D12*
X331327500Y-90750000D03*
D13*
X330672501Y-91480000D03*
D12*
X336367500Y-89670000D03*
D14*
X336347500Y-89960000D03*
D10*
X267470000Y-94750000D03*
D11*
X262390000Y-94750000D03*
D10*
X257310000Y-94750000D03*
D12*
X259890000Y-90750000D03*
D13*
X259235001Y-91480000D03*
D14*
X264910000Y-89960000D03*
D12*
X264930000Y-89670000D03*
D15*
X205740000Y-80100000D03*
D16*
X205740000Y-72300000D03*
D10*
X238895000Y-75700000D03*
X228735000Y-75700000D03*
D11*
X233815000Y-75700000D03*
D13*
X230660001Y-72430000D03*
D12*
X231315000Y-71700000D03*
D14*
X236335000Y-70910000D03*
D12*
X236355000Y-70620000D03*
D10*
X85860000Y-94750000D03*
D11*
X90940000Y-94750000D03*
D10*
X96020000Y-94750000D03*
D12*
X88440000Y-90750000D03*
D13*
X87785001Y-91480000D03*
D12*
X93480000Y-89670000D03*
D14*
X93460000Y-89960000D03*
D15*
X172402500Y-137250000D03*
D16*
X172402500Y-129450000D03*
D15*
X158115000Y-99150000D03*
D16*
X158115000Y-91350000D03*
D15*
X120015000Y-99150000D03*
D16*
X120015000Y-91350000D03*
D15*
X362902500Y-156300000D03*
D16*
X362902500Y-148500000D03*
D15*
X91440000Y-80100000D03*
D16*
X91440000Y-72300000D03*
D10*
X328747500Y-47125000D03*
D11*
X333827500Y-47125000D03*
D10*
X338907500Y-47125000D03*
D12*
X331327500Y-43125000D03*
D13*
X330672501Y-43855000D03*
D12*
X336367500Y-42045000D03*
D14*
X336347500Y-42335000D03*
D15*
X91440000Y-51525000D03*
D16*
X91440000Y-43725000D03*
D15*
X139065000Y-99150000D03*
D16*
X139065000Y-91350000D03*
D15*
X310515000Y-137250000D03*
D16*
X310515000Y-129450000D03*
D15*
X67627500Y-118200000D03*
D16*
X67627500Y-110400000D03*
D15*
X153352500Y-137250000D03*
D16*
X153352500Y-129450000D03*
D15*
X105727500Y-156300000D03*
D16*
X105727500Y-148500000D03*
D10*
X357957500Y-94750000D03*
X347797500Y-94750000D03*
D11*
X352877500Y-94750000D03*
D12*
X350377500Y-90750000D03*
D13*
X349722501Y-91480000D03*
D14*
X355397500Y-89960000D03*
D12*
X355417500Y-89670000D03*
D15*
X224790000Y-156300000D03*
D16*
X224790000Y-148500000D03*
D15*
X215265000Y-51525000D03*
D16*
X215265000Y-43725000D03*
D10*
X200795000Y-75700000D03*
X190635000Y-75700000D03*
D11*
X195715000Y-75700000D03*
D12*
X193215000Y-71700000D03*
D13*
X192560001Y-72430000D03*
D14*
X198235000Y-70910000D03*
D12*
X198255000Y-70620000D03*
D10*
X143645000Y-47125000D03*
X133485000Y-47125000D03*
D11*
X138565000Y-47125000D03*
D13*
X135410001Y-43855000D03*
D12*
X136065000Y-43125000D03*
D14*
X141085000Y-42335000D03*
D12*
X141105000Y-42045000D03*
D15*
X177165000Y-99150000D03*
D16*
X177165000Y-91350000D03*
D11*
X176665000Y-75700000D03*
D10*
X171585000Y-75700000D03*
X181745000Y-75700000D03*
D12*
X174165000Y-71700000D03*
D13*
X173510001Y-72430000D03*
D14*
X179185000Y-70910000D03*
D12*
X179205000Y-70620000D03*
D15*
X220027500Y-118200000D03*
D16*
X220027500Y-110400000D03*
D15*
X196215000Y-99150000D03*
D16*
X196215000Y-91350000D03*
D10*
X86495000Y-75700000D03*
X76335000Y-75700000D03*
D11*
X81415000Y-75700000D03*
D13*
X78260001Y-72430000D03*
D12*
X78915000Y-71700000D03*
X83955000Y-70620000D03*
D14*
X83935000Y-70910000D03*
D18*
X45932603Y-59430836D03*
X43882603Y-59430836D03*
D19*
X72810749Y-64408040D03*
X74860749Y-64408040D03*
D18*
X59364994Y-48260000D03*
X57314994Y-48260000D03*
D19*
X63531621Y-48259999D03*
X65581621Y-48259999D03*
D18*
X44124744Y-63825486D03*
X42074744Y-63825486D03*
D19*
X69608104Y-46983569D03*
X71658104Y-46983569D03*
D20*
X59685239Y-37866315D03*
X65985239Y-37866315D03*
X59685239Y-41666315D03*
X65985239Y-41666315D03*
D21*
X57768511Y-61969110D03*
X57768511Y-61169110D03*
X57768511Y-60369110D03*
X57768511Y-59569110D03*
X57768511Y-58769110D03*
X57768511Y-57969110D03*
X57768511Y-57169110D03*
X57768511Y-56369110D03*
X57768511Y-55569110D03*
X57768511Y-54769110D03*
X57768511Y-53969110D03*
D22*
X59468511Y-52269110D03*
X60268511Y-52269110D03*
X61068511Y-52269110D03*
X61868511Y-52269110D03*
X62668511Y-52269110D03*
X63468511Y-52269110D03*
X64268511Y-52269110D03*
X65068511Y-52269110D03*
X65868511Y-52269110D03*
X66668511Y-52269110D03*
X67468511Y-52269110D03*
D21*
X69168511Y-53969110D03*
X69168511Y-54769110D03*
X69168511Y-55569110D03*
X69168511Y-56369110D03*
X69168511Y-57169110D03*
X69168511Y-57969110D03*
X69168511Y-58769110D03*
X69168511Y-59569110D03*
X69168511Y-60369110D03*
X69168511Y-61169110D03*
X69168511Y-61969110D03*
D22*
X67468511Y-63669110D03*
X66668511Y-63669110D03*
X65868511Y-63669110D03*
X65068511Y-63669110D03*
X64268511Y-63669110D03*
X63468511Y-63669110D03*
X62668511Y-63669110D03*
X61868511Y-63669110D03*
X61068511Y-63669110D03*
X60268511Y-63669110D03*
X59468511Y-63669110D03*
D18*
X80583464Y-64606701D03*
X78533464Y-64606701D03*
D19*
X87295834Y-36727454D03*
X89345834Y-36727454D03*
X48215889Y-58063412D03*
X50265889Y-58063412D03*
D23*
X60845255Y-46060725D03*
X57545255Y-46060725D03*
X57545255Y-44060725D03*
X60845255Y-44060725D03*
D24*
X204246250Y-38800000D03*
X204246250Y-34300000D03*
X196946250Y-38800000D03*
X196946250Y-34300000D03*
D25*
X202196250Y-38800000D03*
X201396250Y-38800000D03*
X200596250Y-38800000D03*
X199796250Y-38800000D03*
X198996250Y-38800000D03*
D19*
X82991078Y-36656153D03*
X85041078Y-36656153D03*
X78757529Y-36691804D03*
X80807529Y-36691804D03*
M02*
