G04 #@! TF.GenerationSoftware,KiCad,Pcbnew,(6.0.7-1)-1*
G04 #@! TF.CreationDate,2022-09-16T02:28:04+09:00*
G04 #@! TF.ProjectId,keyboard,6b657962-6f61-4726-942e-6b696361645f,rev?*
G04 #@! TF.SameCoordinates,Original*
G04 #@! TF.FileFunction,Legend,Top*
G04 #@! TF.FilePolarity,Positive*
%FSLAX46Y46*%
G04 Gerber Fmt 4.6, Leading zero omitted, Abs format (unit mm)*
G04 Created by KiCad (PCBNEW (6.0.7-1)-1) date 2022-09-16 02:28:04*
%MOMM*%
%LPD*%
G01*
G04 APERTURE LIST*
%ADD10C,0.150000*%
%ADD11C,0.200000*%
%ADD12R,1.600000X1.600000*%
%ADD13C,1.600000*%
G04 APERTURE END LIST*
D10*
X98489404Y-132454761D02*
X97689404Y-132454761D01*
X97689404Y-132645238D01*
X97727500Y-132759523D01*
X97803690Y-132835714D01*
X97879880Y-132873809D01*
X98032261Y-132911904D01*
X98146547Y-132911904D01*
X98298928Y-132873809D01*
X98375119Y-132835714D01*
X98451309Y-132759523D01*
X98489404Y-132645238D01*
X98489404Y-132454761D01*
X98565595Y-133064285D02*
X98565595Y-133673809D01*
X97689404Y-133788095D02*
X97689404Y-134321428D01*
X98489404Y-133788095D01*
X98489404Y-134321428D01*
X193739404Y-132416666D02*
X192939404Y-132416666D01*
X192939404Y-132607142D01*
X192977500Y-132721428D01*
X193053690Y-132797619D01*
X193129880Y-132835714D01*
X193282261Y-132873809D01*
X193396547Y-132873809D01*
X193548928Y-132835714D01*
X193625119Y-132797619D01*
X193701309Y-132721428D01*
X193739404Y-132607142D01*
X193739404Y-132416666D01*
X193815595Y-133026190D02*
X193815595Y-133635714D01*
X193739404Y-133826190D02*
X192939404Y-133826190D01*
X193739404Y-134283333D01*
X192939404Y-134283333D01*
X346139404Y-112166666D02*
X345339404Y-112166666D01*
X345339404Y-112357142D01*
X345377500Y-112471428D01*
X345453690Y-112547619D01*
X345529880Y-112585714D01*
X345682261Y-112623809D01*
X345796547Y-112623809D01*
X345948928Y-112585714D01*
X346025119Y-112547619D01*
X346101309Y-112471428D01*
X346139404Y-112357142D01*
X346139404Y-112166666D01*
X346215595Y-112776190D02*
X346215595Y-113385714D01*
X346139404Y-113576190D02*
X345339404Y-113576190D01*
X345339404Y-113880952D01*
X345377500Y-113957142D01*
X345415595Y-113995238D01*
X345491785Y-114033333D01*
X345606071Y-114033333D01*
X345682261Y-113995238D01*
X345720357Y-113957142D01*
X345758452Y-113880952D01*
X345758452Y-113576190D01*
X345377500Y-114795238D02*
X345339404Y-114719047D01*
X345339404Y-114604761D01*
X345377500Y-114490476D01*
X345453690Y-114414285D01*
X345529880Y-114376190D01*
X345682261Y-114338095D01*
X345796547Y-114338095D01*
X345948928Y-114376190D01*
X346025119Y-114414285D01*
X346101309Y-114490476D01*
X346139404Y-114604761D01*
X346139404Y-114680952D01*
X346101309Y-114795238D01*
X346063214Y-114833333D01*
X345796547Y-114833333D01*
X345796547Y-114680952D01*
X345339404Y-115176190D02*
X345987023Y-115176190D01*
X346063214Y-115214285D01*
X346101309Y-115252380D01*
X346139404Y-115328571D01*
X346139404Y-115480952D01*
X346101309Y-115557142D01*
X346063214Y-115595238D01*
X345987023Y-115633333D01*
X345339404Y-115633333D01*
X346139404Y-116014285D02*
X345339404Y-116014285D01*
X345339404Y-116319047D01*
X345377500Y-116395238D01*
X345415595Y-116433333D01*
X345491785Y-116471428D01*
X345606071Y-116471428D01*
X345682261Y-116433333D01*
X345720357Y-116395238D01*
X345758452Y-116319047D01*
X345758452Y-116014285D01*
X274701904Y-92792857D02*
X273901904Y-92792857D01*
X273901904Y-92983333D01*
X273940000Y-93097619D01*
X274016190Y-93173809D01*
X274092380Y-93211904D01*
X274244761Y-93250000D01*
X274359047Y-93250000D01*
X274511428Y-93211904D01*
X274587619Y-93173809D01*
X274663809Y-93097619D01*
X274701904Y-92983333D01*
X274701904Y-92792857D01*
X274778095Y-93402380D02*
X274778095Y-94011904D01*
X274625714Y-94659523D02*
X274663809Y-94621428D01*
X274701904Y-94507142D01*
X274701904Y-94430952D01*
X274663809Y-94316666D01*
X274587619Y-94240476D01*
X274511428Y-94202380D01*
X274359047Y-94164285D01*
X274244761Y-94164285D01*
X274092380Y-94202380D01*
X274016190Y-94240476D01*
X273940000Y-94316666D01*
X273901904Y-94430952D01*
X273901904Y-94507142D01*
X273940000Y-94621428D01*
X273978095Y-94659523D01*
X274282857Y-95269047D02*
X274320952Y-95383333D01*
X274359047Y-95421428D01*
X274435238Y-95459523D01*
X274549523Y-95459523D01*
X274625714Y-95421428D01*
X274663809Y-95383333D01*
X274701904Y-95307142D01*
X274701904Y-95002380D01*
X273901904Y-95002380D01*
X273901904Y-95269047D01*
X273940000Y-95345238D01*
X273978095Y-95383333D01*
X274054285Y-95421428D01*
X274130476Y-95421428D01*
X274206666Y-95383333D01*
X274244761Y-95345238D01*
X274282857Y-95269047D01*
X274282857Y-95002380D01*
X274701904Y-96259523D02*
X274320952Y-95992857D01*
X274701904Y-95802380D02*
X273901904Y-95802380D01*
X273901904Y-96107142D01*
X273940000Y-96183333D01*
X273978095Y-96221428D01*
X274054285Y-96259523D01*
X274168571Y-96259523D01*
X274244761Y-96221428D01*
X274282857Y-96183333D01*
X274320952Y-96107142D01*
X274320952Y-95802380D01*
X274473333Y-96564285D02*
X274473333Y-96945238D01*
X274701904Y-96488095D02*
X273901904Y-96754761D01*
X274701904Y-97021428D01*
X274625714Y-97745238D02*
X274663809Y-97707142D01*
X274701904Y-97592857D01*
X274701904Y-97516666D01*
X274663809Y-97402380D01*
X274587619Y-97326190D01*
X274511428Y-97288095D01*
X274359047Y-97250000D01*
X274244761Y-97250000D01*
X274092380Y-97288095D01*
X274016190Y-97326190D01*
X273940000Y-97402380D01*
X273901904Y-97516666D01*
X273901904Y-97592857D01*
X273940000Y-97707142D01*
X273978095Y-97745238D01*
X365189404Y-93554761D02*
X364389404Y-93554761D01*
X364389404Y-93745238D01*
X364427500Y-93859523D01*
X364503690Y-93935714D01*
X364579880Y-93973809D01*
X364732261Y-94011904D01*
X364846547Y-94011904D01*
X364998928Y-93973809D01*
X365075119Y-93935714D01*
X365151309Y-93859523D01*
X365189404Y-93745238D01*
X365189404Y-93554761D01*
X365265595Y-94164285D02*
X365265595Y-94773809D01*
X364770357Y-94964285D02*
X364770357Y-95230952D01*
X365189404Y-95345238D02*
X365189404Y-94964285D01*
X364389404Y-94964285D01*
X364389404Y-95345238D01*
X365189404Y-95688095D02*
X364389404Y-95688095D01*
X365189404Y-96145238D01*
X364389404Y-96145238D01*
X365189404Y-96526190D02*
X364389404Y-96526190D01*
X364389404Y-96716666D01*
X364427500Y-96830952D01*
X364503690Y-96907142D01*
X364579880Y-96945238D01*
X364732261Y-96983333D01*
X364846547Y-96983333D01*
X364998928Y-96945238D01*
X365075119Y-96907142D01*
X365151309Y-96830952D01*
X365189404Y-96716666D01*
X365189404Y-96526190D01*
X365189404Y-74028571D02*
X364389404Y-74028571D01*
X364389404Y-74219047D01*
X364427500Y-74333333D01*
X364503690Y-74409523D01*
X364579880Y-74447619D01*
X364732261Y-74485714D01*
X364846547Y-74485714D01*
X364998928Y-74447619D01*
X365075119Y-74409523D01*
X365151309Y-74333333D01*
X365189404Y-74219047D01*
X365189404Y-74028571D01*
X365265595Y-74638095D02*
X365265595Y-75247619D01*
X365189404Y-75438095D02*
X364389404Y-75438095D01*
X364770357Y-75438095D02*
X364770357Y-75895238D01*
X365189404Y-75895238D02*
X364389404Y-75895238D01*
X364389404Y-76428571D02*
X364389404Y-76580952D01*
X364427500Y-76657142D01*
X364503690Y-76733333D01*
X364656071Y-76771428D01*
X364922738Y-76771428D01*
X365075119Y-76733333D01*
X365151309Y-76657142D01*
X365189404Y-76580952D01*
X365189404Y-76428571D01*
X365151309Y-76352380D01*
X365075119Y-76276190D01*
X364922738Y-76238095D01*
X364656071Y-76238095D01*
X364503690Y-76276190D01*
X364427500Y-76352380D01*
X364389404Y-76428571D01*
X365189404Y-77114285D02*
X364389404Y-77114285D01*
X364960833Y-77380952D01*
X364389404Y-77647619D01*
X365189404Y-77647619D01*
X364770357Y-78028571D02*
X364770357Y-78295238D01*
X365189404Y-78409523D02*
X365189404Y-78028571D01*
X364389404Y-78028571D01*
X364389404Y-78409523D01*
X146114404Y-113442857D02*
X145314404Y-113442857D01*
X145314404Y-113633333D01*
X145352500Y-113747619D01*
X145428690Y-113823809D01*
X145504880Y-113861904D01*
X145657261Y-113900000D01*
X145771547Y-113900000D01*
X145923928Y-113861904D01*
X146000119Y-113823809D01*
X146076309Y-113747619D01*
X146114404Y-113633333D01*
X146114404Y-113442857D01*
X146190595Y-114052380D02*
X146190595Y-114661904D01*
X145695357Y-115119047D02*
X145695357Y-114852380D01*
X146114404Y-114852380D02*
X145314404Y-114852380D01*
X145314404Y-115233333D01*
X322326904Y-111938095D02*
X321526904Y-111938095D01*
X321526904Y-112128571D01*
X321565000Y-112242857D01*
X321641190Y-112319047D01*
X321717380Y-112357142D01*
X321869761Y-112395238D01*
X321984047Y-112395238D01*
X322136428Y-112357142D01*
X322212619Y-112319047D01*
X322288809Y-112242857D01*
X322326904Y-112128571D01*
X322326904Y-111938095D01*
X322403095Y-112547619D02*
X322403095Y-113157142D01*
X321907857Y-113347619D02*
X321907857Y-113614285D01*
X322326904Y-113728571D02*
X322326904Y-113347619D01*
X321526904Y-113347619D01*
X321526904Y-113728571D01*
X322326904Y-114071428D02*
X321526904Y-114071428D01*
X322326904Y-114528571D01*
X321526904Y-114528571D01*
X321526904Y-114795238D02*
X321526904Y-115252380D01*
X322326904Y-115023809D02*
X321526904Y-115023809D01*
X321907857Y-115519047D02*
X321907857Y-115785714D01*
X322326904Y-115900000D02*
X322326904Y-115519047D01*
X321526904Y-115519047D01*
X321526904Y-115900000D01*
X322326904Y-116700000D02*
X321945952Y-116433333D01*
X322326904Y-116242857D02*
X321526904Y-116242857D01*
X321526904Y-116547619D01*
X321565000Y-116623809D01*
X321603095Y-116661904D01*
X321679285Y-116700000D01*
X321793571Y-116700000D01*
X321869761Y-116661904D01*
X321907857Y-116623809D01*
X321945952Y-116547619D01*
X321945952Y-116242857D01*
X322326904Y-92830952D02*
X321526904Y-92830952D01*
X321526904Y-93021428D01*
X321565000Y-93135714D01*
X321641190Y-93211904D01*
X321717380Y-93250000D01*
X321869761Y-93288095D01*
X321984047Y-93288095D01*
X322136428Y-93250000D01*
X322212619Y-93211904D01*
X322288809Y-93135714D01*
X322326904Y-93021428D01*
X322326904Y-92830952D01*
X322403095Y-93440476D02*
X322403095Y-94050000D01*
X321907857Y-94507142D02*
X321945952Y-94621428D01*
X321984047Y-94659523D01*
X322060238Y-94697619D01*
X322174523Y-94697619D01*
X322250714Y-94659523D01*
X322288809Y-94621428D01*
X322326904Y-94545238D01*
X322326904Y-94240476D01*
X321526904Y-94240476D01*
X321526904Y-94507142D01*
X321565000Y-94583333D01*
X321603095Y-94621428D01*
X321679285Y-94659523D01*
X321755476Y-94659523D01*
X321831666Y-94621428D01*
X321869761Y-94583333D01*
X321907857Y-94507142D01*
X321907857Y-94240476D01*
X322288809Y-95002380D02*
X322326904Y-95116666D01*
X322326904Y-95307142D01*
X322288809Y-95383333D01*
X322250714Y-95421428D01*
X322174523Y-95459523D01*
X322098333Y-95459523D01*
X322022142Y-95421428D01*
X321984047Y-95383333D01*
X321945952Y-95307142D01*
X321907857Y-95154761D01*
X321869761Y-95078571D01*
X321831666Y-95040476D01*
X321755476Y-95002380D01*
X321679285Y-95002380D01*
X321603095Y-95040476D01*
X321565000Y-95078571D01*
X321526904Y-95154761D01*
X321526904Y-95345238D01*
X321565000Y-95459523D01*
X322326904Y-96183333D02*
X322326904Y-95802380D01*
X321526904Y-95802380D01*
X322288809Y-96411904D02*
X322326904Y-96526190D01*
X322326904Y-96716666D01*
X322288809Y-96792857D01*
X322250714Y-96830952D01*
X322174523Y-96869047D01*
X322098333Y-96869047D01*
X322022142Y-96830952D01*
X321984047Y-96792857D01*
X321945952Y-96716666D01*
X321907857Y-96564285D01*
X321869761Y-96488095D01*
X321831666Y-96450000D01*
X321755476Y-96411904D01*
X321679285Y-96411904D01*
X321603095Y-96450000D01*
X321565000Y-96488095D01*
X321526904Y-96564285D01*
X321526904Y-96754761D01*
X321565000Y-96869047D01*
X322326904Y-97211904D02*
X321526904Y-97211904D01*
X321907857Y-97211904D02*
X321907857Y-97669047D01*
X322326904Y-97669047D02*
X321526904Y-97669047D01*
X346139404Y-92621428D02*
X345339404Y-92621428D01*
X345339404Y-92811904D01*
X345377500Y-92926190D01*
X345453690Y-93002380D01*
X345529880Y-93040476D01*
X345682261Y-93078571D01*
X345796547Y-93078571D01*
X345948928Y-93040476D01*
X346025119Y-93002380D01*
X346101309Y-92926190D01*
X346139404Y-92811904D01*
X346139404Y-92621428D01*
X346215595Y-93230952D02*
X346215595Y-93840476D01*
X346139404Y-94030952D02*
X345339404Y-94030952D01*
X345339404Y-94221428D01*
X345377500Y-94335714D01*
X345453690Y-94411904D01*
X345529880Y-94450000D01*
X345682261Y-94488095D01*
X345796547Y-94488095D01*
X345948928Y-94450000D01*
X346025119Y-94411904D01*
X346101309Y-94335714D01*
X346139404Y-94221428D01*
X346139404Y-94030952D01*
X345720357Y-94830952D02*
X345720357Y-95097619D01*
X346139404Y-95211904D02*
X346139404Y-94830952D01*
X345339404Y-94830952D01*
X345339404Y-95211904D01*
X346139404Y-95935714D02*
X346139404Y-95554761D01*
X345339404Y-95554761D01*
X345720357Y-96202380D02*
X345720357Y-96469047D01*
X346139404Y-96583333D02*
X346139404Y-96202380D01*
X345339404Y-96202380D01*
X345339404Y-96583333D01*
X345339404Y-96811904D02*
X345339404Y-97269047D01*
X346139404Y-97040476D02*
X345339404Y-97040476D01*
X345720357Y-97535714D02*
X345720357Y-97802380D01*
X346139404Y-97916666D02*
X346139404Y-97535714D01*
X345339404Y-97535714D01*
X345339404Y-97916666D01*
X241364404Y-113461904D02*
X240564404Y-113461904D01*
X240564404Y-113652380D01*
X240602500Y-113766666D01*
X240678690Y-113842857D01*
X240754880Y-113880952D01*
X240907261Y-113919047D01*
X241021547Y-113919047D01*
X241173928Y-113880952D01*
X241250119Y-113842857D01*
X241326309Y-113766666D01*
X241364404Y-113652380D01*
X241364404Y-113461904D01*
X241440595Y-114071428D02*
X241440595Y-114680952D01*
X241364404Y-115252380D02*
X241364404Y-114871428D01*
X240564404Y-114871428D01*
X231839404Y-130759523D02*
X231039404Y-130759523D01*
X231039404Y-130950000D01*
X231077500Y-131064285D01*
X231153690Y-131140476D01*
X231229880Y-131178571D01*
X231382261Y-131216666D01*
X231496547Y-131216666D01*
X231648928Y-131178571D01*
X231725119Y-131140476D01*
X231801309Y-131064285D01*
X231839404Y-130950000D01*
X231839404Y-130759523D01*
X231915595Y-131369047D02*
X231915595Y-131978571D01*
X231763214Y-132626190D02*
X231801309Y-132588095D01*
X231839404Y-132473809D01*
X231839404Y-132397619D01*
X231801309Y-132283333D01*
X231725119Y-132207142D01*
X231648928Y-132169047D01*
X231496547Y-132130952D01*
X231382261Y-132130952D01*
X231229880Y-132169047D01*
X231153690Y-132207142D01*
X231077500Y-132283333D01*
X231039404Y-132397619D01*
X231039404Y-132473809D01*
X231077500Y-132588095D01*
X231115595Y-132626190D01*
X231039404Y-133121428D02*
X231039404Y-133273809D01*
X231077500Y-133350000D01*
X231153690Y-133426190D01*
X231306071Y-133464285D01*
X231572738Y-133464285D01*
X231725119Y-133426190D01*
X231801309Y-133350000D01*
X231839404Y-133273809D01*
X231839404Y-133121428D01*
X231801309Y-133045238D01*
X231725119Y-132969047D01*
X231572738Y-132930952D01*
X231306071Y-132930952D01*
X231153690Y-132969047D01*
X231077500Y-133045238D01*
X231039404Y-133121428D01*
X231839404Y-133807142D02*
X231039404Y-133807142D01*
X231610833Y-134073809D01*
X231039404Y-134340476D01*
X231839404Y-134340476D01*
X231839404Y-134721428D02*
X231039404Y-134721428D01*
X231610833Y-134988095D01*
X231039404Y-135254761D01*
X231839404Y-135254761D01*
X231610833Y-135597619D02*
X231610833Y-135978571D01*
X231839404Y-135521428D02*
X231039404Y-135788095D01*
X231839404Y-136054761D01*
X322326904Y-72257142D02*
X321526904Y-72257142D01*
X321526904Y-72447619D01*
X321565000Y-72561904D01*
X321641190Y-72638095D01*
X321717380Y-72676190D01*
X321869761Y-72714285D01*
X321984047Y-72714285D01*
X322136428Y-72676190D01*
X322212619Y-72638095D01*
X322288809Y-72561904D01*
X322326904Y-72447619D01*
X322326904Y-72257142D01*
X322403095Y-72866666D02*
X322403095Y-73476190D01*
X321907857Y-73933333D02*
X321945952Y-74047619D01*
X321984047Y-74085714D01*
X322060238Y-74123809D01*
X322174523Y-74123809D01*
X322250714Y-74085714D01*
X322288809Y-74047619D01*
X322326904Y-73971428D01*
X322326904Y-73666666D01*
X321526904Y-73666666D01*
X321526904Y-73933333D01*
X321565000Y-74009523D01*
X321603095Y-74047619D01*
X321679285Y-74085714D01*
X321755476Y-74085714D01*
X321831666Y-74047619D01*
X321869761Y-74009523D01*
X321907857Y-73933333D01*
X321907857Y-73666666D01*
X322098333Y-74428571D02*
X322098333Y-74809523D01*
X322326904Y-74352380D02*
X321526904Y-74619047D01*
X322326904Y-74885714D01*
X322250714Y-75609523D02*
X322288809Y-75571428D01*
X322326904Y-75457142D01*
X322326904Y-75380952D01*
X322288809Y-75266666D01*
X322212619Y-75190476D01*
X322136428Y-75152380D01*
X321984047Y-75114285D01*
X321869761Y-75114285D01*
X321717380Y-75152380D01*
X321641190Y-75190476D01*
X321565000Y-75266666D01*
X321526904Y-75380952D01*
X321526904Y-75457142D01*
X321565000Y-75571428D01*
X321603095Y-75609523D01*
X322326904Y-75952380D02*
X321526904Y-75952380D01*
X322326904Y-76409523D02*
X321869761Y-76066666D01*
X321526904Y-76409523D02*
X321984047Y-75952380D01*
X322288809Y-76714285D02*
X322326904Y-76828571D01*
X322326904Y-77019047D01*
X322288809Y-77095238D01*
X322250714Y-77133333D01*
X322174523Y-77171428D01*
X322098333Y-77171428D01*
X322022142Y-77133333D01*
X321984047Y-77095238D01*
X321945952Y-77019047D01*
X321907857Y-76866666D01*
X321869761Y-76790476D01*
X321831666Y-76752380D01*
X321755476Y-76714285D01*
X321679285Y-76714285D01*
X321603095Y-76752380D01*
X321565000Y-76790476D01*
X321526904Y-76866666D01*
X321526904Y-77057142D01*
X321565000Y-77171428D01*
X322326904Y-77514285D02*
X321526904Y-77514285D01*
X321526904Y-77819047D01*
X321565000Y-77895238D01*
X321603095Y-77933333D01*
X321679285Y-77971428D01*
X321793571Y-77971428D01*
X321869761Y-77933333D01*
X321907857Y-77895238D01*
X321945952Y-77819047D01*
X321945952Y-77514285D01*
X322098333Y-78276190D02*
X322098333Y-78657142D01*
X322326904Y-78200000D02*
X321526904Y-78466666D01*
X322326904Y-78733333D01*
X322250714Y-79457142D02*
X322288809Y-79419047D01*
X322326904Y-79304761D01*
X322326904Y-79228571D01*
X322288809Y-79114285D01*
X322212619Y-79038095D01*
X322136428Y-79000000D01*
X321984047Y-78961904D01*
X321869761Y-78961904D01*
X321717380Y-79000000D01*
X321641190Y-79038095D01*
X321565000Y-79114285D01*
X321526904Y-79228571D01*
X321526904Y-79304761D01*
X321565000Y-79419047D01*
X321603095Y-79457142D01*
X321907857Y-79800000D02*
X321907857Y-80066666D01*
X322326904Y-80180952D02*
X322326904Y-79800000D01*
X321526904Y-79800000D01*
X321526904Y-80180952D01*
X303276904Y-46005952D02*
X302476904Y-46005952D01*
X302476904Y-46196428D01*
X302515000Y-46310714D01*
X302591190Y-46386904D01*
X302667380Y-46425000D01*
X302819761Y-46463095D01*
X302934047Y-46463095D01*
X303086428Y-46425000D01*
X303162619Y-46386904D01*
X303238809Y-46310714D01*
X303276904Y-46196428D01*
X303276904Y-46005952D01*
X303353095Y-46615476D02*
X303353095Y-47225000D01*
X302857857Y-47682142D02*
X302857857Y-47415476D01*
X303276904Y-47415476D02*
X302476904Y-47415476D01*
X302476904Y-47796428D01*
X303276904Y-48520238D02*
X303276904Y-48063095D01*
X303276904Y-48291666D02*
X302476904Y-48291666D01*
X302591190Y-48215476D01*
X302667380Y-48139285D01*
X302705476Y-48063095D01*
X303276904Y-49282142D02*
X303276904Y-48825000D01*
X303276904Y-49053571D02*
X302476904Y-49053571D01*
X302591190Y-48977380D01*
X302667380Y-48901190D01*
X302705476Y-48825000D01*
X108014404Y-113404761D02*
X107214404Y-113404761D01*
X107214404Y-113595238D01*
X107252500Y-113709523D01*
X107328690Y-113785714D01*
X107404880Y-113823809D01*
X107557261Y-113861904D01*
X107671547Y-113861904D01*
X107823928Y-113823809D01*
X107900119Y-113785714D01*
X107976309Y-113709523D01*
X108014404Y-113595238D01*
X108014404Y-113404761D01*
X108090595Y-114014285D02*
X108090595Y-114623809D01*
X107976309Y-114776190D02*
X108014404Y-114890476D01*
X108014404Y-115080952D01*
X107976309Y-115157142D01*
X107938214Y-115195238D01*
X107862023Y-115233333D01*
X107785833Y-115233333D01*
X107709642Y-115195238D01*
X107671547Y-115157142D01*
X107633452Y-115080952D01*
X107595357Y-114928571D01*
X107557261Y-114852380D01*
X107519166Y-114814285D01*
X107442976Y-114776190D01*
X107366785Y-114776190D01*
X107290595Y-114814285D01*
X107252500Y-114852380D01*
X107214404Y-114928571D01*
X107214404Y-115119047D01*
X107252500Y-115233333D01*
X74676904Y-75304761D02*
X73876904Y-75304761D01*
X73876904Y-75495238D01*
X73915000Y-75609523D01*
X73991190Y-75685714D01*
X74067380Y-75723809D01*
X74219761Y-75761904D01*
X74334047Y-75761904D01*
X74486428Y-75723809D01*
X74562619Y-75685714D01*
X74638809Y-75609523D01*
X74676904Y-75495238D01*
X74676904Y-75304761D01*
X74753095Y-75914285D02*
X74753095Y-76523809D01*
X74676904Y-77133333D02*
X74676904Y-76676190D01*
X74676904Y-76904761D02*
X73876904Y-76904761D01*
X73991190Y-76828571D01*
X74067380Y-76752380D01*
X74105476Y-76676190D01*
X127064404Y-113385714D02*
X126264404Y-113385714D01*
X126264404Y-113576190D01*
X126302500Y-113690476D01*
X126378690Y-113766666D01*
X126454880Y-113804761D01*
X126607261Y-113842857D01*
X126721547Y-113842857D01*
X126873928Y-113804761D01*
X126950119Y-113766666D01*
X127026309Y-113690476D01*
X127064404Y-113576190D01*
X127064404Y-113385714D01*
X127140595Y-113995238D02*
X127140595Y-114604761D01*
X127064404Y-114795238D02*
X126264404Y-114795238D01*
X126264404Y-114985714D01*
X126302500Y-115100000D01*
X126378690Y-115176190D01*
X126454880Y-115214285D01*
X126607261Y-115252380D01*
X126721547Y-115252380D01*
X126873928Y-115214285D01*
X126950119Y-115176190D01*
X127026309Y-115100000D01*
X127064404Y-114985714D01*
X127064404Y-114795238D01*
X269939404Y-130988095D02*
X269139404Y-130988095D01*
X269139404Y-131178571D01*
X269177500Y-131292857D01*
X269253690Y-131369047D01*
X269329880Y-131407142D01*
X269482261Y-131445238D01*
X269596547Y-131445238D01*
X269748928Y-131407142D01*
X269825119Y-131369047D01*
X269901309Y-131292857D01*
X269939404Y-131178571D01*
X269939404Y-130988095D01*
X270015595Y-131597619D02*
X270015595Y-132207142D01*
X269901309Y-132359523D02*
X269939404Y-132473809D01*
X269939404Y-132664285D01*
X269901309Y-132740476D01*
X269863214Y-132778571D01*
X269787023Y-132816666D01*
X269710833Y-132816666D01*
X269634642Y-132778571D01*
X269596547Y-132740476D01*
X269558452Y-132664285D01*
X269520357Y-132511904D01*
X269482261Y-132435714D01*
X269444166Y-132397619D01*
X269367976Y-132359523D01*
X269291785Y-132359523D01*
X269215595Y-132397619D01*
X269177500Y-132435714D01*
X269139404Y-132511904D01*
X269139404Y-132702380D01*
X269177500Y-132816666D01*
X269939404Y-133540476D02*
X269939404Y-133159523D01*
X269139404Y-133159523D01*
X269710833Y-133769047D02*
X269710833Y-134150000D01*
X269939404Y-133692857D02*
X269139404Y-133959523D01*
X269939404Y-134226190D01*
X269901309Y-134454761D02*
X269939404Y-134569047D01*
X269939404Y-134759523D01*
X269901309Y-134835714D01*
X269863214Y-134873809D01*
X269787023Y-134911904D01*
X269710833Y-134911904D01*
X269634642Y-134873809D01*
X269596547Y-134835714D01*
X269558452Y-134759523D01*
X269520357Y-134607142D01*
X269482261Y-134530952D01*
X269444166Y-134492857D01*
X269367976Y-134454761D01*
X269291785Y-134454761D01*
X269215595Y-134492857D01*
X269177500Y-134530952D01*
X269139404Y-134607142D01*
X269139404Y-134797619D01*
X269177500Y-134911904D01*
X269939404Y-135254761D02*
X269139404Y-135254761D01*
X269520357Y-135254761D02*
X269520357Y-135711904D01*
X269939404Y-135711904D02*
X269139404Y-135711904D01*
X131826904Y-75304761D02*
X131026904Y-75304761D01*
X131026904Y-75495238D01*
X131065000Y-75609523D01*
X131141190Y-75685714D01*
X131217380Y-75723809D01*
X131369761Y-75761904D01*
X131484047Y-75761904D01*
X131636428Y-75723809D01*
X131712619Y-75685714D01*
X131788809Y-75609523D01*
X131826904Y-75495238D01*
X131826904Y-75304761D01*
X131903095Y-75914285D02*
X131903095Y-76523809D01*
X131293571Y-77057142D02*
X131826904Y-77057142D01*
X130988809Y-76866666D02*
X131560238Y-76676190D01*
X131560238Y-77171428D01*
X60389404Y-150457142D02*
X59589404Y-150457142D01*
X59589404Y-150647619D01*
X59627500Y-150761904D01*
X59703690Y-150838095D01*
X59779880Y-150876190D01*
X59932261Y-150914285D01*
X60046547Y-150914285D01*
X60198928Y-150876190D01*
X60275119Y-150838095D01*
X60351309Y-150761904D01*
X60389404Y-150647619D01*
X60389404Y-150457142D01*
X60465595Y-151066666D02*
X60465595Y-151676190D01*
X60313214Y-152323809D02*
X60351309Y-152285714D01*
X60389404Y-152171428D01*
X60389404Y-152095238D01*
X60351309Y-151980952D01*
X60275119Y-151904761D01*
X60198928Y-151866666D01*
X60046547Y-151828571D01*
X59932261Y-151828571D01*
X59779880Y-151866666D01*
X59703690Y-151904761D01*
X59627500Y-151980952D01*
X59589404Y-152095238D01*
X59589404Y-152171428D01*
X59627500Y-152285714D01*
X59665595Y-152323809D01*
X59589404Y-152552380D02*
X59589404Y-153009523D01*
X60389404Y-152780952D02*
X59589404Y-152780952D01*
X60389404Y-153733333D02*
X60008452Y-153466666D01*
X60389404Y-153276190D02*
X59589404Y-153276190D01*
X59589404Y-153580952D01*
X59627500Y-153657142D01*
X59665595Y-153695238D01*
X59741785Y-153733333D01*
X59856071Y-153733333D01*
X59932261Y-153695238D01*
X59970357Y-153657142D01*
X60008452Y-153580952D01*
X60008452Y-153276190D01*
X60389404Y-154457142D02*
X60389404Y-154076190D01*
X59589404Y-154076190D01*
X322326904Y-46005952D02*
X321526904Y-46005952D01*
X321526904Y-46196428D01*
X321565000Y-46310714D01*
X321641190Y-46386904D01*
X321717380Y-46425000D01*
X321869761Y-46463095D01*
X321984047Y-46463095D01*
X322136428Y-46425000D01*
X322212619Y-46386904D01*
X322288809Y-46310714D01*
X322326904Y-46196428D01*
X322326904Y-46005952D01*
X322403095Y-46615476D02*
X322403095Y-47225000D01*
X321907857Y-47682142D02*
X321907857Y-47415476D01*
X322326904Y-47415476D02*
X321526904Y-47415476D01*
X321526904Y-47796428D01*
X322326904Y-48520238D02*
X322326904Y-48063095D01*
X322326904Y-48291666D02*
X321526904Y-48291666D01*
X321641190Y-48215476D01*
X321717380Y-48139285D01*
X321755476Y-48063095D01*
X321603095Y-48825000D02*
X321565000Y-48863095D01*
X321526904Y-48939285D01*
X321526904Y-49129761D01*
X321565000Y-49205952D01*
X321603095Y-49244047D01*
X321679285Y-49282142D01*
X321755476Y-49282142D01*
X321869761Y-49244047D01*
X322326904Y-48786904D01*
X322326904Y-49282142D01*
X150876904Y-46386904D02*
X150076904Y-46386904D01*
X150076904Y-46577380D01*
X150115000Y-46691666D01*
X150191190Y-46767857D01*
X150267380Y-46805952D01*
X150419761Y-46844047D01*
X150534047Y-46844047D01*
X150686428Y-46805952D01*
X150762619Y-46767857D01*
X150838809Y-46691666D01*
X150876904Y-46577380D01*
X150876904Y-46386904D01*
X150953095Y-46996428D02*
X150953095Y-47605952D01*
X150457857Y-48063095D02*
X150457857Y-47796428D01*
X150876904Y-47796428D02*
X150076904Y-47796428D01*
X150076904Y-48177380D01*
X150343571Y-48825000D02*
X150876904Y-48825000D01*
X150038809Y-48634523D02*
X150610238Y-48444047D01*
X150610238Y-48939285D01*
X260414404Y-111995238D02*
X259614404Y-111995238D01*
X259614404Y-112185714D01*
X259652500Y-112300000D01*
X259728690Y-112376190D01*
X259804880Y-112414285D01*
X259957261Y-112452380D01*
X260071547Y-112452380D01*
X260223928Y-112414285D01*
X260300119Y-112376190D01*
X260376309Y-112300000D01*
X260414404Y-112185714D01*
X260414404Y-111995238D01*
X260490595Y-112604761D02*
X260490595Y-113214285D01*
X260376309Y-113366666D02*
X260414404Y-113480952D01*
X260414404Y-113671428D01*
X260376309Y-113747619D01*
X260338214Y-113785714D01*
X260262023Y-113823809D01*
X260185833Y-113823809D01*
X260109642Y-113785714D01*
X260071547Y-113747619D01*
X260033452Y-113671428D01*
X259995357Y-113519047D01*
X259957261Y-113442857D01*
X259919166Y-113404761D01*
X259842976Y-113366666D01*
X259766785Y-113366666D01*
X259690595Y-113404761D01*
X259652500Y-113442857D01*
X259614404Y-113519047D01*
X259614404Y-113709523D01*
X259652500Y-113823809D01*
X259995357Y-114166666D02*
X259995357Y-114433333D01*
X260414404Y-114547619D02*
X260414404Y-114166666D01*
X259614404Y-114166666D01*
X259614404Y-114547619D01*
X260414404Y-114890476D02*
X259614404Y-114890476D01*
X260185833Y-115157142D01*
X259614404Y-115423809D01*
X260414404Y-115423809D01*
X260414404Y-115804761D02*
X259614404Y-115804761D01*
X260338214Y-116642857D02*
X260376309Y-116604761D01*
X260414404Y-116490476D01*
X260414404Y-116414285D01*
X260376309Y-116300000D01*
X260300119Y-116223809D01*
X260223928Y-116185714D01*
X260071547Y-116147619D01*
X259957261Y-116147619D01*
X259804880Y-116185714D01*
X259728690Y-116223809D01*
X259652500Y-116300000D01*
X259614404Y-116414285D01*
X259614404Y-116490476D01*
X259652500Y-116604761D01*
X259690595Y-116642857D01*
X112776904Y-75304761D02*
X111976904Y-75304761D01*
X111976904Y-75495238D01*
X112015000Y-75609523D01*
X112091190Y-75685714D01*
X112167380Y-75723809D01*
X112319761Y-75761904D01*
X112434047Y-75761904D01*
X112586428Y-75723809D01*
X112662619Y-75685714D01*
X112738809Y-75609523D01*
X112776904Y-75495238D01*
X112776904Y-75304761D01*
X112853095Y-75914285D02*
X112853095Y-76523809D01*
X111976904Y-76638095D02*
X111976904Y-77133333D01*
X112281666Y-76866666D01*
X112281666Y-76980952D01*
X112319761Y-77057142D01*
X112357857Y-77095238D01*
X112434047Y-77133333D01*
X112624523Y-77133333D01*
X112700714Y-77095238D01*
X112738809Y-77057142D01*
X112776904Y-76980952D01*
X112776904Y-76752380D01*
X112738809Y-76676190D01*
X112700714Y-76638095D01*
X293751904Y-92773809D02*
X292951904Y-92773809D01*
X292951904Y-92964285D01*
X292990000Y-93078571D01*
X293066190Y-93154761D01*
X293142380Y-93192857D01*
X293294761Y-93230952D01*
X293409047Y-93230952D01*
X293561428Y-93192857D01*
X293637619Y-93154761D01*
X293713809Y-93078571D01*
X293751904Y-92964285D01*
X293751904Y-92773809D01*
X293828095Y-93383333D02*
X293828095Y-93992857D01*
X292951904Y-94335714D02*
X292951904Y-94488095D01*
X292990000Y-94564285D01*
X293066190Y-94640476D01*
X293218571Y-94678571D01*
X293485238Y-94678571D01*
X293637619Y-94640476D01*
X293713809Y-94564285D01*
X293751904Y-94488095D01*
X293751904Y-94335714D01*
X293713809Y-94259523D01*
X293637619Y-94183333D01*
X293485238Y-94145238D01*
X293218571Y-94145238D01*
X293066190Y-94183333D01*
X292990000Y-94259523D01*
X292951904Y-94335714D01*
X293332857Y-95288095D02*
X293370952Y-95402380D01*
X293409047Y-95440476D01*
X293485238Y-95478571D01*
X293599523Y-95478571D01*
X293675714Y-95440476D01*
X293713809Y-95402380D01*
X293751904Y-95326190D01*
X293751904Y-95021428D01*
X292951904Y-95021428D01*
X292951904Y-95288095D01*
X292990000Y-95364285D01*
X293028095Y-95402380D01*
X293104285Y-95440476D01*
X293180476Y-95440476D01*
X293256666Y-95402380D01*
X293294761Y-95364285D01*
X293332857Y-95288095D01*
X293332857Y-95021428D01*
X293751904Y-96278571D02*
X293370952Y-96011904D01*
X293751904Y-95821428D02*
X292951904Y-95821428D01*
X292951904Y-96126190D01*
X292990000Y-96202380D01*
X293028095Y-96240476D01*
X293104285Y-96278571D01*
X293218571Y-96278571D01*
X293294761Y-96240476D01*
X293332857Y-96202380D01*
X293370952Y-96126190D01*
X293370952Y-95821428D01*
X293523333Y-96583333D02*
X293523333Y-96964285D01*
X293751904Y-96507142D02*
X292951904Y-96773809D01*
X293751904Y-97040476D01*
X293675714Y-97764285D02*
X293713809Y-97726190D01*
X293751904Y-97611904D01*
X293751904Y-97535714D01*
X293713809Y-97421428D01*
X293637619Y-97345238D01*
X293561428Y-97307142D01*
X293409047Y-97269047D01*
X293294761Y-97269047D01*
X293142380Y-97307142D01*
X293066190Y-97345238D01*
X292990000Y-97421428D01*
X292951904Y-97535714D01*
X292951904Y-97611904D01*
X292990000Y-97726190D01*
X293028095Y-97764285D01*
X184214404Y-113366666D02*
X183414404Y-113366666D01*
X183414404Y-113557142D01*
X183452500Y-113671428D01*
X183528690Y-113747619D01*
X183604880Y-113785714D01*
X183757261Y-113823809D01*
X183871547Y-113823809D01*
X184023928Y-113785714D01*
X184100119Y-113747619D01*
X184176309Y-113671428D01*
X184214404Y-113557142D01*
X184214404Y-113366666D01*
X184290595Y-113976190D02*
X184290595Y-114585714D01*
X184214404Y-114776190D02*
X183414404Y-114776190D01*
X183795357Y-114776190D02*
X183795357Y-115233333D01*
X184214404Y-115233333D02*
X183414404Y-115233333D01*
X284226904Y-73819047D02*
X283426904Y-73819047D01*
X283426904Y-74009523D01*
X283465000Y-74123809D01*
X283541190Y-74200000D01*
X283617380Y-74238095D01*
X283769761Y-74276190D01*
X283884047Y-74276190D01*
X284036428Y-74238095D01*
X284112619Y-74200000D01*
X284188809Y-74123809D01*
X284226904Y-74009523D01*
X284226904Y-73819047D01*
X284303095Y-74428571D02*
X284303095Y-75038095D01*
X283807857Y-75228571D02*
X283807857Y-75495238D01*
X284226904Y-75609523D02*
X284226904Y-75228571D01*
X283426904Y-75228571D01*
X283426904Y-75609523D01*
X284303095Y-76485714D02*
X284265000Y-76409523D01*
X284188809Y-76333333D01*
X284074523Y-76219047D01*
X284036428Y-76142857D01*
X284036428Y-76066666D01*
X284226904Y-76104761D02*
X284188809Y-76028571D01*
X284112619Y-75952380D01*
X283960238Y-75914285D01*
X283693571Y-75914285D01*
X283541190Y-75952380D01*
X283465000Y-76028571D01*
X283426904Y-76104761D01*
X283426904Y-76257142D01*
X283465000Y-76333333D01*
X283541190Y-76409523D01*
X283693571Y-76447619D01*
X283960238Y-76447619D01*
X284112619Y-76409523D01*
X284188809Y-76333333D01*
X284226904Y-76257142D01*
X284226904Y-76104761D01*
X283426904Y-76790476D02*
X284074523Y-76790476D01*
X284150714Y-76828571D01*
X284188809Y-76866666D01*
X284226904Y-76942857D01*
X284226904Y-77095238D01*
X284188809Y-77171428D01*
X284150714Y-77209523D01*
X284074523Y-77247619D01*
X283426904Y-77247619D01*
X283998333Y-77590476D02*
X283998333Y-77971428D01*
X284226904Y-77514285D02*
X283426904Y-77780952D01*
X284226904Y-78047619D01*
X284226904Y-78695238D02*
X284226904Y-78314285D01*
X283426904Y-78314285D01*
X150876904Y-75304761D02*
X150076904Y-75304761D01*
X150076904Y-75495238D01*
X150115000Y-75609523D01*
X150191190Y-75685714D01*
X150267380Y-75723809D01*
X150419761Y-75761904D01*
X150534047Y-75761904D01*
X150686428Y-75723809D01*
X150762619Y-75685714D01*
X150838809Y-75609523D01*
X150876904Y-75495238D01*
X150876904Y-75304761D01*
X150953095Y-75914285D02*
X150953095Y-76523809D01*
X150076904Y-77095238D02*
X150076904Y-76714285D01*
X150457857Y-76676190D01*
X150419761Y-76714285D01*
X150381666Y-76790476D01*
X150381666Y-76980952D01*
X150419761Y-77057142D01*
X150457857Y-77095238D01*
X150534047Y-77133333D01*
X150724523Y-77133333D01*
X150800714Y-77095238D01*
X150838809Y-77057142D01*
X150876904Y-76980952D01*
X150876904Y-76790476D01*
X150838809Y-76714285D01*
X150800714Y-76676190D01*
X103251904Y-94278571D02*
X102451904Y-94278571D01*
X102451904Y-94469047D01*
X102490000Y-94583333D01*
X102566190Y-94659523D01*
X102642380Y-94697619D01*
X102794761Y-94735714D01*
X102909047Y-94735714D01*
X103061428Y-94697619D01*
X103137619Y-94659523D01*
X103213809Y-94583333D01*
X103251904Y-94469047D01*
X103251904Y-94278571D01*
X103328095Y-94888095D02*
X103328095Y-95497619D01*
X102451904Y-95611904D02*
X103251904Y-95802380D01*
X102680476Y-95954761D01*
X103251904Y-96107142D01*
X102451904Y-96297619D01*
X250889404Y-150533333D02*
X250089404Y-150533333D01*
X250089404Y-150723809D01*
X250127500Y-150838095D01*
X250203690Y-150914285D01*
X250279880Y-150952380D01*
X250432261Y-150990476D01*
X250546547Y-150990476D01*
X250698928Y-150952380D01*
X250775119Y-150914285D01*
X250851309Y-150838095D01*
X250889404Y-150723809D01*
X250889404Y-150533333D01*
X250965595Y-151142857D02*
X250965595Y-151752380D01*
X250660833Y-151904761D02*
X250660833Y-152285714D01*
X250889404Y-151828571D02*
X250089404Y-152095238D01*
X250889404Y-152361904D01*
X250889404Y-153009523D02*
X250889404Y-152628571D01*
X250089404Y-152628571D01*
X250089404Y-153161904D02*
X250089404Y-153619047D01*
X250889404Y-153390476D02*
X250089404Y-153390476D01*
X250889404Y-154304761D02*
X250889404Y-153847619D01*
X250889404Y-154076190D02*
X250089404Y-154076190D01*
X250203690Y-154000000D01*
X250279880Y-153923809D01*
X250317976Y-153847619D01*
X79439404Y-131197619D02*
X78639404Y-131197619D01*
X78639404Y-131388095D01*
X78677500Y-131502380D01*
X78753690Y-131578571D01*
X78829880Y-131616666D01*
X78982261Y-131654761D01*
X79096547Y-131654761D01*
X79248928Y-131616666D01*
X79325119Y-131578571D01*
X79401309Y-131502380D01*
X79439404Y-131388095D01*
X79439404Y-131197619D01*
X79515595Y-131807142D02*
X79515595Y-132416666D01*
X79401309Y-132569047D02*
X79439404Y-132683333D01*
X79439404Y-132873809D01*
X79401309Y-132950000D01*
X79363214Y-132988095D01*
X79287023Y-133026190D01*
X79210833Y-133026190D01*
X79134642Y-132988095D01*
X79096547Y-132950000D01*
X79058452Y-132873809D01*
X79020357Y-132721428D01*
X78982261Y-132645238D01*
X78944166Y-132607142D01*
X78867976Y-132569047D01*
X78791785Y-132569047D01*
X78715595Y-132607142D01*
X78677500Y-132645238D01*
X78639404Y-132721428D01*
X78639404Y-132911904D01*
X78677500Y-133026190D01*
X79439404Y-133369047D02*
X78639404Y-133369047D01*
X79020357Y-133369047D02*
X79020357Y-133826190D01*
X79439404Y-133826190D02*
X78639404Y-133826190D01*
X79439404Y-134207142D02*
X78639404Y-134207142D01*
X79020357Y-134854761D02*
X79020357Y-134588095D01*
X79439404Y-134588095D02*
X78639404Y-134588095D01*
X78639404Y-134969047D01*
X78639404Y-135159523D02*
X78639404Y-135616666D01*
X79439404Y-135388095D02*
X78639404Y-135388095D01*
X250889404Y-131711904D02*
X250089404Y-131711904D01*
X250089404Y-131902380D01*
X250127500Y-132016666D01*
X250203690Y-132092857D01*
X250279880Y-132130952D01*
X250432261Y-132169047D01*
X250546547Y-132169047D01*
X250698928Y-132130952D01*
X250775119Y-132092857D01*
X250851309Y-132016666D01*
X250889404Y-131902380D01*
X250889404Y-131711904D01*
X250965595Y-132321428D02*
X250965595Y-132930952D01*
X250889404Y-133121428D02*
X250089404Y-133121428D01*
X250089404Y-133311904D01*
X250127500Y-133426190D01*
X250203690Y-133502380D01*
X250279880Y-133540476D01*
X250432261Y-133578571D01*
X250546547Y-133578571D01*
X250698928Y-133540476D01*
X250775119Y-133502380D01*
X250851309Y-133426190D01*
X250889404Y-133311904D01*
X250889404Y-133121428D01*
X250089404Y-134073809D02*
X250089404Y-134226190D01*
X250127500Y-134302380D01*
X250203690Y-134378571D01*
X250356071Y-134416666D01*
X250622738Y-134416666D01*
X250775119Y-134378571D01*
X250851309Y-134302380D01*
X250889404Y-134226190D01*
X250889404Y-134073809D01*
X250851309Y-133997619D01*
X250775119Y-133921428D01*
X250622738Y-133883333D01*
X250356071Y-133883333D01*
X250203690Y-133921428D01*
X250127500Y-133997619D01*
X250089404Y-134073809D01*
X250089404Y-134645238D02*
X250089404Y-135102380D01*
X250889404Y-134873809D02*
X250089404Y-134873809D01*
X365189404Y-112166666D02*
X364389404Y-112166666D01*
X364389404Y-112357142D01*
X364427500Y-112471428D01*
X364503690Y-112547619D01*
X364579880Y-112585714D01*
X364732261Y-112623809D01*
X364846547Y-112623809D01*
X364998928Y-112585714D01*
X365075119Y-112547619D01*
X365151309Y-112471428D01*
X365189404Y-112357142D01*
X365189404Y-112166666D01*
X365265595Y-112776190D02*
X365265595Y-113385714D01*
X365189404Y-113576190D02*
X364389404Y-113576190D01*
X364389404Y-113880952D01*
X364427500Y-113957142D01*
X364465595Y-113995238D01*
X364541785Y-114033333D01*
X364656071Y-114033333D01*
X364732261Y-113995238D01*
X364770357Y-113957142D01*
X364808452Y-113880952D01*
X364808452Y-113576190D01*
X364427500Y-114795238D02*
X364389404Y-114719047D01*
X364389404Y-114604761D01*
X364427500Y-114490476D01*
X364503690Y-114414285D01*
X364579880Y-114376190D01*
X364732261Y-114338095D01*
X364846547Y-114338095D01*
X364998928Y-114376190D01*
X365075119Y-114414285D01*
X365151309Y-114490476D01*
X365189404Y-114604761D01*
X365189404Y-114680952D01*
X365151309Y-114795238D01*
X365113214Y-114833333D01*
X364846547Y-114833333D01*
X364846547Y-114680952D01*
X365189404Y-115176190D02*
X364389404Y-115176190D01*
X364389404Y-115366666D01*
X364427500Y-115480952D01*
X364503690Y-115557142D01*
X364579880Y-115595238D01*
X364732261Y-115633333D01*
X364846547Y-115633333D01*
X364998928Y-115595238D01*
X365075119Y-115557142D01*
X365151309Y-115480952D01*
X365189404Y-115366666D01*
X365189404Y-115176190D01*
X365189404Y-115976190D02*
X364389404Y-115976190D01*
X365189404Y-116433333D01*
X364389404Y-116433333D01*
X279464404Y-111861904D02*
X278664404Y-111861904D01*
X278664404Y-112052380D01*
X278702500Y-112166666D01*
X278778690Y-112242857D01*
X278854880Y-112280952D01*
X279007261Y-112319047D01*
X279121547Y-112319047D01*
X279273928Y-112280952D01*
X279350119Y-112242857D01*
X279426309Y-112166666D01*
X279464404Y-112052380D01*
X279464404Y-111861904D01*
X279540595Y-112471428D02*
X279540595Y-113080952D01*
X279540595Y-113804761D02*
X279502500Y-113728571D01*
X279426309Y-113652380D01*
X279312023Y-113538095D01*
X279273928Y-113461904D01*
X279273928Y-113385714D01*
X279464404Y-113423809D02*
X279426309Y-113347619D01*
X279350119Y-113271428D01*
X279197738Y-113233333D01*
X278931071Y-113233333D01*
X278778690Y-113271428D01*
X278702500Y-113347619D01*
X278664404Y-113423809D01*
X278664404Y-113576190D01*
X278702500Y-113652380D01*
X278778690Y-113728571D01*
X278931071Y-113766666D01*
X279197738Y-113766666D01*
X279350119Y-113728571D01*
X279426309Y-113652380D01*
X279464404Y-113576190D01*
X279464404Y-113423809D01*
X278664404Y-114109523D02*
X279312023Y-114109523D01*
X279388214Y-114147619D01*
X279426309Y-114185714D01*
X279464404Y-114261904D01*
X279464404Y-114414285D01*
X279426309Y-114490476D01*
X279388214Y-114528571D01*
X279312023Y-114566666D01*
X278664404Y-114566666D01*
X278664404Y-115100000D02*
X278664404Y-115252380D01*
X278702500Y-115328571D01*
X278778690Y-115404761D01*
X278931071Y-115442857D01*
X279197738Y-115442857D01*
X279350119Y-115404761D01*
X279426309Y-115328571D01*
X279464404Y-115252380D01*
X279464404Y-115100000D01*
X279426309Y-115023809D01*
X279350119Y-114947619D01*
X279197738Y-114909523D01*
X278931071Y-114909523D01*
X278778690Y-114947619D01*
X278702500Y-115023809D01*
X278664404Y-115100000D01*
X278664404Y-115671428D02*
X278664404Y-116128571D01*
X279464404Y-115900000D02*
X278664404Y-115900000D01*
X279045357Y-116395238D02*
X279045357Y-116661904D01*
X279464404Y-116776190D02*
X279464404Y-116395238D01*
X278664404Y-116395238D01*
X278664404Y-116776190D01*
X131826904Y-46386904D02*
X131026904Y-46386904D01*
X131026904Y-46577380D01*
X131065000Y-46691666D01*
X131141190Y-46767857D01*
X131217380Y-46805952D01*
X131369761Y-46844047D01*
X131484047Y-46844047D01*
X131636428Y-46805952D01*
X131712619Y-46767857D01*
X131788809Y-46691666D01*
X131826904Y-46577380D01*
X131826904Y-46386904D01*
X131903095Y-46996428D02*
X131903095Y-47605952D01*
X131407857Y-48063095D02*
X131407857Y-47796428D01*
X131826904Y-47796428D02*
X131026904Y-47796428D01*
X131026904Y-48177380D01*
X131026904Y-48405952D02*
X131026904Y-48901190D01*
X131331666Y-48634523D01*
X131331666Y-48748809D01*
X131369761Y-48825000D01*
X131407857Y-48863095D01*
X131484047Y-48901190D01*
X131674523Y-48901190D01*
X131750714Y-48863095D01*
X131788809Y-48825000D01*
X131826904Y-48748809D01*
X131826904Y-48520238D01*
X131788809Y-48444047D01*
X131750714Y-48405952D01*
X84201904Y-150819047D02*
X83401904Y-150819047D01*
X83401904Y-151009523D01*
X83440000Y-151123809D01*
X83516190Y-151200000D01*
X83592380Y-151238095D01*
X83744761Y-151276190D01*
X83859047Y-151276190D01*
X84011428Y-151238095D01*
X84087619Y-151200000D01*
X84163809Y-151123809D01*
X84201904Y-151009523D01*
X84201904Y-150819047D01*
X84278095Y-151428571D02*
X84278095Y-152038095D01*
X83401904Y-152152380D02*
X84201904Y-152342857D01*
X83630476Y-152495238D01*
X84201904Y-152647619D01*
X83401904Y-152838095D01*
X84201904Y-153142857D02*
X83401904Y-153142857D01*
X84201904Y-153523809D02*
X83401904Y-153523809D01*
X84201904Y-153980952D01*
X83401904Y-153980952D01*
X84201904Y-94316666D02*
X83401904Y-94316666D01*
X83401904Y-94507142D01*
X83440000Y-94621428D01*
X83516190Y-94697619D01*
X83592380Y-94735714D01*
X83744761Y-94773809D01*
X83859047Y-94773809D01*
X84011428Y-94735714D01*
X84087619Y-94697619D01*
X84163809Y-94621428D01*
X84201904Y-94507142D01*
X84201904Y-94316666D01*
X84278095Y-94926190D02*
X84278095Y-95535714D01*
X84278095Y-96259523D02*
X84240000Y-96183333D01*
X84163809Y-96107142D01*
X84049523Y-95992857D01*
X84011428Y-95916666D01*
X84011428Y-95840476D01*
X84201904Y-95878571D02*
X84163809Y-95802380D01*
X84087619Y-95726190D01*
X83935238Y-95688095D01*
X83668571Y-95688095D01*
X83516190Y-95726190D01*
X83440000Y-95802380D01*
X83401904Y-95878571D01*
X83401904Y-96030952D01*
X83440000Y-96107142D01*
X83516190Y-96183333D01*
X83668571Y-96221428D01*
X83935238Y-96221428D01*
X84087619Y-96183333D01*
X84163809Y-96107142D01*
X84201904Y-96030952D01*
X84201904Y-95878571D01*
X117539404Y-132454761D02*
X116739404Y-132454761D01*
X116739404Y-132645238D01*
X116777500Y-132759523D01*
X116853690Y-132835714D01*
X116929880Y-132873809D01*
X117082261Y-132911904D01*
X117196547Y-132911904D01*
X117348928Y-132873809D01*
X117425119Y-132835714D01*
X117501309Y-132759523D01*
X117539404Y-132645238D01*
X117539404Y-132454761D01*
X117615595Y-133064285D02*
X117615595Y-133673809D01*
X116739404Y-133788095D02*
X117539404Y-134321428D01*
X116739404Y-134321428D02*
X117539404Y-133788095D01*
X55626904Y-75533333D02*
X54826904Y-75533333D01*
X54826904Y-75723809D01*
X54865000Y-75838095D01*
X54941190Y-75914285D01*
X55017380Y-75952380D01*
X55169761Y-75990476D01*
X55284047Y-75990476D01*
X55436428Y-75952380D01*
X55512619Y-75914285D01*
X55588809Y-75838095D01*
X55626904Y-75723809D01*
X55626904Y-75533333D01*
X55703095Y-76142857D02*
X55703095Y-76752380D01*
X54788809Y-76828571D02*
X54903095Y-76942857D01*
X274701904Y-150438095D02*
X273901904Y-150438095D01*
X273901904Y-150628571D01*
X273940000Y-150742857D01*
X274016190Y-150819047D01*
X274092380Y-150857142D01*
X274244761Y-150895238D01*
X274359047Y-150895238D01*
X274511428Y-150857142D01*
X274587619Y-150819047D01*
X274663809Y-150742857D01*
X274701904Y-150628571D01*
X274701904Y-150438095D01*
X274778095Y-151047619D02*
X274778095Y-151657142D01*
X273901904Y-151771428D02*
X274701904Y-151961904D01*
X274130476Y-152114285D01*
X274701904Y-152266666D01*
X273901904Y-152457142D01*
X274701904Y-152761904D02*
X273901904Y-152761904D01*
X274701904Y-153142857D02*
X273901904Y-153142857D01*
X274701904Y-153600000D01*
X273901904Y-153600000D01*
X274701904Y-154400000D02*
X274701904Y-153942857D01*
X274701904Y-154171428D02*
X273901904Y-154171428D01*
X274016190Y-154095238D01*
X274092380Y-154019047D01*
X274130476Y-153942857D01*
X203264404Y-113480952D02*
X202464404Y-113480952D01*
X202464404Y-113671428D01*
X202502500Y-113785714D01*
X202578690Y-113861904D01*
X202654880Y-113900000D01*
X202807261Y-113938095D01*
X202921547Y-113938095D01*
X203073928Y-113900000D01*
X203150119Y-113861904D01*
X203226309Y-113785714D01*
X203264404Y-113671428D01*
X203264404Y-113480952D01*
X203340595Y-114090476D02*
X203340595Y-114700000D01*
X202464404Y-115119047D02*
X203035833Y-115119047D01*
X203150119Y-115080952D01*
X203226309Y-115004761D01*
X203264404Y-114890476D01*
X203264404Y-114814285D01*
X246126904Y-75304761D02*
X245326904Y-75304761D01*
X245326904Y-75495238D01*
X245365000Y-75609523D01*
X245441190Y-75685714D01*
X245517380Y-75723809D01*
X245669761Y-75761904D01*
X245784047Y-75761904D01*
X245936428Y-75723809D01*
X246012619Y-75685714D01*
X246088809Y-75609523D01*
X246126904Y-75495238D01*
X246126904Y-75304761D01*
X246203095Y-75914285D02*
X246203095Y-76523809D01*
X245326904Y-76866666D02*
X245326904Y-76942857D01*
X245365000Y-77019047D01*
X245403095Y-77057142D01*
X245479285Y-77095238D01*
X245631666Y-77133333D01*
X245822142Y-77133333D01*
X245974523Y-77095238D01*
X246050714Y-77057142D01*
X246088809Y-77019047D01*
X246126904Y-76942857D01*
X246126904Y-76866666D01*
X246088809Y-76790476D01*
X246050714Y-76752380D01*
X245974523Y-76714285D01*
X245822142Y-76676190D01*
X245631666Y-76676190D01*
X245479285Y-76714285D01*
X245403095Y-76752380D01*
X245365000Y-76790476D01*
X245326904Y-76866666D01*
X346139404Y-132016666D02*
X345339404Y-132016666D01*
X345339404Y-132207142D01*
X345377500Y-132321428D01*
X345453690Y-132397619D01*
X345529880Y-132435714D01*
X345682261Y-132473809D01*
X345796547Y-132473809D01*
X345948928Y-132435714D01*
X346025119Y-132397619D01*
X346101309Y-132321428D01*
X346139404Y-132207142D01*
X346139404Y-132016666D01*
X346215595Y-132626190D02*
X346215595Y-133235714D01*
X345339404Y-133426190D02*
X345987023Y-133426190D01*
X346063214Y-133464285D01*
X346101309Y-133502380D01*
X346139404Y-133578571D01*
X346139404Y-133730952D01*
X346101309Y-133807142D01*
X346063214Y-133845238D01*
X345987023Y-133883333D01*
X345339404Y-133883333D01*
X346139404Y-134264285D02*
X345339404Y-134264285D01*
X345339404Y-134569047D01*
X345377500Y-134645238D01*
X345415595Y-134683333D01*
X345491785Y-134721428D01*
X345606071Y-134721428D01*
X345682261Y-134683333D01*
X345720357Y-134645238D01*
X345758452Y-134569047D01*
X345758452Y-134264285D01*
X65151904Y-93688095D02*
X64351904Y-93688095D01*
X64351904Y-93878571D01*
X64390000Y-93992857D01*
X64466190Y-94069047D01*
X64542380Y-94107142D01*
X64694761Y-94145238D01*
X64809047Y-94145238D01*
X64961428Y-94107142D01*
X65037619Y-94069047D01*
X65113809Y-93992857D01*
X65151904Y-93878571D01*
X65151904Y-93688095D01*
X65228095Y-94297619D02*
X65228095Y-94907142D01*
X64351904Y-94983333D02*
X64351904Y-95440476D01*
X65151904Y-95211904D02*
X64351904Y-95211904D01*
X64923333Y-95669047D02*
X64923333Y-96050000D01*
X65151904Y-95592857D02*
X64351904Y-95859523D01*
X65151904Y-96126190D01*
X64732857Y-96659523D02*
X64770952Y-96773809D01*
X64809047Y-96811904D01*
X64885238Y-96850000D01*
X64999523Y-96850000D01*
X65075714Y-96811904D01*
X65113809Y-96773809D01*
X65151904Y-96697619D01*
X65151904Y-96392857D01*
X64351904Y-96392857D01*
X64351904Y-96659523D01*
X64390000Y-96735714D01*
X64428095Y-96773809D01*
X64504285Y-96811904D01*
X64580476Y-96811904D01*
X64656666Y-96773809D01*
X64694761Y-96735714D01*
X64732857Y-96659523D01*
X64732857Y-96392857D01*
X136589404Y-132435714D02*
X135789404Y-132435714D01*
X135789404Y-132626190D01*
X135827500Y-132740476D01*
X135903690Y-132816666D01*
X135979880Y-132854761D01*
X136132261Y-132892857D01*
X136246547Y-132892857D01*
X136398928Y-132854761D01*
X136475119Y-132816666D01*
X136551309Y-132740476D01*
X136589404Y-132626190D01*
X136589404Y-132435714D01*
X136665595Y-133045238D02*
X136665595Y-133654761D01*
X136513214Y-134302380D02*
X136551309Y-134264285D01*
X136589404Y-134150000D01*
X136589404Y-134073809D01*
X136551309Y-133959523D01*
X136475119Y-133883333D01*
X136398928Y-133845238D01*
X136246547Y-133807142D01*
X136132261Y-133807142D01*
X135979880Y-133845238D01*
X135903690Y-133883333D01*
X135827500Y-133959523D01*
X135789404Y-134073809D01*
X135789404Y-134150000D01*
X135827500Y-134264285D01*
X135865595Y-134302380D01*
X284226904Y-46005952D02*
X283426904Y-46005952D01*
X283426904Y-46196428D01*
X283465000Y-46310714D01*
X283541190Y-46386904D01*
X283617380Y-46425000D01*
X283769761Y-46463095D01*
X283884047Y-46463095D01*
X284036428Y-46425000D01*
X284112619Y-46386904D01*
X284188809Y-46310714D01*
X284226904Y-46196428D01*
X284226904Y-46005952D01*
X284303095Y-46615476D02*
X284303095Y-47225000D01*
X283807857Y-47682142D02*
X283807857Y-47415476D01*
X284226904Y-47415476D02*
X283426904Y-47415476D01*
X283426904Y-47796428D01*
X284226904Y-48520238D02*
X284226904Y-48063095D01*
X284226904Y-48291666D02*
X283426904Y-48291666D01*
X283541190Y-48215476D01*
X283617380Y-48139285D01*
X283655476Y-48063095D01*
X283426904Y-49015476D02*
X283426904Y-49091666D01*
X283465000Y-49167857D01*
X283503095Y-49205952D01*
X283579285Y-49244047D01*
X283731666Y-49282142D01*
X283922142Y-49282142D01*
X284074523Y-49244047D01*
X284150714Y-49205952D01*
X284188809Y-49167857D01*
X284226904Y-49091666D01*
X284226904Y-49015476D01*
X284188809Y-48939285D01*
X284150714Y-48901190D01*
X284074523Y-48863095D01*
X283922142Y-48825000D01*
X283731666Y-48825000D01*
X283579285Y-48863095D01*
X283503095Y-48901190D01*
X283465000Y-48939285D01*
X283426904Y-49015476D01*
X298514404Y-150076190D02*
X297714404Y-150076190D01*
X297714404Y-150266666D01*
X297752500Y-150380952D01*
X297828690Y-150457142D01*
X297904880Y-150495238D01*
X298057261Y-150533333D01*
X298171547Y-150533333D01*
X298323928Y-150495238D01*
X298400119Y-150457142D01*
X298476309Y-150380952D01*
X298514404Y-150266666D01*
X298514404Y-150076190D01*
X298590595Y-150685714D02*
X298590595Y-151295238D01*
X298438214Y-151942857D02*
X298476309Y-151904761D01*
X298514404Y-151790476D01*
X298514404Y-151714285D01*
X298476309Y-151600000D01*
X298400119Y-151523809D01*
X298323928Y-151485714D01*
X298171547Y-151447619D01*
X298057261Y-151447619D01*
X297904880Y-151485714D01*
X297828690Y-151523809D01*
X297752500Y-151600000D01*
X297714404Y-151714285D01*
X297714404Y-151790476D01*
X297752500Y-151904761D01*
X297790595Y-151942857D01*
X297714404Y-152171428D02*
X297714404Y-152628571D01*
X298514404Y-152400000D02*
X297714404Y-152400000D01*
X298514404Y-153352380D02*
X298133452Y-153085714D01*
X298514404Y-152895238D02*
X297714404Y-152895238D01*
X297714404Y-153200000D01*
X297752500Y-153276190D01*
X297790595Y-153314285D01*
X297866785Y-153352380D01*
X297981071Y-153352380D01*
X298057261Y-153314285D01*
X298095357Y-153276190D01*
X298133452Y-153200000D01*
X298133452Y-152895238D01*
X298514404Y-154076190D02*
X298514404Y-153695238D01*
X297714404Y-153695238D01*
X298514404Y-154761904D02*
X298514404Y-154304761D01*
X298514404Y-154533333D02*
X297714404Y-154533333D01*
X297828690Y-154457142D01*
X297904880Y-154380952D01*
X297942976Y-154304761D01*
X212789404Y-132378571D02*
X211989404Y-132378571D01*
X211989404Y-132569047D01*
X212027500Y-132683333D01*
X212103690Y-132759523D01*
X212179880Y-132797619D01*
X212332261Y-132835714D01*
X212446547Y-132835714D01*
X212598928Y-132797619D01*
X212675119Y-132759523D01*
X212751309Y-132683333D01*
X212789404Y-132569047D01*
X212789404Y-132378571D01*
X212865595Y-132988095D02*
X212865595Y-133597619D01*
X212789404Y-133788095D02*
X211989404Y-133788095D01*
X212560833Y-134054761D01*
X211989404Y-134321428D01*
X212789404Y-134321428D01*
X327089404Y-150552380D02*
X326289404Y-150552380D01*
X326289404Y-150742857D01*
X326327500Y-150857142D01*
X326403690Y-150933333D01*
X326479880Y-150971428D01*
X326632261Y-151009523D01*
X326746547Y-151009523D01*
X326898928Y-150971428D01*
X326975119Y-150933333D01*
X327051309Y-150857142D01*
X327089404Y-150742857D01*
X327089404Y-150552380D01*
X327165595Y-151161904D02*
X327165595Y-151771428D01*
X327089404Y-152342857D02*
X327089404Y-151961904D01*
X326289404Y-151961904D01*
X326670357Y-152609523D02*
X326670357Y-152876190D01*
X327089404Y-152990476D02*
X327089404Y-152609523D01*
X326289404Y-152609523D01*
X326289404Y-152990476D01*
X326670357Y-153600000D02*
X326670357Y-153333333D01*
X327089404Y-153333333D02*
X326289404Y-153333333D01*
X326289404Y-153714285D01*
X326289404Y-153904761D02*
X326289404Y-154361904D01*
X327089404Y-154133333D02*
X326289404Y-154133333D01*
X188976904Y-75304761D02*
X188176904Y-75304761D01*
X188176904Y-75495238D01*
X188215000Y-75609523D01*
X188291190Y-75685714D01*
X188367380Y-75723809D01*
X188519761Y-75761904D01*
X188634047Y-75761904D01*
X188786428Y-75723809D01*
X188862619Y-75685714D01*
X188938809Y-75609523D01*
X188976904Y-75495238D01*
X188976904Y-75304761D01*
X189053095Y-75914285D02*
X189053095Y-76523809D01*
X188176904Y-76638095D02*
X188176904Y-77171428D01*
X188976904Y-76828571D01*
X227076904Y-75304761D02*
X226276904Y-75304761D01*
X226276904Y-75495238D01*
X226315000Y-75609523D01*
X226391190Y-75685714D01*
X226467380Y-75723809D01*
X226619761Y-75761904D01*
X226734047Y-75761904D01*
X226886428Y-75723809D01*
X226962619Y-75685714D01*
X227038809Y-75609523D01*
X227076904Y-75495238D01*
X227076904Y-75304761D01*
X227153095Y-75914285D02*
X227153095Y-76523809D01*
X227076904Y-76752380D02*
X227076904Y-76904761D01*
X227038809Y-76980952D01*
X227000714Y-77019047D01*
X226886428Y-77095238D01*
X226734047Y-77133333D01*
X226429285Y-77133333D01*
X226353095Y-77095238D01*
X226315000Y-77057142D01*
X226276904Y-76980952D01*
X226276904Y-76828571D01*
X226315000Y-76752380D01*
X226353095Y-76714285D01*
X226429285Y-76676190D01*
X226619761Y-76676190D01*
X226695952Y-76714285D01*
X226734047Y-76752380D01*
X226772142Y-76828571D01*
X226772142Y-76980952D01*
X226734047Y-77057142D01*
X226695952Y-77095238D01*
X226619761Y-77133333D01*
X217551904Y-94545238D02*
X216751904Y-94545238D01*
X216751904Y-94735714D01*
X216790000Y-94850000D01*
X216866190Y-94926190D01*
X216942380Y-94964285D01*
X217094761Y-95002380D01*
X217209047Y-95002380D01*
X217361428Y-94964285D01*
X217437619Y-94926190D01*
X217513809Y-94850000D01*
X217551904Y-94735714D01*
X217551904Y-94545238D01*
X217628095Y-95154761D02*
X217628095Y-95764285D01*
X217551904Y-95954761D02*
X216751904Y-95954761D01*
X165164404Y-113385714D02*
X164364404Y-113385714D01*
X164364404Y-113576190D01*
X164402500Y-113690476D01*
X164478690Y-113766666D01*
X164554880Y-113804761D01*
X164707261Y-113842857D01*
X164821547Y-113842857D01*
X164973928Y-113804761D01*
X165050119Y-113766666D01*
X165126309Y-113690476D01*
X165164404Y-113576190D01*
X165164404Y-113385714D01*
X165240595Y-113995238D02*
X165240595Y-114604761D01*
X164402500Y-115214285D02*
X164364404Y-115138095D01*
X164364404Y-115023809D01*
X164402500Y-114909523D01*
X164478690Y-114833333D01*
X164554880Y-114795238D01*
X164707261Y-114757142D01*
X164821547Y-114757142D01*
X164973928Y-114795238D01*
X165050119Y-114833333D01*
X165126309Y-114909523D01*
X165164404Y-115023809D01*
X165164404Y-115100000D01*
X165126309Y-115214285D01*
X165088214Y-115252380D01*
X164821547Y-115252380D01*
X164821547Y-115100000D01*
X198501904Y-46386904D02*
X197701904Y-46386904D01*
X197701904Y-46577380D01*
X197740000Y-46691666D01*
X197816190Y-46767857D01*
X197892380Y-46805952D01*
X198044761Y-46844047D01*
X198159047Y-46844047D01*
X198311428Y-46805952D01*
X198387619Y-46767857D01*
X198463809Y-46691666D01*
X198501904Y-46577380D01*
X198501904Y-46386904D01*
X198578095Y-46996428D02*
X198578095Y-47605952D01*
X198082857Y-48063095D02*
X198082857Y-47796428D01*
X198501904Y-47796428D02*
X197701904Y-47796428D01*
X197701904Y-48177380D01*
X197701904Y-48825000D02*
X197701904Y-48672619D01*
X197740000Y-48596428D01*
X197778095Y-48558333D01*
X197892380Y-48482142D01*
X198044761Y-48444047D01*
X198349523Y-48444047D01*
X198425714Y-48482142D01*
X198463809Y-48520238D01*
X198501904Y-48596428D01*
X198501904Y-48748809D01*
X198463809Y-48825000D01*
X198425714Y-48863095D01*
X198349523Y-48901190D01*
X198159047Y-48901190D01*
X198082857Y-48863095D01*
X198044761Y-48825000D01*
X198006666Y-48748809D01*
X198006666Y-48596428D01*
X198044761Y-48520238D01*
X198082857Y-48482142D01*
X198159047Y-48444047D01*
X55626904Y-45967857D02*
X54826904Y-45967857D01*
X54826904Y-46158333D01*
X54865000Y-46272619D01*
X54941190Y-46348809D01*
X55017380Y-46386904D01*
X55169761Y-46425000D01*
X55284047Y-46425000D01*
X55436428Y-46386904D01*
X55512619Y-46348809D01*
X55588809Y-46272619D01*
X55626904Y-46158333D01*
X55626904Y-45967857D01*
X55703095Y-46577380D02*
X55703095Y-47186904D01*
X55207857Y-47377380D02*
X55207857Y-47644047D01*
X55626904Y-47758333D02*
X55626904Y-47377380D01*
X54826904Y-47377380D01*
X54826904Y-47758333D01*
X55588809Y-48063095D02*
X55626904Y-48177380D01*
X55626904Y-48367857D01*
X55588809Y-48444047D01*
X55550714Y-48482142D01*
X55474523Y-48520238D01*
X55398333Y-48520238D01*
X55322142Y-48482142D01*
X55284047Y-48444047D01*
X55245952Y-48367857D01*
X55207857Y-48215476D01*
X55169761Y-48139285D01*
X55131666Y-48101190D01*
X55055476Y-48063095D01*
X54979285Y-48063095D01*
X54903095Y-48101190D01*
X54865000Y-48139285D01*
X54826904Y-48215476D01*
X54826904Y-48405952D01*
X54865000Y-48520238D01*
X55550714Y-49320238D02*
X55588809Y-49282142D01*
X55626904Y-49167857D01*
X55626904Y-49091666D01*
X55588809Y-48977380D01*
X55512619Y-48901190D01*
X55436428Y-48863095D01*
X55284047Y-48825000D01*
X55169761Y-48825000D01*
X55017380Y-48863095D01*
X54941190Y-48901190D01*
X54865000Y-48977380D01*
X54826904Y-49091666D01*
X54826904Y-49167857D01*
X54865000Y-49282142D01*
X54903095Y-49320238D01*
X112776904Y-46386904D02*
X111976904Y-46386904D01*
X111976904Y-46577380D01*
X112015000Y-46691666D01*
X112091190Y-46767857D01*
X112167380Y-46805952D01*
X112319761Y-46844047D01*
X112434047Y-46844047D01*
X112586428Y-46805952D01*
X112662619Y-46767857D01*
X112738809Y-46691666D01*
X112776904Y-46577380D01*
X112776904Y-46386904D01*
X112853095Y-46996428D02*
X112853095Y-47605952D01*
X112357857Y-48063095D02*
X112357857Y-47796428D01*
X112776904Y-47796428D02*
X111976904Y-47796428D01*
X111976904Y-48177380D01*
X112053095Y-48444047D02*
X112015000Y-48482142D01*
X111976904Y-48558333D01*
X111976904Y-48748809D01*
X112015000Y-48825000D01*
X112053095Y-48863095D01*
X112129285Y-48901190D01*
X112205476Y-48901190D01*
X112319761Y-48863095D01*
X112776904Y-48405952D01*
X112776904Y-48901190D01*
X255651904Y-94335714D02*
X254851904Y-94335714D01*
X254851904Y-94526190D01*
X254890000Y-94640476D01*
X254966190Y-94716666D01*
X255042380Y-94754761D01*
X255194761Y-94792857D01*
X255309047Y-94792857D01*
X255461428Y-94754761D01*
X255537619Y-94716666D01*
X255613809Y-94640476D01*
X255651904Y-94526190D01*
X255651904Y-94335714D01*
X255728095Y-94945238D02*
X255728095Y-95554761D01*
X255651904Y-95745238D02*
X254851904Y-95745238D01*
X254851904Y-96050000D01*
X254890000Y-96126190D01*
X254928095Y-96164285D01*
X255004285Y-96202380D01*
X255118571Y-96202380D01*
X255194761Y-96164285D01*
X255232857Y-96126190D01*
X255270952Y-96050000D01*
X255270952Y-95745238D01*
X169926904Y-75304761D02*
X169126904Y-75304761D01*
X169126904Y-75495238D01*
X169165000Y-75609523D01*
X169241190Y-75685714D01*
X169317380Y-75723809D01*
X169469761Y-75761904D01*
X169584047Y-75761904D01*
X169736428Y-75723809D01*
X169812619Y-75685714D01*
X169888809Y-75609523D01*
X169926904Y-75495238D01*
X169926904Y-75304761D01*
X170003095Y-75914285D02*
X170003095Y-76523809D01*
X169126904Y-77057142D02*
X169126904Y-76904761D01*
X169165000Y-76828571D01*
X169203095Y-76790476D01*
X169317380Y-76714285D01*
X169469761Y-76676190D01*
X169774523Y-76676190D01*
X169850714Y-76714285D01*
X169888809Y-76752380D01*
X169926904Y-76828571D01*
X169926904Y-76980952D01*
X169888809Y-77057142D01*
X169850714Y-77095238D01*
X169774523Y-77133333D01*
X169584047Y-77133333D01*
X169507857Y-77095238D01*
X169469761Y-77057142D01*
X169431666Y-76980952D01*
X169431666Y-76828571D01*
X169469761Y-76752380D01*
X169507857Y-76714285D01*
X169584047Y-76676190D01*
X236601904Y-46386904D02*
X235801904Y-46386904D01*
X235801904Y-46577380D01*
X235840000Y-46691666D01*
X235916190Y-46767857D01*
X235992380Y-46805952D01*
X236144761Y-46844047D01*
X236259047Y-46844047D01*
X236411428Y-46805952D01*
X236487619Y-46767857D01*
X236563809Y-46691666D01*
X236601904Y-46577380D01*
X236601904Y-46386904D01*
X236678095Y-46996428D02*
X236678095Y-47605952D01*
X236182857Y-48063095D02*
X236182857Y-47796428D01*
X236601904Y-47796428D02*
X235801904Y-47796428D01*
X235801904Y-48177380D01*
X236144761Y-48596428D02*
X236106666Y-48520238D01*
X236068571Y-48482142D01*
X235992380Y-48444047D01*
X235954285Y-48444047D01*
X235878095Y-48482142D01*
X235840000Y-48520238D01*
X235801904Y-48596428D01*
X235801904Y-48748809D01*
X235840000Y-48825000D01*
X235878095Y-48863095D01*
X235954285Y-48901190D01*
X235992380Y-48901190D01*
X236068571Y-48863095D01*
X236106666Y-48825000D01*
X236144761Y-48748809D01*
X236144761Y-48596428D01*
X236182857Y-48520238D01*
X236220952Y-48482142D01*
X236297142Y-48444047D01*
X236449523Y-48444047D01*
X236525714Y-48482142D01*
X236563809Y-48520238D01*
X236601904Y-48596428D01*
X236601904Y-48748809D01*
X236563809Y-48825000D01*
X236525714Y-48863095D01*
X236449523Y-48901190D01*
X236297142Y-48901190D01*
X236220952Y-48863095D01*
X236182857Y-48825000D01*
X236144761Y-48748809D01*
X88964404Y-113442857D02*
X88164404Y-113442857D01*
X88164404Y-113633333D01*
X88202500Y-113747619D01*
X88278690Y-113823809D01*
X88354880Y-113861904D01*
X88507261Y-113900000D01*
X88621547Y-113900000D01*
X88773928Y-113861904D01*
X88850119Y-113823809D01*
X88926309Y-113747619D01*
X88964404Y-113633333D01*
X88964404Y-113442857D01*
X89040595Y-114052380D02*
X89040595Y-114661904D01*
X88735833Y-114814285D02*
X88735833Y-115195238D01*
X88964404Y-114738095D02*
X88164404Y-115004761D01*
X88964404Y-115271428D01*
X236601904Y-94316666D02*
X235801904Y-94316666D01*
X235801904Y-94507142D01*
X235840000Y-94621428D01*
X235916190Y-94697619D01*
X235992380Y-94735714D01*
X236144761Y-94773809D01*
X236259047Y-94773809D01*
X236411428Y-94735714D01*
X236487619Y-94697619D01*
X236563809Y-94621428D01*
X236601904Y-94507142D01*
X236601904Y-94316666D01*
X236678095Y-94926190D02*
X236678095Y-95535714D01*
X235801904Y-95878571D02*
X235801904Y-96030952D01*
X235840000Y-96107142D01*
X235916190Y-96183333D01*
X236068571Y-96221428D01*
X236335238Y-96221428D01*
X236487619Y-96183333D01*
X236563809Y-96107142D01*
X236601904Y-96030952D01*
X236601904Y-95878571D01*
X236563809Y-95802380D01*
X236487619Y-95726190D01*
X236335238Y-95688095D01*
X236068571Y-95688095D01*
X235916190Y-95726190D01*
X235840000Y-95802380D01*
X235801904Y-95878571D01*
X365189404Y-44405952D02*
X364389404Y-44405952D01*
X364389404Y-44596428D01*
X364427500Y-44710714D01*
X364503690Y-44786904D01*
X364579880Y-44825000D01*
X364732261Y-44863095D01*
X364846547Y-44863095D01*
X364998928Y-44825000D01*
X365075119Y-44786904D01*
X365151309Y-44710714D01*
X365189404Y-44596428D01*
X365189404Y-44405952D01*
X365265595Y-45015476D02*
X365265595Y-45625000D01*
X364389404Y-45701190D02*
X365189404Y-45967857D01*
X364389404Y-46234523D01*
X364389404Y-46653571D02*
X364389404Y-46805952D01*
X364427500Y-46882142D01*
X364503690Y-46958333D01*
X364656071Y-46996428D01*
X364922738Y-46996428D01*
X365075119Y-46958333D01*
X365151309Y-46882142D01*
X365189404Y-46805952D01*
X365189404Y-46653571D01*
X365151309Y-46577380D01*
X365075119Y-46501190D01*
X364922738Y-46463095D01*
X364656071Y-46463095D01*
X364503690Y-46501190D01*
X364427500Y-46577380D01*
X364389404Y-46653571D01*
X365189404Y-47720238D02*
X365189404Y-47339285D01*
X364389404Y-47339285D01*
X364389404Y-47986904D02*
X365037023Y-47986904D01*
X365113214Y-48025000D01*
X365151309Y-48063095D01*
X365189404Y-48139285D01*
X365189404Y-48291666D01*
X365151309Y-48367857D01*
X365113214Y-48405952D01*
X365037023Y-48444047D01*
X364389404Y-48444047D01*
X365189404Y-48825000D02*
X364389404Y-48825000D01*
X364960833Y-49091666D01*
X364389404Y-49358333D01*
X365189404Y-49358333D01*
X364770357Y-49739285D02*
X364770357Y-50005952D01*
X365189404Y-50120238D02*
X365189404Y-49739285D01*
X364389404Y-49739285D01*
X364389404Y-50120238D01*
X365189404Y-50882142D02*
X365189404Y-50425000D01*
X365189404Y-50653571D02*
X364389404Y-50653571D01*
X364503690Y-50577380D01*
X364579880Y-50501190D01*
X364617976Y-50425000D01*
X179451904Y-46386904D02*
X178651904Y-46386904D01*
X178651904Y-46577380D01*
X178690000Y-46691666D01*
X178766190Y-46767857D01*
X178842380Y-46805952D01*
X178994761Y-46844047D01*
X179109047Y-46844047D01*
X179261428Y-46805952D01*
X179337619Y-46767857D01*
X179413809Y-46691666D01*
X179451904Y-46577380D01*
X179451904Y-46386904D01*
X179528095Y-46996428D02*
X179528095Y-47605952D01*
X179032857Y-48063095D02*
X179032857Y-47796428D01*
X179451904Y-47796428D02*
X178651904Y-47796428D01*
X178651904Y-48177380D01*
X178651904Y-48863095D02*
X178651904Y-48482142D01*
X179032857Y-48444047D01*
X178994761Y-48482142D01*
X178956666Y-48558333D01*
X178956666Y-48748809D01*
X178994761Y-48825000D01*
X179032857Y-48863095D01*
X179109047Y-48901190D01*
X179299523Y-48901190D01*
X179375714Y-48863095D01*
X179413809Y-48825000D01*
X179451904Y-48748809D01*
X179451904Y-48558333D01*
X179413809Y-48482142D01*
X179375714Y-48444047D01*
X265176904Y-46386904D02*
X264376904Y-46386904D01*
X264376904Y-46577380D01*
X264415000Y-46691666D01*
X264491190Y-46767857D01*
X264567380Y-46805952D01*
X264719761Y-46844047D01*
X264834047Y-46844047D01*
X264986428Y-46805952D01*
X265062619Y-46767857D01*
X265138809Y-46691666D01*
X265176904Y-46577380D01*
X265176904Y-46386904D01*
X265253095Y-46996428D02*
X265253095Y-47605952D01*
X264757857Y-48063095D02*
X264757857Y-47796428D01*
X265176904Y-47796428D02*
X264376904Y-47796428D01*
X264376904Y-48177380D01*
X265176904Y-48520238D02*
X265176904Y-48672619D01*
X265138809Y-48748809D01*
X265100714Y-48786904D01*
X264986428Y-48863095D01*
X264834047Y-48901190D01*
X264529285Y-48901190D01*
X264453095Y-48863095D01*
X264415000Y-48825000D01*
X264376904Y-48748809D01*
X264376904Y-48596428D01*
X264415000Y-48520238D01*
X264453095Y-48482142D01*
X264529285Y-48444047D01*
X264719761Y-48444047D01*
X264795952Y-48482142D01*
X264834047Y-48520238D01*
X264872142Y-48596428D01*
X264872142Y-48748809D01*
X264834047Y-48825000D01*
X264795952Y-48863095D01*
X264719761Y-48901190D01*
X346139404Y-73628571D02*
X345339404Y-73628571D01*
X345339404Y-73819047D01*
X345377500Y-73933333D01*
X345453690Y-74009523D01*
X345529880Y-74047619D01*
X345682261Y-74085714D01*
X345796547Y-74085714D01*
X345948928Y-74047619D01*
X346025119Y-74009523D01*
X346101309Y-73933333D01*
X346139404Y-73819047D01*
X346139404Y-73628571D01*
X346215595Y-74238095D02*
X346215595Y-74847619D01*
X346139404Y-75038095D02*
X345339404Y-75038095D01*
X346139404Y-75419047D02*
X345339404Y-75419047D01*
X346139404Y-75876190D01*
X345339404Y-75876190D01*
X346101309Y-76219047D02*
X346139404Y-76333333D01*
X346139404Y-76523809D01*
X346101309Y-76600000D01*
X346063214Y-76638095D01*
X345987023Y-76676190D01*
X345910833Y-76676190D01*
X345834642Y-76638095D01*
X345796547Y-76600000D01*
X345758452Y-76523809D01*
X345720357Y-76371428D01*
X345682261Y-76295238D01*
X345644166Y-76257142D01*
X345567976Y-76219047D01*
X345491785Y-76219047D01*
X345415595Y-76257142D01*
X345377500Y-76295238D01*
X345339404Y-76371428D01*
X345339404Y-76561904D01*
X345377500Y-76676190D01*
X345720357Y-77019047D02*
X345720357Y-77285714D01*
X346139404Y-77400000D02*
X346139404Y-77019047D01*
X345339404Y-77019047D01*
X345339404Y-77400000D01*
X346139404Y-78200000D02*
X345758452Y-77933333D01*
X346139404Y-77742857D02*
X345339404Y-77742857D01*
X345339404Y-78047619D01*
X345377500Y-78123809D01*
X345415595Y-78161904D01*
X345491785Y-78200000D01*
X345606071Y-78200000D01*
X345682261Y-78161904D01*
X345720357Y-78123809D01*
X345758452Y-78047619D01*
X345758452Y-77742857D01*
X345339404Y-78428571D02*
X345339404Y-78885714D01*
X346139404Y-78657142D02*
X345339404Y-78657142D01*
X346139404Y-44786904D02*
X345339404Y-44786904D01*
X345339404Y-44977380D01*
X345377500Y-45091666D01*
X345453690Y-45167857D01*
X345529880Y-45205952D01*
X345682261Y-45244047D01*
X345796547Y-45244047D01*
X345948928Y-45205952D01*
X346025119Y-45167857D01*
X346101309Y-45091666D01*
X346139404Y-44977380D01*
X346139404Y-44786904D01*
X346215595Y-45396428D02*
X346215595Y-46005952D01*
X345339404Y-46082142D02*
X346139404Y-46348809D01*
X345339404Y-46615476D01*
X345339404Y-47034523D02*
X345339404Y-47186904D01*
X345377500Y-47263095D01*
X345453690Y-47339285D01*
X345606071Y-47377380D01*
X345872738Y-47377380D01*
X346025119Y-47339285D01*
X346101309Y-47263095D01*
X346139404Y-47186904D01*
X346139404Y-47034523D01*
X346101309Y-46958333D01*
X346025119Y-46882142D01*
X345872738Y-46844047D01*
X345606071Y-46844047D01*
X345453690Y-46882142D01*
X345377500Y-46958333D01*
X345339404Y-47034523D01*
X346139404Y-48101190D02*
X346139404Y-47720238D01*
X345339404Y-47720238D01*
X345339404Y-48367857D02*
X345987023Y-48367857D01*
X346063214Y-48405952D01*
X346101309Y-48444047D01*
X346139404Y-48520238D01*
X346139404Y-48672619D01*
X346101309Y-48748809D01*
X346063214Y-48786904D01*
X345987023Y-48825000D01*
X345339404Y-48825000D01*
X346139404Y-49205952D02*
X345339404Y-49205952D01*
X345910833Y-49472619D01*
X345339404Y-49739285D01*
X346139404Y-49739285D01*
X345720357Y-50120238D02*
X345720357Y-50386904D01*
X346139404Y-50501190D02*
X346139404Y-50120238D01*
X345339404Y-50120238D01*
X345339404Y-50501190D01*
X265176904Y-73819047D02*
X264376904Y-73819047D01*
X264376904Y-74009523D01*
X264415000Y-74123809D01*
X264491190Y-74200000D01*
X264567380Y-74238095D01*
X264719761Y-74276190D01*
X264834047Y-74276190D01*
X264986428Y-74238095D01*
X265062619Y-74200000D01*
X265138809Y-74123809D01*
X265176904Y-74009523D01*
X265176904Y-73819047D01*
X265253095Y-74428571D02*
X265253095Y-75038095D01*
X265176904Y-75228571D02*
X264376904Y-75228571D01*
X264948333Y-75495238D01*
X264376904Y-75761904D01*
X265176904Y-75761904D01*
X265176904Y-76142857D02*
X264376904Y-76142857D01*
X265176904Y-76523809D02*
X264376904Y-76523809D01*
X265176904Y-76980952D01*
X264376904Y-76980952D01*
X264376904Y-77361904D02*
X265024523Y-77361904D01*
X265100714Y-77400000D01*
X265138809Y-77438095D01*
X265176904Y-77514285D01*
X265176904Y-77666666D01*
X265138809Y-77742857D01*
X265100714Y-77780952D01*
X265024523Y-77819047D01*
X264376904Y-77819047D01*
X265138809Y-78161904D02*
X265176904Y-78276190D01*
X265176904Y-78466666D01*
X265138809Y-78542857D01*
X265100714Y-78580952D01*
X265024523Y-78619047D01*
X264948333Y-78619047D01*
X264872142Y-78580952D01*
X264834047Y-78542857D01*
X264795952Y-78466666D01*
X264757857Y-78314285D01*
X264719761Y-78238095D01*
X264681666Y-78200000D01*
X264605476Y-78161904D01*
X264529285Y-78161904D01*
X264453095Y-78200000D01*
X264415000Y-78238095D01*
X264376904Y-78314285D01*
X264376904Y-78504761D01*
X264415000Y-78619047D01*
X346139404Y-150190476D02*
X345339404Y-150190476D01*
X345339404Y-150380952D01*
X345377500Y-150495238D01*
X345453690Y-150571428D01*
X345529880Y-150609523D01*
X345682261Y-150647619D01*
X345796547Y-150647619D01*
X345948928Y-150609523D01*
X346025119Y-150571428D01*
X346101309Y-150495238D01*
X346139404Y-150380952D01*
X346139404Y-150190476D01*
X346215595Y-150800000D02*
X346215595Y-151409523D01*
X346139404Y-151600000D02*
X345339404Y-151600000D01*
X345339404Y-151790476D01*
X345377500Y-151904761D01*
X345453690Y-151980952D01*
X345529880Y-152019047D01*
X345682261Y-152057142D01*
X345796547Y-152057142D01*
X345948928Y-152019047D01*
X346025119Y-151980952D01*
X346101309Y-151904761D01*
X346139404Y-151790476D01*
X346139404Y-151600000D01*
X345339404Y-152552380D02*
X345339404Y-152704761D01*
X345377500Y-152780952D01*
X345453690Y-152857142D01*
X345606071Y-152895238D01*
X345872738Y-152895238D01*
X346025119Y-152857142D01*
X346101309Y-152780952D01*
X346139404Y-152704761D01*
X346139404Y-152552380D01*
X346101309Y-152476190D01*
X346025119Y-152400000D01*
X345872738Y-152361904D01*
X345606071Y-152361904D01*
X345453690Y-152400000D01*
X345377500Y-152476190D01*
X345339404Y-152552380D01*
X345339404Y-153161904D02*
X346139404Y-153352380D01*
X345567976Y-153504761D01*
X346139404Y-153657142D01*
X345339404Y-153847619D01*
X346139404Y-154152380D02*
X345339404Y-154152380D01*
X346139404Y-154609523D01*
X345339404Y-154609523D01*
X208026904Y-75304761D02*
X207226904Y-75304761D01*
X207226904Y-75495238D01*
X207265000Y-75609523D01*
X207341190Y-75685714D01*
X207417380Y-75723809D01*
X207569761Y-75761904D01*
X207684047Y-75761904D01*
X207836428Y-75723809D01*
X207912619Y-75685714D01*
X207988809Y-75609523D01*
X208026904Y-75495238D01*
X208026904Y-75304761D01*
X208103095Y-75914285D02*
X208103095Y-76523809D01*
X207569761Y-76828571D02*
X207531666Y-76752380D01*
X207493571Y-76714285D01*
X207417380Y-76676190D01*
X207379285Y-76676190D01*
X207303095Y-76714285D01*
X207265000Y-76752380D01*
X207226904Y-76828571D01*
X207226904Y-76980952D01*
X207265000Y-77057142D01*
X207303095Y-77095238D01*
X207379285Y-77133333D01*
X207417380Y-77133333D01*
X207493571Y-77095238D01*
X207531666Y-77057142D01*
X207569761Y-76980952D01*
X207569761Y-76828571D01*
X207607857Y-76752380D01*
X207645952Y-76714285D01*
X207722142Y-76676190D01*
X207874523Y-76676190D01*
X207950714Y-76714285D01*
X207988809Y-76752380D01*
X208026904Y-76828571D01*
X208026904Y-76980952D01*
X207988809Y-77057142D01*
X207950714Y-77095238D01*
X207874523Y-77133333D01*
X207722142Y-77133333D01*
X207645952Y-77095238D01*
X207607857Y-77057142D01*
X207569761Y-76980952D01*
X174689404Y-132435714D02*
X173889404Y-132435714D01*
X173889404Y-132626190D01*
X173927500Y-132740476D01*
X174003690Y-132816666D01*
X174079880Y-132854761D01*
X174232261Y-132892857D01*
X174346547Y-132892857D01*
X174498928Y-132854761D01*
X174575119Y-132816666D01*
X174651309Y-132740476D01*
X174689404Y-132626190D01*
X174689404Y-132435714D01*
X174765595Y-133045238D02*
X174765595Y-133654761D01*
X174270357Y-134111904D02*
X174308452Y-134226190D01*
X174346547Y-134264285D01*
X174422738Y-134302380D01*
X174537023Y-134302380D01*
X174613214Y-134264285D01*
X174651309Y-134226190D01*
X174689404Y-134150000D01*
X174689404Y-133845238D01*
X173889404Y-133845238D01*
X173889404Y-134111904D01*
X173927500Y-134188095D01*
X173965595Y-134226190D01*
X174041785Y-134264285D01*
X174117976Y-134264285D01*
X174194166Y-134226190D01*
X174232261Y-134188095D01*
X174270357Y-134111904D01*
X174270357Y-133845238D01*
X160401904Y-94430952D02*
X159601904Y-94430952D01*
X159601904Y-94621428D01*
X159640000Y-94735714D01*
X159716190Y-94811904D01*
X159792380Y-94850000D01*
X159944761Y-94888095D01*
X160059047Y-94888095D01*
X160211428Y-94850000D01*
X160287619Y-94811904D01*
X160363809Y-94735714D01*
X160401904Y-94621428D01*
X160401904Y-94430952D01*
X160478095Y-95040476D02*
X160478095Y-95650000D01*
X159601904Y-95726190D02*
X159601904Y-96183333D01*
X160401904Y-95954761D02*
X159601904Y-95954761D01*
X122301904Y-94373809D02*
X121501904Y-94373809D01*
X121501904Y-94564285D01*
X121540000Y-94678571D01*
X121616190Y-94754761D01*
X121692380Y-94792857D01*
X121844761Y-94830952D01*
X121959047Y-94830952D01*
X122111428Y-94792857D01*
X122187619Y-94754761D01*
X122263809Y-94678571D01*
X122301904Y-94564285D01*
X122301904Y-94373809D01*
X122378095Y-94983333D02*
X122378095Y-95592857D01*
X121882857Y-95783333D02*
X121882857Y-96050000D01*
X122301904Y-96164285D02*
X122301904Y-95783333D01*
X121501904Y-95783333D01*
X121501904Y-96164285D01*
X365189404Y-150171428D02*
X364389404Y-150171428D01*
X364389404Y-150361904D01*
X364427500Y-150476190D01*
X364503690Y-150552380D01*
X364579880Y-150590476D01*
X364732261Y-150628571D01*
X364846547Y-150628571D01*
X364998928Y-150590476D01*
X365075119Y-150552380D01*
X365151309Y-150476190D01*
X365189404Y-150361904D01*
X365189404Y-150171428D01*
X365265595Y-150780952D02*
X365265595Y-151390476D01*
X365189404Y-152038095D02*
X364808452Y-151771428D01*
X365189404Y-151580952D02*
X364389404Y-151580952D01*
X364389404Y-151885714D01*
X364427500Y-151961904D01*
X364465595Y-152000000D01*
X364541785Y-152038095D01*
X364656071Y-152038095D01*
X364732261Y-152000000D01*
X364770357Y-151961904D01*
X364808452Y-151885714D01*
X364808452Y-151580952D01*
X365189404Y-152380952D02*
X364389404Y-152380952D01*
X364427500Y-153180952D02*
X364389404Y-153104761D01*
X364389404Y-152990476D01*
X364427500Y-152876190D01*
X364503690Y-152800000D01*
X364579880Y-152761904D01*
X364732261Y-152723809D01*
X364846547Y-152723809D01*
X364998928Y-152761904D01*
X365075119Y-152800000D01*
X365151309Y-152876190D01*
X365189404Y-152990476D01*
X365189404Y-153066666D01*
X365151309Y-153180952D01*
X365113214Y-153219047D01*
X364846547Y-153219047D01*
X364846547Y-153066666D01*
X365189404Y-153561904D02*
X364389404Y-153561904D01*
X364770357Y-153561904D02*
X364770357Y-154019047D01*
X365189404Y-154019047D02*
X364389404Y-154019047D01*
X364389404Y-154285714D02*
X364389404Y-154742857D01*
X365189404Y-154514285D02*
X364389404Y-154514285D01*
X93726904Y-75304761D02*
X92926904Y-75304761D01*
X92926904Y-75495238D01*
X92965000Y-75609523D01*
X93041190Y-75685714D01*
X93117380Y-75723809D01*
X93269761Y-75761904D01*
X93384047Y-75761904D01*
X93536428Y-75723809D01*
X93612619Y-75685714D01*
X93688809Y-75609523D01*
X93726904Y-75495238D01*
X93726904Y-75304761D01*
X93803095Y-75914285D02*
X93803095Y-76523809D01*
X93003095Y-76676190D02*
X92965000Y-76714285D01*
X92926904Y-76790476D01*
X92926904Y-76980952D01*
X92965000Y-77057142D01*
X93003095Y-77095238D01*
X93079285Y-77133333D01*
X93155476Y-77133333D01*
X93269761Y-77095238D01*
X93726904Y-76638095D01*
X93726904Y-77133333D01*
X93726904Y-46386904D02*
X92926904Y-46386904D01*
X92926904Y-46577380D01*
X92965000Y-46691666D01*
X93041190Y-46767857D01*
X93117380Y-46805952D01*
X93269761Y-46844047D01*
X93384047Y-46844047D01*
X93536428Y-46805952D01*
X93612619Y-46767857D01*
X93688809Y-46691666D01*
X93726904Y-46577380D01*
X93726904Y-46386904D01*
X93803095Y-46996428D02*
X93803095Y-47605952D01*
X93307857Y-48063095D02*
X93307857Y-47796428D01*
X93726904Y-47796428D02*
X92926904Y-47796428D01*
X92926904Y-48177380D01*
X93726904Y-48901190D02*
X93726904Y-48444047D01*
X93726904Y-48672619D02*
X92926904Y-48672619D01*
X93041190Y-48596428D01*
X93117380Y-48520238D01*
X93155476Y-48444047D01*
X141351904Y-94335714D02*
X140551904Y-94335714D01*
X140551904Y-94526190D01*
X140590000Y-94640476D01*
X140666190Y-94716666D01*
X140742380Y-94754761D01*
X140894761Y-94792857D01*
X141009047Y-94792857D01*
X141161428Y-94754761D01*
X141237619Y-94716666D01*
X141313809Y-94640476D01*
X141351904Y-94526190D01*
X141351904Y-94335714D01*
X141428095Y-94945238D02*
X141428095Y-95554761D01*
X141351904Y-96202380D02*
X140970952Y-95935714D01*
X141351904Y-95745238D02*
X140551904Y-95745238D01*
X140551904Y-96050000D01*
X140590000Y-96126190D01*
X140628095Y-96164285D01*
X140704285Y-96202380D01*
X140818571Y-96202380D01*
X140894761Y-96164285D01*
X140932857Y-96126190D01*
X140970952Y-96050000D01*
X140970952Y-95745238D01*
X312801904Y-130816666D02*
X312001904Y-130816666D01*
X312001904Y-131007142D01*
X312040000Y-131121428D01*
X312116190Y-131197619D01*
X312192380Y-131235714D01*
X312344761Y-131273809D01*
X312459047Y-131273809D01*
X312611428Y-131235714D01*
X312687619Y-131197619D01*
X312763809Y-131121428D01*
X312801904Y-131007142D01*
X312801904Y-130816666D01*
X312878095Y-131426190D02*
X312878095Y-132035714D01*
X312763809Y-132188095D02*
X312801904Y-132302380D01*
X312801904Y-132492857D01*
X312763809Y-132569047D01*
X312725714Y-132607142D01*
X312649523Y-132645238D01*
X312573333Y-132645238D01*
X312497142Y-132607142D01*
X312459047Y-132569047D01*
X312420952Y-132492857D01*
X312382857Y-132340476D01*
X312344761Y-132264285D01*
X312306666Y-132226190D01*
X312230476Y-132188095D01*
X312154285Y-132188095D01*
X312078095Y-132226190D01*
X312040000Y-132264285D01*
X312001904Y-132340476D01*
X312001904Y-132530952D01*
X312040000Y-132645238D01*
X312801904Y-132988095D02*
X312001904Y-132988095D01*
X312382857Y-132988095D02*
X312382857Y-133445238D01*
X312801904Y-133445238D02*
X312001904Y-133445238D01*
X312801904Y-133826190D02*
X312001904Y-133826190D01*
X312382857Y-134473809D02*
X312382857Y-134207142D01*
X312801904Y-134207142D02*
X312001904Y-134207142D01*
X312001904Y-134588095D01*
X312001904Y-134778571D02*
X312001904Y-135235714D01*
X312801904Y-135007142D02*
X312001904Y-135007142D01*
X312801904Y-135921428D02*
X312801904Y-135464285D01*
X312801904Y-135692857D02*
X312001904Y-135692857D01*
X312116190Y-135616666D01*
X312192380Y-135540476D01*
X312230476Y-135464285D01*
X69914404Y-112261904D02*
X69114404Y-112261904D01*
X69114404Y-112452380D01*
X69152500Y-112566666D01*
X69228690Y-112642857D01*
X69304880Y-112680952D01*
X69457261Y-112719047D01*
X69571547Y-112719047D01*
X69723928Y-112680952D01*
X69800119Y-112642857D01*
X69876309Y-112566666D01*
X69914404Y-112452380D01*
X69914404Y-112261904D01*
X69990595Y-112871428D02*
X69990595Y-113480952D01*
X69838214Y-114128571D02*
X69876309Y-114090476D01*
X69914404Y-113976190D01*
X69914404Y-113900000D01*
X69876309Y-113785714D01*
X69800119Y-113709523D01*
X69723928Y-113671428D01*
X69571547Y-113633333D01*
X69457261Y-113633333D01*
X69304880Y-113671428D01*
X69228690Y-113709523D01*
X69152500Y-113785714D01*
X69114404Y-113900000D01*
X69114404Y-113976190D01*
X69152500Y-114090476D01*
X69190595Y-114128571D01*
X69685833Y-114433333D02*
X69685833Y-114814285D01*
X69914404Y-114357142D02*
X69114404Y-114623809D01*
X69914404Y-114890476D01*
X69914404Y-115157142D02*
X69114404Y-115157142D01*
X69114404Y-115461904D01*
X69152500Y-115538095D01*
X69190595Y-115576190D01*
X69266785Y-115614285D01*
X69381071Y-115614285D01*
X69457261Y-115576190D01*
X69495357Y-115538095D01*
X69533452Y-115461904D01*
X69533452Y-115157142D01*
X69876309Y-115919047D02*
X69914404Y-116033333D01*
X69914404Y-116223809D01*
X69876309Y-116300000D01*
X69838214Y-116338095D01*
X69762023Y-116376190D01*
X69685833Y-116376190D01*
X69609642Y-116338095D01*
X69571547Y-116300000D01*
X69533452Y-116223809D01*
X69495357Y-116071428D01*
X69457261Y-115995238D01*
X69419166Y-115957142D01*
X69342976Y-115919047D01*
X69266785Y-115919047D01*
X69190595Y-115957142D01*
X69152500Y-115995238D01*
X69114404Y-116071428D01*
X69114404Y-116261904D01*
X69152500Y-116376190D01*
X155639404Y-132492857D02*
X154839404Y-132492857D01*
X154839404Y-132683333D01*
X154877500Y-132797619D01*
X154953690Y-132873809D01*
X155029880Y-132911904D01*
X155182261Y-132950000D01*
X155296547Y-132950000D01*
X155448928Y-132911904D01*
X155525119Y-132873809D01*
X155601309Y-132797619D01*
X155639404Y-132683333D01*
X155639404Y-132492857D01*
X155715595Y-133102380D02*
X155715595Y-133711904D01*
X154839404Y-133788095D02*
X155639404Y-134054761D01*
X154839404Y-134321428D01*
X108014404Y-150914285D02*
X107214404Y-150914285D01*
X107214404Y-151104761D01*
X107252500Y-151219047D01*
X107328690Y-151295238D01*
X107404880Y-151333333D01*
X107557261Y-151371428D01*
X107671547Y-151371428D01*
X107823928Y-151333333D01*
X107900119Y-151295238D01*
X107976309Y-151219047D01*
X108014404Y-151104761D01*
X108014404Y-150914285D01*
X108090595Y-151523809D02*
X108090595Y-152133333D01*
X107785833Y-152285714D02*
X107785833Y-152666666D01*
X108014404Y-152209523D02*
X107214404Y-152476190D01*
X108014404Y-152742857D01*
X108014404Y-153390476D02*
X108014404Y-153009523D01*
X107214404Y-153009523D01*
X107214404Y-153542857D02*
X107214404Y-154000000D01*
X108014404Y-153771428D02*
X107214404Y-153771428D01*
X227076904Y-150000000D02*
X226276904Y-150000000D01*
X226276904Y-150190476D01*
X226315000Y-150304761D01*
X226391190Y-150380952D01*
X226467380Y-150419047D01*
X226619761Y-150457142D01*
X226734047Y-150457142D01*
X226886428Y-150419047D01*
X226962619Y-150380952D01*
X227038809Y-150304761D01*
X227076904Y-150190476D01*
X227076904Y-150000000D01*
X227153095Y-150609523D02*
X227153095Y-151219047D01*
X227038809Y-151371428D02*
X227076904Y-151485714D01*
X227076904Y-151676190D01*
X227038809Y-151752380D01*
X227000714Y-151790476D01*
X226924523Y-151828571D01*
X226848333Y-151828571D01*
X226772142Y-151790476D01*
X226734047Y-151752380D01*
X226695952Y-151676190D01*
X226657857Y-151523809D01*
X226619761Y-151447619D01*
X226581666Y-151409523D01*
X226505476Y-151371428D01*
X226429285Y-151371428D01*
X226353095Y-151409523D01*
X226315000Y-151447619D01*
X226276904Y-151523809D01*
X226276904Y-151714285D01*
X226315000Y-151828571D01*
X227076904Y-152171428D02*
X226276904Y-152171428D01*
X226276904Y-152476190D01*
X226315000Y-152552380D01*
X226353095Y-152590476D01*
X226429285Y-152628571D01*
X226543571Y-152628571D01*
X226619761Y-152590476D01*
X226657857Y-152552380D01*
X226695952Y-152476190D01*
X226695952Y-152171428D01*
X226848333Y-152933333D02*
X226848333Y-153314285D01*
X227076904Y-152857142D02*
X226276904Y-153123809D01*
X227076904Y-153390476D01*
X227000714Y-154114285D02*
X227038809Y-154076190D01*
X227076904Y-153961904D01*
X227076904Y-153885714D01*
X227038809Y-153771428D01*
X226962619Y-153695238D01*
X226886428Y-153657142D01*
X226734047Y-153619047D01*
X226619761Y-153619047D01*
X226467380Y-153657142D01*
X226391190Y-153695238D01*
X226315000Y-153771428D01*
X226276904Y-153885714D01*
X226276904Y-153961904D01*
X226315000Y-154076190D01*
X226353095Y-154114285D01*
X226657857Y-154457142D02*
X226657857Y-154723809D01*
X227076904Y-154838095D02*
X227076904Y-154457142D01*
X226276904Y-154457142D01*
X226276904Y-154838095D01*
X217551904Y-46386904D02*
X216751904Y-46386904D01*
X216751904Y-46577380D01*
X216790000Y-46691666D01*
X216866190Y-46767857D01*
X216942380Y-46805952D01*
X217094761Y-46844047D01*
X217209047Y-46844047D01*
X217361428Y-46805952D01*
X217437619Y-46767857D01*
X217513809Y-46691666D01*
X217551904Y-46577380D01*
X217551904Y-46386904D01*
X217628095Y-46996428D02*
X217628095Y-47605952D01*
X217132857Y-48063095D02*
X217132857Y-47796428D01*
X217551904Y-47796428D02*
X216751904Y-47796428D01*
X216751904Y-48177380D01*
X216751904Y-48405952D02*
X216751904Y-48939285D01*
X217551904Y-48596428D01*
X179451904Y-94392857D02*
X178651904Y-94392857D01*
X178651904Y-94583333D01*
X178690000Y-94697619D01*
X178766190Y-94773809D01*
X178842380Y-94811904D01*
X178994761Y-94850000D01*
X179109047Y-94850000D01*
X179261428Y-94811904D01*
X179337619Y-94773809D01*
X179413809Y-94697619D01*
X179451904Y-94583333D01*
X179451904Y-94392857D01*
X179528095Y-95002380D02*
X179528095Y-95611904D01*
X179070952Y-95954761D02*
X179451904Y-95954761D01*
X178651904Y-95688095D02*
X179070952Y-95954761D01*
X178651904Y-96221428D01*
X222314404Y-113385714D02*
X221514404Y-113385714D01*
X221514404Y-113576190D01*
X221552500Y-113690476D01*
X221628690Y-113766666D01*
X221704880Y-113804761D01*
X221857261Y-113842857D01*
X221971547Y-113842857D01*
X222123928Y-113804761D01*
X222200119Y-113766666D01*
X222276309Y-113690476D01*
X222314404Y-113576190D01*
X222314404Y-113385714D01*
X222390595Y-113995238D02*
X222390595Y-114604761D01*
X222314404Y-114795238D02*
X221514404Y-114795238D01*
X222314404Y-115252380D02*
X221857261Y-114909523D01*
X221514404Y-115252380D02*
X221971547Y-114795238D01*
X198501904Y-94316666D02*
X197701904Y-94316666D01*
X197701904Y-94507142D01*
X197740000Y-94621428D01*
X197816190Y-94697619D01*
X197892380Y-94735714D01*
X198044761Y-94773809D01*
X198159047Y-94773809D01*
X198311428Y-94735714D01*
X198387619Y-94697619D01*
X198463809Y-94621428D01*
X198501904Y-94507142D01*
X198501904Y-94316666D01*
X198578095Y-94926190D02*
X198578095Y-95535714D01*
X197701904Y-95726190D02*
X198349523Y-95726190D01*
X198425714Y-95764285D01*
X198463809Y-95802380D01*
X198501904Y-95878571D01*
X198501904Y-96030952D01*
X198463809Y-96107142D01*
X198425714Y-96145238D01*
X198349523Y-96183333D01*
X197701904Y-96183333D01*
D11*
X95002500Y-136275000D02*
X97402500Y-136275000D01*
X95002500Y-130550000D02*
X97402500Y-130550000D01*
X95002500Y-136150000D02*
X97402500Y-136150000D01*
X95002500Y-135975000D02*
X97402500Y-135975000D01*
X95002500Y-136350000D02*
X95002500Y-130550000D01*
X95002500Y-135800000D02*
X97402500Y-135800000D01*
X97402500Y-130550000D02*
X97402500Y-136350000D01*
X97402500Y-136375000D02*
X95002500Y-136375000D01*
X95002500Y-135625000D02*
X97402500Y-135625000D01*
X190252500Y-130550000D02*
X192652500Y-130550000D01*
X190252500Y-135800000D02*
X192652500Y-135800000D01*
X190252500Y-136350000D02*
X190252500Y-130550000D01*
X190252500Y-135625000D02*
X192652500Y-135625000D01*
X192652500Y-130550000D02*
X192652500Y-136350000D01*
X190252500Y-136150000D02*
X192652500Y-136150000D01*
X190252500Y-135975000D02*
X192652500Y-135975000D01*
X190252500Y-136275000D02*
X192652500Y-136275000D01*
X192652500Y-136375000D02*
X190252500Y-136375000D01*
X342652500Y-111500000D02*
X345052500Y-111500000D01*
X345052500Y-111500000D02*
X345052500Y-117300000D01*
X342652500Y-116925000D02*
X345052500Y-116925000D01*
X342652500Y-117100000D02*
X345052500Y-117100000D01*
X342652500Y-116750000D02*
X345052500Y-116750000D01*
X342652500Y-117225000D02*
X345052500Y-117225000D01*
X342652500Y-117300000D02*
X342652500Y-111500000D01*
X342652500Y-116575000D02*
X345052500Y-116575000D01*
X345052500Y-117325000D02*
X342652500Y-117325000D01*
X273615000Y-98275000D02*
X271215000Y-98275000D01*
X271215000Y-92450000D02*
X273615000Y-92450000D01*
X271215000Y-97875000D02*
X273615000Y-97875000D01*
X271215000Y-98175000D02*
X273615000Y-98175000D01*
X271215000Y-97525000D02*
X273615000Y-97525000D01*
X271215000Y-98050000D02*
X273615000Y-98050000D01*
X273615000Y-92450000D02*
X273615000Y-98250000D01*
X271215000Y-98250000D02*
X271215000Y-92450000D01*
X271215000Y-97700000D02*
X273615000Y-97700000D01*
X361702500Y-97525000D02*
X364102500Y-97525000D01*
X361702500Y-98050000D02*
X364102500Y-98050000D01*
X361702500Y-98250000D02*
X361702500Y-92450000D01*
X364102500Y-98275000D02*
X361702500Y-98275000D01*
X361702500Y-92450000D02*
X364102500Y-92450000D01*
X361702500Y-97700000D02*
X364102500Y-97700000D01*
X361702500Y-97875000D02*
X364102500Y-97875000D01*
X364102500Y-92450000D02*
X364102500Y-98250000D01*
X361702500Y-98175000D02*
X364102500Y-98175000D01*
X361702500Y-78650000D02*
X364102500Y-78650000D01*
X361702500Y-79000000D02*
X364102500Y-79000000D01*
X361702500Y-79125000D02*
X364102500Y-79125000D01*
X361702500Y-78825000D02*
X364102500Y-78825000D01*
X361702500Y-79200000D02*
X361702500Y-73400000D01*
X361702500Y-78475000D02*
X364102500Y-78475000D01*
X364102500Y-79225000D02*
X361702500Y-79225000D01*
X364102500Y-73400000D02*
X364102500Y-79200000D01*
X361702500Y-73400000D02*
X364102500Y-73400000D01*
X142627500Y-116750000D02*
X145027500Y-116750000D01*
X145027500Y-117325000D02*
X142627500Y-117325000D01*
X142627500Y-111500000D02*
X145027500Y-111500000D01*
X142627500Y-117100000D02*
X145027500Y-117100000D01*
X142627500Y-116575000D02*
X145027500Y-116575000D01*
X145027500Y-111500000D02*
X145027500Y-117300000D01*
X142627500Y-117300000D02*
X142627500Y-111500000D01*
X142627500Y-117225000D02*
X145027500Y-117225000D01*
X142627500Y-116925000D02*
X145027500Y-116925000D01*
X318840000Y-116925000D02*
X321240000Y-116925000D01*
X321240000Y-111500000D02*
X321240000Y-117300000D01*
X321240000Y-117325000D02*
X318840000Y-117325000D01*
X318840000Y-116750000D02*
X321240000Y-116750000D01*
X318840000Y-117225000D02*
X321240000Y-117225000D01*
X318840000Y-111500000D02*
X321240000Y-111500000D01*
X318840000Y-116575000D02*
X321240000Y-116575000D01*
X318840000Y-117100000D02*
X321240000Y-117100000D01*
X318840000Y-117300000D02*
X318840000Y-111500000D01*
X321240000Y-92450000D02*
X321240000Y-98250000D01*
X318840000Y-97700000D02*
X321240000Y-97700000D01*
X318840000Y-98175000D02*
X321240000Y-98175000D01*
X321240000Y-98275000D02*
X318840000Y-98275000D01*
X318840000Y-97525000D02*
X321240000Y-97525000D01*
X318840000Y-92450000D02*
X321240000Y-92450000D01*
X318840000Y-98250000D02*
X318840000Y-92450000D01*
X318840000Y-97875000D02*
X321240000Y-97875000D01*
X318840000Y-98050000D02*
X321240000Y-98050000D01*
X342652500Y-97875000D02*
X345052500Y-97875000D01*
X342652500Y-97700000D02*
X345052500Y-97700000D01*
X345052500Y-92450000D02*
X345052500Y-98250000D01*
X342652500Y-98175000D02*
X345052500Y-98175000D01*
X345052500Y-98275000D02*
X342652500Y-98275000D01*
X342652500Y-98250000D02*
X342652500Y-92450000D01*
X342652500Y-98050000D02*
X345052500Y-98050000D01*
X342652500Y-92450000D02*
X345052500Y-92450000D01*
X342652500Y-97525000D02*
X345052500Y-97525000D01*
X237877500Y-116750000D02*
X240277500Y-116750000D01*
X237877500Y-117100000D02*
X240277500Y-117100000D01*
X237877500Y-116575000D02*
X240277500Y-116575000D01*
X237877500Y-116925000D02*
X240277500Y-116925000D01*
X237877500Y-117225000D02*
X240277500Y-117225000D01*
X240277500Y-117325000D02*
X237877500Y-117325000D01*
X237877500Y-117300000D02*
X237877500Y-111500000D01*
X240277500Y-111500000D02*
X240277500Y-117300000D01*
X237877500Y-111500000D02*
X240277500Y-111500000D01*
X228352500Y-135975000D02*
X230752500Y-135975000D01*
X228352500Y-135800000D02*
X230752500Y-135800000D01*
X230752500Y-136375000D02*
X228352500Y-136375000D01*
X228352500Y-136150000D02*
X230752500Y-136150000D01*
X228352500Y-130550000D02*
X230752500Y-130550000D01*
X230752500Y-130550000D02*
X230752500Y-136350000D01*
X228352500Y-135625000D02*
X230752500Y-135625000D01*
X228352500Y-136350000D02*
X228352500Y-130550000D01*
X228352500Y-136275000D02*
X230752500Y-136275000D01*
X318840000Y-79125000D02*
X321240000Y-79125000D01*
X318840000Y-79200000D02*
X318840000Y-73400000D01*
X321240000Y-79225000D02*
X318840000Y-79225000D01*
X321240000Y-73400000D02*
X321240000Y-79200000D01*
X318840000Y-73400000D02*
X321240000Y-73400000D01*
X318840000Y-78825000D02*
X321240000Y-78825000D01*
X318840000Y-78475000D02*
X321240000Y-78475000D01*
X318840000Y-79000000D02*
X321240000Y-79000000D01*
X318840000Y-78650000D02*
X321240000Y-78650000D01*
X299790000Y-50425000D02*
X302190000Y-50425000D01*
X299790000Y-49900000D02*
X302190000Y-49900000D01*
X299790000Y-44825000D02*
X302190000Y-44825000D01*
X299790000Y-50075000D02*
X302190000Y-50075000D01*
X302190000Y-44825000D02*
X302190000Y-50625000D01*
X302190000Y-50650000D02*
X299790000Y-50650000D01*
X299790000Y-50250000D02*
X302190000Y-50250000D01*
X299790000Y-50625000D02*
X299790000Y-44825000D01*
X299790000Y-50550000D02*
X302190000Y-50550000D01*
X104527500Y-117300000D02*
X104527500Y-111500000D01*
X104527500Y-116750000D02*
X106927500Y-116750000D01*
X104527500Y-116575000D02*
X106927500Y-116575000D01*
X104527500Y-117225000D02*
X106927500Y-117225000D01*
X106927500Y-111500000D02*
X106927500Y-117300000D01*
X106927500Y-117325000D02*
X104527500Y-117325000D01*
X104527500Y-116925000D02*
X106927500Y-116925000D01*
X104527500Y-117100000D02*
X106927500Y-117100000D01*
X104527500Y-111500000D02*
X106927500Y-111500000D01*
X71190000Y-79125000D02*
X73590000Y-79125000D01*
X73590000Y-79225000D02*
X71190000Y-79225000D01*
X71190000Y-79200000D02*
X71190000Y-73400000D01*
X71190000Y-79000000D02*
X73590000Y-79000000D01*
X71190000Y-78650000D02*
X73590000Y-78650000D01*
X71190000Y-78475000D02*
X73590000Y-78475000D01*
X71190000Y-73400000D02*
X73590000Y-73400000D01*
X71190000Y-78825000D02*
X73590000Y-78825000D01*
X73590000Y-73400000D02*
X73590000Y-79200000D01*
X123577500Y-116750000D02*
X125977500Y-116750000D01*
X123577500Y-116575000D02*
X125977500Y-116575000D01*
X123577500Y-117225000D02*
X125977500Y-117225000D01*
X123577500Y-117100000D02*
X125977500Y-117100000D01*
X123577500Y-111500000D02*
X125977500Y-111500000D01*
X125977500Y-117325000D02*
X123577500Y-117325000D01*
X123577500Y-116925000D02*
X125977500Y-116925000D01*
X123577500Y-117300000D02*
X123577500Y-111500000D01*
X125977500Y-111500000D02*
X125977500Y-117300000D01*
X266452500Y-136350000D02*
X266452500Y-130550000D01*
X266452500Y-135800000D02*
X268852500Y-135800000D01*
X268852500Y-136375000D02*
X266452500Y-136375000D01*
X266452500Y-135975000D02*
X268852500Y-135975000D01*
X266452500Y-135625000D02*
X268852500Y-135625000D01*
X268852500Y-130550000D02*
X268852500Y-136350000D01*
X266452500Y-136150000D02*
X268852500Y-136150000D01*
X266452500Y-136275000D02*
X268852500Y-136275000D01*
X266452500Y-130550000D02*
X268852500Y-130550000D01*
X130740000Y-73400000D02*
X130740000Y-79200000D01*
X128340000Y-78475000D02*
X130740000Y-78475000D01*
X130740000Y-79225000D02*
X128340000Y-79225000D01*
X128340000Y-79200000D02*
X128340000Y-73400000D01*
X128340000Y-73400000D02*
X130740000Y-73400000D01*
X128340000Y-78825000D02*
X130740000Y-78825000D01*
X128340000Y-78650000D02*
X130740000Y-78650000D01*
X128340000Y-79125000D02*
X130740000Y-79125000D01*
X128340000Y-79000000D02*
X130740000Y-79000000D01*
X56902500Y-155325000D02*
X59302500Y-155325000D01*
X56902500Y-155200000D02*
X59302500Y-155200000D01*
X59302500Y-149600000D02*
X59302500Y-155400000D01*
X59302500Y-155425000D02*
X56902500Y-155425000D01*
X56902500Y-155400000D02*
X56902500Y-149600000D01*
X56902500Y-154850000D02*
X59302500Y-154850000D01*
X56902500Y-154675000D02*
X59302500Y-154675000D01*
X56902500Y-149600000D02*
X59302500Y-149600000D01*
X56902500Y-155025000D02*
X59302500Y-155025000D01*
X318840000Y-44825000D02*
X321240000Y-44825000D01*
X318840000Y-49900000D02*
X321240000Y-49900000D01*
X318840000Y-50075000D02*
X321240000Y-50075000D01*
X318840000Y-50250000D02*
X321240000Y-50250000D01*
X318840000Y-50550000D02*
X321240000Y-50550000D01*
X318840000Y-50425000D02*
X321240000Y-50425000D01*
X321240000Y-44825000D02*
X321240000Y-50625000D01*
X318840000Y-50625000D02*
X318840000Y-44825000D01*
X321240000Y-50650000D02*
X318840000Y-50650000D01*
X149790000Y-44825000D02*
X149790000Y-50625000D01*
X147390000Y-50425000D02*
X149790000Y-50425000D01*
X147390000Y-44825000D02*
X149790000Y-44825000D01*
X147390000Y-49900000D02*
X149790000Y-49900000D01*
X147390000Y-50550000D02*
X149790000Y-50550000D01*
X147390000Y-50075000D02*
X149790000Y-50075000D01*
X147390000Y-50250000D02*
X149790000Y-50250000D01*
X147390000Y-50625000D02*
X147390000Y-44825000D01*
X149790000Y-50650000D02*
X147390000Y-50650000D01*
X259327500Y-111500000D02*
X259327500Y-117300000D01*
X256927500Y-116925000D02*
X259327500Y-116925000D01*
X256927500Y-117300000D02*
X256927500Y-111500000D01*
X259327500Y-117325000D02*
X256927500Y-117325000D01*
X256927500Y-117225000D02*
X259327500Y-117225000D01*
X256927500Y-111500000D02*
X259327500Y-111500000D01*
X256927500Y-116575000D02*
X259327500Y-116575000D01*
X256927500Y-117100000D02*
X259327500Y-117100000D01*
X256927500Y-116750000D02*
X259327500Y-116750000D01*
X109290000Y-79125000D02*
X111690000Y-79125000D01*
X111690000Y-79225000D02*
X109290000Y-79225000D01*
X109290000Y-79200000D02*
X109290000Y-73400000D01*
X111690000Y-73400000D02*
X111690000Y-79200000D01*
X109290000Y-78650000D02*
X111690000Y-78650000D01*
X109290000Y-78825000D02*
X111690000Y-78825000D01*
X109290000Y-78475000D02*
X111690000Y-78475000D01*
X109290000Y-73400000D02*
X111690000Y-73400000D01*
X109290000Y-79000000D02*
X111690000Y-79000000D01*
X290265000Y-92450000D02*
X292665000Y-92450000D01*
X290265000Y-98050000D02*
X292665000Y-98050000D01*
X290265000Y-98175000D02*
X292665000Y-98175000D01*
X290265000Y-98250000D02*
X290265000Y-92450000D01*
X290265000Y-97525000D02*
X292665000Y-97525000D01*
X292665000Y-98275000D02*
X290265000Y-98275000D01*
X292665000Y-92450000D02*
X292665000Y-98250000D01*
X290265000Y-97700000D02*
X292665000Y-97700000D01*
X290265000Y-97875000D02*
X292665000Y-97875000D01*
X180727500Y-116750000D02*
X183127500Y-116750000D01*
X180727500Y-116925000D02*
X183127500Y-116925000D01*
X180727500Y-117225000D02*
X183127500Y-117225000D01*
X180727500Y-111500000D02*
X183127500Y-111500000D01*
X180727500Y-117100000D02*
X183127500Y-117100000D01*
X180727500Y-117300000D02*
X180727500Y-111500000D01*
X183127500Y-117325000D02*
X180727500Y-117325000D01*
X183127500Y-111500000D02*
X183127500Y-117300000D01*
X180727500Y-116575000D02*
X183127500Y-116575000D01*
X280740000Y-79200000D02*
X280740000Y-73400000D01*
X280740000Y-73400000D02*
X283140000Y-73400000D01*
X280740000Y-79125000D02*
X283140000Y-79125000D01*
X283140000Y-79225000D02*
X280740000Y-79225000D01*
X280740000Y-78475000D02*
X283140000Y-78475000D01*
X283140000Y-73400000D02*
X283140000Y-79200000D01*
X280740000Y-78825000D02*
X283140000Y-78825000D01*
X280740000Y-79000000D02*
X283140000Y-79000000D01*
X280740000Y-78650000D02*
X283140000Y-78650000D01*
X149790000Y-79225000D02*
X147390000Y-79225000D01*
X147390000Y-78825000D02*
X149790000Y-78825000D01*
X147390000Y-79200000D02*
X147390000Y-73400000D01*
X147390000Y-79000000D02*
X149790000Y-79000000D01*
X147390000Y-78650000D02*
X149790000Y-78650000D01*
X149790000Y-73400000D02*
X149790000Y-79200000D01*
X147390000Y-79125000D02*
X149790000Y-79125000D01*
X147390000Y-78475000D02*
X149790000Y-78475000D01*
X147390000Y-73400000D02*
X149790000Y-73400000D01*
X99765000Y-98250000D02*
X99765000Y-92450000D01*
X99765000Y-98050000D02*
X102165000Y-98050000D01*
X99765000Y-97700000D02*
X102165000Y-97700000D01*
X102165000Y-98275000D02*
X99765000Y-98275000D01*
X99765000Y-97525000D02*
X102165000Y-97525000D01*
X99765000Y-98175000D02*
X102165000Y-98175000D01*
X99765000Y-97875000D02*
X102165000Y-97875000D01*
X102165000Y-92450000D02*
X102165000Y-98250000D01*
X99765000Y-92450000D02*
X102165000Y-92450000D01*
X247402500Y-154850000D02*
X249802500Y-154850000D01*
X247402500Y-155200000D02*
X249802500Y-155200000D01*
X249802500Y-149600000D02*
X249802500Y-155400000D01*
X247402500Y-155025000D02*
X249802500Y-155025000D01*
X247402500Y-155400000D02*
X247402500Y-149600000D01*
X247402500Y-149600000D02*
X249802500Y-149600000D01*
X249802500Y-155425000D02*
X247402500Y-155425000D01*
X247402500Y-154675000D02*
X249802500Y-154675000D01*
X247402500Y-155325000D02*
X249802500Y-155325000D01*
X75952500Y-135800000D02*
X78352500Y-135800000D01*
X75952500Y-136150000D02*
X78352500Y-136150000D01*
X78352500Y-136375000D02*
X75952500Y-136375000D01*
X75952500Y-135975000D02*
X78352500Y-135975000D01*
X75952500Y-136275000D02*
X78352500Y-136275000D01*
X75952500Y-136350000D02*
X75952500Y-130550000D01*
X75952500Y-130550000D02*
X78352500Y-130550000D01*
X78352500Y-130550000D02*
X78352500Y-136350000D01*
X75952500Y-135625000D02*
X78352500Y-135625000D01*
X249802500Y-136375000D02*
X247402500Y-136375000D01*
X247402500Y-135625000D02*
X249802500Y-135625000D01*
X249802500Y-130550000D02*
X249802500Y-136350000D01*
X247402500Y-135800000D02*
X249802500Y-135800000D01*
X247402500Y-130550000D02*
X249802500Y-130550000D01*
X247402500Y-136350000D02*
X247402500Y-130550000D01*
X247402500Y-135975000D02*
X249802500Y-135975000D01*
X247402500Y-136275000D02*
X249802500Y-136275000D01*
X247402500Y-136150000D02*
X249802500Y-136150000D01*
X364102500Y-111500000D02*
X364102500Y-117300000D01*
X361702500Y-117100000D02*
X364102500Y-117100000D01*
X361702500Y-116575000D02*
X364102500Y-116575000D01*
X361702500Y-117225000D02*
X364102500Y-117225000D01*
X361702500Y-111500000D02*
X364102500Y-111500000D01*
X364102500Y-117325000D02*
X361702500Y-117325000D01*
X361702500Y-116750000D02*
X364102500Y-116750000D01*
X361702500Y-117300000D02*
X361702500Y-111500000D01*
X361702500Y-116925000D02*
X364102500Y-116925000D01*
X275977500Y-116750000D02*
X278377500Y-116750000D01*
X275977500Y-116925000D02*
X278377500Y-116925000D01*
X278377500Y-117325000D02*
X275977500Y-117325000D01*
X275977500Y-117225000D02*
X278377500Y-117225000D01*
X275977500Y-117100000D02*
X278377500Y-117100000D01*
X275977500Y-117300000D02*
X275977500Y-111500000D01*
X275977500Y-111500000D02*
X278377500Y-111500000D01*
X275977500Y-116575000D02*
X278377500Y-116575000D01*
X278377500Y-111500000D02*
X278377500Y-117300000D01*
X128340000Y-50075000D02*
X130740000Y-50075000D01*
X128340000Y-50250000D02*
X130740000Y-50250000D01*
X128340000Y-44825000D02*
X130740000Y-44825000D01*
X128340000Y-50550000D02*
X130740000Y-50550000D01*
X128340000Y-50625000D02*
X128340000Y-44825000D01*
X130740000Y-44825000D02*
X130740000Y-50625000D01*
X130740000Y-50650000D02*
X128340000Y-50650000D01*
X128340000Y-50425000D02*
X130740000Y-50425000D01*
X128340000Y-49900000D02*
X130740000Y-49900000D01*
X80715000Y-154850000D02*
X83115000Y-154850000D01*
X80715000Y-154675000D02*
X83115000Y-154675000D01*
X80715000Y-155200000D02*
X83115000Y-155200000D01*
X80715000Y-155400000D02*
X80715000Y-149600000D01*
X83115000Y-149600000D02*
X83115000Y-155400000D01*
X80715000Y-155325000D02*
X83115000Y-155325000D01*
X80715000Y-155025000D02*
X83115000Y-155025000D01*
X83115000Y-155425000D02*
X80715000Y-155425000D01*
X80715000Y-149600000D02*
X83115000Y-149600000D01*
X83115000Y-98275000D02*
X80715000Y-98275000D01*
X83115000Y-92450000D02*
X83115000Y-98250000D01*
X80715000Y-97875000D02*
X83115000Y-97875000D01*
X80715000Y-97525000D02*
X83115000Y-97525000D01*
X80715000Y-98250000D02*
X80715000Y-92450000D01*
X80715000Y-98050000D02*
X83115000Y-98050000D01*
X80715000Y-98175000D02*
X83115000Y-98175000D01*
X80715000Y-92450000D02*
X83115000Y-92450000D01*
X80715000Y-97700000D02*
X83115000Y-97700000D01*
X114052500Y-136275000D02*
X116452500Y-136275000D01*
X114052500Y-135800000D02*
X116452500Y-135800000D01*
X116452500Y-136375000D02*
X114052500Y-136375000D01*
X114052500Y-136150000D02*
X116452500Y-136150000D01*
X116452500Y-130550000D02*
X116452500Y-136350000D01*
X114052500Y-135975000D02*
X116452500Y-135975000D01*
X114052500Y-136350000D02*
X114052500Y-130550000D01*
X114052500Y-135625000D02*
X116452500Y-135625000D01*
X114052500Y-130550000D02*
X116452500Y-130550000D01*
X54540000Y-79225000D02*
X52140000Y-79225000D01*
X52140000Y-78475000D02*
X54540000Y-78475000D01*
X54540000Y-73400000D02*
X54540000Y-79200000D01*
X52140000Y-79000000D02*
X54540000Y-79000000D01*
X52140000Y-78650000D02*
X54540000Y-78650000D01*
X52140000Y-73400000D02*
X54540000Y-73400000D01*
X52140000Y-78825000D02*
X54540000Y-78825000D01*
X52140000Y-79125000D02*
X54540000Y-79125000D01*
X52140000Y-79200000D02*
X52140000Y-73400000D01*
X271215000Y-149600000D02*
X273615000Y-149600000D01*
X273615000Y-149600000D02*
X273615000Y-155400000D01*
X271215000Y-155400000D02*
X271215000Y-149600000D01*
X273615000Y-155425000D02*
X271215000Y-155425000D01*
X271215000Y-154675000D02*
X273615000Y-154675000D01*
X271215000Y-155325000D02*
X273615000Y-155325000D01*
X271215000Y-154850000D02*
X273615000Y-154850000D01*
X271215000Y-155025000D02*
X273615000Y-155025000D01*
X271215000Y-155200000D02*
X273615000Y-155200000D01*
X199777500Y-116575000D02*
X202177500Y-116575000D01*
X202177500Y-117325000D02*
X199777500Y-117325000D01*
X199777500Y-117300000D02*
X199777500Y-111500000D01*
X199777500Y-116925000D02*
X202177500Y-116925000D01*
X199777500Y-116750000D02*
X202177500Y-116750000D01*
X199777500Y-111500000D02*
X202177500Y-111500000D01*
X199777500Y-117100000D02*
X202177500Y-117100000D01*
X202177500Y-111500000D02*
X202177500Y-117300000D01*
X199777500Y-117225000D02*
X202177500Y-117225000D01*
X242640000Y-78825000D02*
X245040000Y-78825000D01*
X242640000Y-78650000D02*
X245040000Y-78650000D01*
X245040000Y-79225000D02*
X242640000Y-79225000D01*
X242640000Y-79125000D02*
X245040000Y-79125000D01*
X242640000Y-73400000D02*
X245040000Y-73400000D01*
X242640000Y-79200000D02*
X242640000Y-73400000D01*
X242640000Y-78475000D02*
X245040000Y-78475000D01*
X242640000Y-79000000D02*
X245040000Y-79000000D01*
X245040000Y-73400000D02*
X245040000Y-79200000D01*
X342652500Y-136150000D02*
X345052500Y-136150000D01*
X345052500Y-130550000D02*
X345052500Y-136350000D01*
X342652500Y-136350000D02*
X342652500Y-130550000D01*
X342652500Y-135975000D02*
X345052500Y-135975000D01*
X342652500Y-135625000D02*
X345052500Y-135625000D01*
X345052500Y-136375000D02*
X342652500Y-136375000D01*
X342652500Y-136275000D02*
X345052500Y-136275000D01*
X342652500Y-130550000D02*
X345052500Y-130550000D01*
X342652500Y-135800000D02*
X345052500Y-135800000D01*
X61665000Y-98050000D02*
X64065000Y-98050000D01*
X61665000Y-98250000D02*
X61665000Y-92450000D01*
X61665000Y-97875000D02*
X64065000Y-97875000D01*
X61665000Y-92450000D02*
X64065000Y-92450000D01*
X61665000Y-98175000D02*
X64065000Y-98175000D01*
X64065000Y-92450000D02*
X64065000Y-98250000D01*
X64065000Y-98275000D02*
X61665000Y-98275000D01*
X61665000Y-97525000D02*
X64065000Y-97525000D01*
X61665000Y-97700000D02*
X64065000Y-97700000D01*
X133102500Y-135625000D02*
X135502500Y-135625000D01*
X135502500Y-136375000D02*
X133102500Y-136375000D01*
X133102500Y-135800000D02*
X135502500Y-135800000D01*
X133102500Y-136275000D02*
X135502500Y-136275000D01*
X135502500Y-130550000D02*
X135502500Y-136350000D01*
X133102500Y-136350000D02*
X133102500Y-130550000D01*
X133102500Y-135975000D02*
X135502500Y-135975000D01*
X133102500Y-130550000D02*
X135502500Y-130550000D01*
X133102500Y-136150000D02*
X135502500Y-136150000D01*
X280740000Y-44825000D02*
X283140000Y-44825000D01*
X280740000Y-50075000D02*
X283140000Y-50075000D01*
X280740000Y-49900000D02*
X283140000Y-49900000D01*
X280740000Y-50250000D02*
X283140000Y-50250000D01*
X280740000Y-50625000D02*
X280740000Y-44825000D01*
X283140000Y-44825000D02*
X283140000Y-50625000D01*
X280740000Y-50550000D02*
X283140000Y-50550000D01*
X283140000Y-50650000D02*
X280740000Y-50650000D01*
X280740000Y-50425000D02*
X283140000Y-50425000D01*
X297427500Y-149600000D02*
X297427500Y-155400000D01*
X295027500Y-154850000D02*
X297427500Y-154850000D01*
X295027500Y-149600000D02*
X297427500Y-149600000D01*
X295027500Y-155200000D02*
X297427500Y-155200000D01*
X295027500Y-155025000D02*
X297427500Y-155025000D01*
X297427500Y-155425000D02*
X295027500Y-155425000D01*
X295027500Y-155400000D02*
X295027500Y-149600000D01*
X295027500Y-154675000D02*
X297427500Y-154675000D01*
X295027500Y-155325000D02*
X297427500Y-155325000D01*
X211702500Y-130550000D02*
X211702500Y-136350000D01*
X209302500Y-135625000D02*
X211702500Y-135625000D01*
X209302500Y-135800000D02*
X211702500Y-135800000D01*
X211702500Y-136375000D02*
X209302500Y-136375000D01*
X209302500Y-135975000D02*
X211702500Y-135975000D01*
X209302500Y-130550000D02*
X211702500Y-130550000D01*
X209302500Y-136275000D02*
X211702500Y-136275000D01*
X209302500Y-136150000D02*
X211702500Y-136150000D01*
X209302500Y-136350000D02*
X209302500Y-130550000D01*
X323602500Y-154675000D02*
X326002500Y-154675000D01*
X323602500Y-149600000D02*
X326002500Y-149600000D01*
X323602500Y-155325000D02*
X326002500Y-155325000D01*
X323602500Y-155200000D02*
X326002500Y-155200000D01*
X323602500Y-154850000D02*
X326002500Y-154850000D01*
X323602500Y-155025000D02*
X326002500Y-155025000D01*
X326002500Y-149600000D02*
X326002500Y-155400000D01*
X323602500Y-155400000D02*
X323602500Y-149600000D01*
X326002500Y-155425000D02*
X323602500Y-155425000D01*
X185490000Y-79000000D02*
X187890000Y-79000000D01*
X187890000Y-79225000D02*
X185490000Y-79225000D01*
X185490000Y-79200000D02*
X185490000Y-73400000D01*
X185490000Y-78475000D02*
X187890000Y-78475000D01*
X185490000Y-73400000D02*
X187890000Y-73400000D01*
X187890000Y-73400000D02*
X187890000Y-79200000D01*
X185490000Y-79125000D02*
X187890000Y-79125000D01*
X185490000Y-78650000D02*
X187890000Y-78650000D01*
X185490000Y-78825000D02*
X187890000Y-78825000D01*
X223590000Y-79000000D02*
X225990000Y-79000000D01*
X223590000Y-78475000D02*
X225990000Y-78475000D01*
X223590000Y-73400000D02*
X225990000Y-73400000D01*
X225990000Y-79225000D02*
X223590000Y-79225000D01*
X223590000Y-78650000D02*
X225990000Y-78650000D01*
X223590000Y-79200000D02*
X223590000Y-73400000D01*
X223590000Y-79125000D02*
X225990000Y-79125000D01*
X223590000Y-78825000D02*
X225990000Y-78825000D01*
X225990000Y-73400000D02*
X225990000Y-79200000D01*
X214065000Y-98050000D02*
X216465000Y-98050000D01*
X214065000Y-97525000D02*
X216465000Y-97525000D01*
X216465000Y-92450000D02*
X216465000Y-98250000D01*
X214065000Y-98250000D02*
X214065000Y-92450000D01*
X214065000Y-92450000D02*
X216465000Y-92450000D01*
X214065000Y-97875000D02*
X216465000Y-97875000D01*
X214065000Y-98175000D02*
X216465000Y-98175000D01*
X216465000Y-98275000D02*
X214065000Y-98275000D01*
X214065000Y-97700000D02*
X216465000Y-97700000D01*
X161677500Y-117225000D02*
X164077500Y-117225000D01*
X161677500Y-116575000D02*
X164077500Y-116575000D01*
X161677500Y-116750000D02*
X164077500Y-116750000D01*
X164077500Y-117325000D02*
X161677500Y-117325000D01*
X161677500Y-116925000D02*
X164077500Y-116925000D01*
X164077500Y-111500000D02*
X164077500Y-117300000D01*
X161677500Y-117100000D02*
X164077500Y-117100000D01*
X161677500Y-111500000D02*
X164077500Y-111500000D01*
X161677500Y-117300000D02*
X161677500Y-111500000D01*
X197415000Y-44825000D02*
X197415000Y-50625000D01*
X195015000Y-50425000D02*
X197415000Y-50425000D01*
X195015000Y-50625000D02*
X195015000Y-44825000D01*
X195015000Y-44825000D02*
X197415000Y-44825000D01*
X195015000Y-50550000D02*
X197415000Y-50550000D01*
X197415000Y-50650000D02*
X195015000Y-50650000D01*
X195015000Y-50075000D02*
X197415000Y-50075000D01*
X195015000Y-49900000D02*
X197415000Y-49900000D01*
X195015000Y-50250000D02*
X197415000Y-50250000D01*
X52140000Y-44825000D02*
X54540000Y-44825000D01*
X54540000Y-44825000D02*
X54540000Y-50625000D01*
X52140000Y-50075000D02*
X54540000Y-50075000D01*
X52140000Y-50425000D02*
X54540000Y-50425000D01*
X52140000Y-50550000D02*
X54540000Y-50550000D01*
X54540000Y-50650000D02*
X52140000Y-50650000D01*
X52140000Y-50250000D02*
X54540000Y-50250000D01*
X52140000Y-49900000D02*
X54540000Y-49900000D01*
X52140000Y-50625000D02*
X52140000Y-44825000D01*
X109290000Y-44825000D02*
X111690000Y-44825000D01*
X109290000Y-50250000D02*
X111690000Y-50250000D01*
X109290000Y-50075000D02*
X111690000Y-50075000D01*
X109290000Y-50550000D02*
X111690000Y-50550000D01*
X111690000Y-50650000D02*
X109290000Y-50650000D01*
X109290000Y-50625000D02*
X109290000Y-44825000D01*
X109290000Y-50425000D02*
X111690000Y-50425000D01*
X111690000Y-44825000D02*
X111690000Y-50625000D01*
X109290000Y-49900000D02*
X111690000Y-49900000D01*
X252165000Y-97875000D02*
X254565000Y-97875000D01*
X254565000Y-92450000D02*
X254565000Y-98250000D01*
X254565000Y-98275000D02*
X252165000Y-98275000D01*
X252165000Y-98175000D02*
X254565000Y-98175000D01*
X252165000Y-92450000D02*
X254565000Y-92450000D01*
X252165000Y-97525000D02*
X254565000Y-97525000D01*
X252165000Y-97700000D02*
X254565000Y-97700000D01*
X252165000Y-98250000D02*
X252165000Y-92450000D01*
X252165000Y-98050000D02*
X254565000Y-98050000D01*
X166440000Y-78650000D02*
X168840000Y-78650000D01*
X168840000Y-73400000D02*
X168840000Y-79200000D01*
X168840000Y-79225000D02*
X166440000Y-79225000D01*
X166440000Y-79000000D02*
X168840000Y-79000000D01*
X166440000Y-78825000D02*
X168840000Y-78825000D01*
X166440000Y-79200000D02*
X166440000Y-73400000D01*
X166440000Y-78475000D02*
X168840000Y-78475000D01*
X166440000Y-73400000D02*
X168840000Y-73400000D01*
X166440000Y-79125000D02*
X168840000Y-79125000D01*
X233115000Y-50550000D02*
X235515000Y-50550000D01*
X233115000Y-50625000D02*
X233115000Y-44825000D01*
X233115000Y-49900000D02*
X235515000Y-49900000D01*
X235515000Y-50650000D02*
X233115000Y-50650000D01*
X233115000Y-50250000D02*
X235515000Y-50250000D01*
X233115000Y-50075000D02*
X235515000Y-50075000D01*
X233115000Y-44825000D02*
X235515000Y-44825000D01*
X233115000Y-50425000D02*
X235515000Y-50425000D01*
X235515000Y-44825000D02*
X235515000Y-50625000D01*
X85477500Y-117100000D02*
X87877500Y-117100000D01*
X85477500Y-116750000D02*
X87877500Y-116750000D01*
X87877500Y-117325000D02*
X85477500Y-117325000D01*
X85477500Y-117225000D02*
X87877500Y-117225000D01*
X85477500Y-116925000D02*
X87877500Y-116925000D01*
X85477500Y-111500000D02*
X87877500Y-111500000D01*
X85477500Y-117300000D02*
X85477500Y-111500000D01*
X87877500Y-111500000D02*
X87877500Y-117300000D01*
X85477500Y-116575000D02*
X87877500Y-116575000D01*
X233115000Y-98050000D02*
X235515000Y-98050000D01*
X233115000Y-97700000D02*
X235515000Y-97700000D01*
X235515000Y-92450000D02*
X235515000Y-98250000D01*
X233115000Y-98175000D02*
X235515000Y-98175000D01*
X235515000Y-98275000D02*
X233115000Y-98275000D01*
X233115000Y-92450000D02*
X235515000Y-92450000D01*
X233115000Y-97525000D02*
X235515000Y-97525000D01*
X233115000Y-97875000D02*
X235515000Y-97875000D01*
X233115000Y-98250000D02*
X233115000Y-92450000D01*
X361702500Y-44825000D02*
X364102500Y-44825000D01*
X361702500Y-50425000D02*
X364102500Y-50425000D01*
X364102500Y-44825000D02*
X364102500Y-50625000D01*
X361702500Y-50075000D02*
X364102500Y-50075000D01*
X361702500Y-50625000D02*
X361702500Y-44825000D01*
X361702500Y-50250000D02*
X364102500Y-50250000D01*
X361702500Y-50550000D02*
X364102500Y-50550000D01*
X361702500Y-49900000D02*
X364102500Y-49900000D01*
X364102500Y-50650000D02*
X361702500Y-50650000D01*
X175965000Y-50625000D02*
X175965000Y-44825000D01*
X175965000Y-50425000D02*
X178365000Y-50425000D01*
X175965000Y-50250000D02*
X178365000Y-50250000D01*
X175965000Y-49900000D02*
X178365000Y-49900000D01*
X175965000Y-44825000D02*
X178365000Y-44825000D01*
X178365000Y-44825000D02*
X178365000Y-50625000D01*
X178365000Y-50650000D02*
X175965000Y-50650000D01*
X175965000Y-50075000D02*
X178365000Y-50075000D01*
X175965000Y-50550000D02*
X178365000Y-50550000D01*
X261690000Y-50625000D02*
X261690000Y-44825000D01*
X261690000Y-50075000D02*
X264090000Y-50075000D01*
X261690000Y-49900000D02*
X264090000Y-49900000D01*
X261690000Y-50425000D02*
X264090000Y-50425000D01*
X261690000Y-50250000D02*
X264090000Y-50250000D01*
X261690000Y-50550000D02*
X264090000Y-50550000D01*
X264090000Y-50650000D02*
X261690000Y-50650000D01*
X261690000Y-44825000D02*
X264090000Y-44825000D01*
X264090000Y-44825000D02*
X264090000Y-50625000D01*
X342652500Y-79125000D02*
X345052500Y-79125000D01*
X342652500Y-78825000D02*
X345052500Y-78825000D01*
X342652500Y-78650000D02*
X345052500Y-78650000D01*
X342652500Y-79200000D02*
X342652500Y-73400000D01*
X342652500Y-79000000D02*
X345052500Y-79000000D01*
X345052500Y-79225000D02*
X342652500Y-79225000D01*
X342652500Y-73400000D02*
X345052500Y-73400000D01*
X345052500Y-73400000D02*
X345052500Y-79200000D01*
X342652500Y-78475000D02*
X345052500Y-78475000D01*
X345052500Y-44825000D02*
X345052500Y-50625000D01*
X342652500Y-44825000D02*
X345052500Y-44825000D01*
X342652500Y-50425000D02*
X345052500Y-50425000D01*
X342652500Y-50550000D02*
X345052500Y-50550000D01*
X342652500Y-49900000D02*
X345052500Y-49900000D01*
X342652500Y-50075000D02*
X345052500Y-50075000D01*
X342652500Y-50625000D02*
X342652500Y-44825000D01*
X342652500Y-50250000D02*
X345052500Y-50250000D01*
X345052500Y-50650000D02*
X342652500Y-50650000D01*
X261690000Y-79000000D02*
X264090000Y-79000000D01*
X261690000Y-78650000D02*
X264090000Y-78650000D01*
X264090000Y-79225000D02*
X261690000Y-79225000D01*
X261690000Y-78475000D02*
X264090000Y-78475000D01*
X261690000Y-73400000D02*
X264090000Y-73400000D01*
X261690000Y-78825000D02*
X264090000Y-78825000D01*
X261690000Y-79200000D02*
X261690000Y-73400000D01*
X261690000Y-79125000D02*
X264090000Y-79125000D01*
X264090000Y-73400000D02*
X264090000Y-79200000D01*
X342652500Y-154675000D02*
X345052500Y-154675000D01*
X342652500Y-155025000D02*
X345052500Y-155025000D01*
X342652500Y-155325000D02*
X345052500Y-155325000D01*
X345052500Y-149600000D02*
X345052500Y-155400000D01*
X342652500Y-154850000D02*
X345052500Y-154850000D01*
X342652500Y-149600000D02*
X345052500Y-149600000D01*
X345052500Y-155425000D02*
X342652500Y-155425000D01*
X342652500Y-155400000D02*
X342652500Y-149600000D01*
X342652500Y-155200000D02*
X345052500Y-155200000D01*
X206940000Y-73400000D02*
X206940000Y-79200000D01*
X204540000Y-78825000D02*
X206940000Y-78825000D01*
X204540000Y-79200000D02*
X204540000Y-73400000D01*
X204540000Y-78475000D02*
X206940000Y-78475000D01*
X204540000Y-79000000D02*
X206940000Y-79000000D01*
X204540000Y-73400000D02*
X206940000Y-73400000D01*
X204540000Y-78650000D02*
X206940000Y-78650000D01*
X204540000Y-79125000D02*
X206940000Y-79125000D01*
X206940000Y-79225000D02*
X204540000Y-79225000D01*
X171202500Y-136350000D02*
X171202500Y-130550000D01*
X173602500Y-130550000D02*
X173602500Y-136350000D01*
X171202500Y-135975000D02*
X173602500Y-135975000D01*
X171202500Y-136150000D02*
X173602500Y-136150000D01*
X173602500Y-136375000D02*
X171202500Y-136375000D01*
X171202500Y-136275000D02*
X173602500Y-136275000D01*
X171202500Y-130550000D02*
X173602500Y-130550000D01*
X171202500Y-135800000D02*
X173602500Y-135800000D01*
X171202500Y-135625000D02*
X173602500Y-135625000D01*
X156915000Y-97875000D02*
X159315000Y-97875000D01*
X156915000Y-98175000D02*
X159315000Y-98175000D01*
X156915000Y-97525000D02*
X159315000Y-97525000D01*
X156915000Y-98250000D02*
X156915000Y-92450000D01*
X156915000Y-92450000D02*
X159315000Y-92450000D01*
X156915000Y-98050000D02*
X159315000Y-98050000D01*
X159315000Y-92450000D02*
X159315000Y-98250000D01*
X159315000Y-98275000D02*
X156915000Y-98275000D01*
X156915000Y-97700000D02*
X159315000Y-97700000D01*
X118815000Y-98250000D02*
X118815000Y-92450000D01*
X118815000Y-97700000D02*
X121215000Y-97700000D01*
X121215000Y-92450000D02*
X121215000Y-98250000D01*
X118815000Y-92450000D02*
X121215000Y-92450000D01*
X118815000Y-97875000D02*
X121215000Y-97875000D01*
X118815000Y-97525000D02*
X121215000Y-97525000D01*
X118815000Y-98175000D02*
X121215000Y-98175000D01*
X121215000Y-98275000D02*
X118815000Y-98275000D01*
X118815000Y-98050000D02*
X121215000Y-98050000D01*
X364102500Y-155425000D02*
X361702500Y-155425000D01*
X361702500Y-154675000D02*
X364102500Y-154675000D01*
X361702500Y-154850000D02*
X364102500Y-154850000D01*
X361702500Y-149600000D02*
X364102500Y-149600000D01*
X361702500Y-155025000D02*
X364102500Y-155025000D01*
X361702500Y-155325000D02*
X364102500Y-155325000D01*
X361702500Y-155200000D02*
X364102500Y-155200000D01*
X361702500Y-155400000D02*
X361702500Y-149600000D01*
X364102500Y-149600000D02*
X364102500Y-155400000D01*
X90240000Y-78825000D02*
X92640000Y-78825000D01*
X90240000Y-78650000D02*
X92640000Y-78650000D01*
X90240000Y-79000000D02*
X92640000Y-79000000D01*
X90240000Y-79200000D02*
X90240000Y-73400000D01*
X90240000Y-79125000D02*
X92640000Y-79125000D01*
X90240000Y-73400000D02*
X92640000Y-73400000D01*
X92640000Y-73400000D02*
X92640000Y-79200000D01*
X92640000Y-79225000D02*
X90240000Y-79225000D01*
X90240000Y-78475000D02*
X92640000Y-78475000D01*
X90240000Y-50425000D02*
X92640000Y-50425000D01*
X90240000Y-50625000D02*
X90240000Y-44825000D01*
X90240000Y-50250000D02*
X92640000Y-50250000D01*
X90240000Y-49900000D02*
X92640000Y-49900000D01*
X90240000Y-50550000D02*
X92640000Y-50550000D01*
X92640000Y-50650000D02*
X90240000Y-50650000D01*
X90240000Y-50075000D02*
X92640000Y-50075000D01*
X92640000Y-44825000D02*
X92640000Y-50625000D01*
X90240000Y-44825000D02*
X92640000Y-44825000D01*
X137865000Y-98050000D02*
X140265000Y-98050000D01*
X137865000Y-98175000D02*
X140265000Y-98175000D01*
X140265000Y-98275000D02*
X137865000Y-98275000D01*
X137865000Y-97525000D02*
X140265000Y-97525000D01*
X137865000Y-97875000D02*
X140265000Y-97875000D01*
X137865000Y-97700000D02*
X140265000Y-97700000D01*
X140265000Y-92450000D02*
X140265000Y-98250000D01*
X137865000Y-98250000D02*
X137865000Y-92450000D01*
X137865000Y-92450000D02*
X140265000Y-92450000D01*
X309315000Y-135975000D02*
X311715000Y-135975000D01*
X309315000Y-136150000D02*
X311715000Y-136150000D01*
X309315000Y-136350000D02*
X309315000Y-130550000D01*
X311715000Y-136375000D02*
X309315000Y-136375000D01*
X309315000Y-130550000D02*
X311715000Y-130550000D01*
X309315000Y-135625000D02*
X311715000Y-135625000D01*
X309315000Y-136275000D02*
X311715000Y-136275000D01*
X309315000Y-135800000D02*
X311715000Y-135800000D01*
X311715000Y-130550000D02*
X311715000Y-136350000D01*
X66427500Y-117100000D02*
X68827500Y-117100000D01*
X66427500Y-116925000D02*
X68827500Y-116925000D01*
X66427500Y-116750000D02*
X68827500Y-116750000D01*
X66427500Y-116575000D02*
X68827500Y-116575000D01*
X66427500Y-117225000D02*
X68827500Y-117225000D01*
X68827500Y-111500000D02*
X68827500Y-117300000D01*
X66427500Y-111500000D02*
X68827500Y-111500000D01*
X66427500Y-117300000D02*
X66427500Y-111500000D01*
X68827500Y-117325000D02*
X66427500Y-117325000D01*
X152152500Y-135975000D02*
X154552500Y-135975000D01*
X152152500Y-130550000D02*
X154552500Y-130550000D01*
X152152500Y-135800000D02*
X154552500Y-135800000D01*
X152152500Y-136350000D02*
X152152500Y-130550000D01*
X152152500Y-136275000D02*
X154552500Y-136275000D01*
X154552500Y-136375000D02*
X152152500Y-136375000D01*
X152152500Y-135625000D02*
X154552500Y-135625000D01*
X154552500Y-130550000D02*
X154552500Y-136350000D01*
X152152500Y-136150000D02*
X154552500Y-136150000D01*
X104527500Y-155200000D02*
X106927500Y-155200000D01*
X104527500Y-149600000D02*
X106927500Y-149600000D01*
X106927500Y-149600000D02*
X106927500Y-155400000D01*
X104527500Y-154850000D02*
X106927500Y-154850000D01*
X106927500Y-155425000D02*
X104527500Y-155425000D01*
X104527500Y-155400000D02*
X104527500Y-149600000D01*
X104527500Y-154675000D02*
X106927500Y-154675000D01*
X104527500Y-155025000D02*
X106927500Y-155025000D01*
X104527500Y-155325000D02*
X106927500Y-155325000D01*
X223590000Y-154850000D02*
X225990000Y-154850000D01*
X225990000Y-155425000D02*
X223590000Y-155425000D01*
X223590000Y-155400000D02*
X223590000Y-149600000D01*
X223590000Y-155025000D02*
X225990000Y-155025000D01*
X223590000Y-155325000D02*
X225990000Y-155325000D01*
X223590000Y-155200000D02*
X225990000Y-155200000D01*
X223590000Y-149600000D02*
X225990000Y-149600000D01*
X223590000Y-154675000D02*
X225990000Y-154675000D01*
X225990000Y-149600000D02*
X225990000Y-155400000D01*
X214065000Y-49900000D02*
X216465000Y-49900000D01*
X216465000Y-44825000D02*
X216465000Y-50625000D01*
X214065000Y-50550000D02*
X216465000Y-50550000D01*
X214065000Y-50425000D02*
X216465000Y-50425000D01*
X214065000Y-50250000D02*
X216465000Y-50250000D01*
X216465000Y-50650000D02*
X214065000Y-50650000D01*
X214065000Y-44825000D02*
X216465000Y-44825000D01*
X214065000Y-50625000D02*
X214065000Y-44825000D01*
X214065000Y-50075000D02*
X216465000Y-50075000D01*
X175965000Y-97525000D02*
X178365000Y-97525000D01*
X178365000Y-92450000D02*
X178365000Y-98250000D01*
X175965000Y-97875000D02*
X178365000Y-97875000D01*
X175965000Y-98175000D02*
X178365000Y-98175000D01*
X175965000Y-97700000D02*
X178365000Y-97700000D01*
X175965000Y-98050000D02*
X178365000Y-98050000D01*
X175965000Y-92450000D02*
X178365000Y-92450000D01*
X175965000Y-98250000D02*
X175965000Y-92450000D01*
X178365000Y-98275000D02*
X175965000Y-98275000D01*
X218827500Y-117225000D02*
X221227500Y-117225000D01*
X218827500Y-116575000D02*
X221227500Y-116575000D01*
X218827500Y-117300000D02*
X218827500Y-111500000D01*
X221227500Y-111500000D02*
X221227500Y-117300000D01*
X218827500Y-116925000D02*
X221227500Y-116925000D01*
X218827500Y-117100000D02*
X221227500Y-117100000D01*
X221227500Y-117325000D02*
X218827500Y-117325000D01*
X218827500Y-111500000D02*
X221227500Y-111500000D01*
X218827500Y-116750000D02*
X221227500Y-116750000D01*
X195015000Y-97700000D02*
X197415000Y-97700000D01*
X195015000Y-97525000D02*
X197415000Y-97525000D01*
X195015000Y-97875000D02*
X197415000Y-97875000D01*
X197415000Y-98275000D02*
X195015000Y-98275000D01*
X197415000Y-92450000D02*
X197415000Y-98250000D01*
X195015000Y-98250000D02*
X195015000Y-92450000D01*
X195015000Y-92450000D02*
X197415000Y-92450000D01*
X195015000Y-98050000D02*
X197415000Y-98050000D01*
X195015000Y-98175000D02*
X197415000Y-98175000D01*
D12*
X96202500Y-137250000D03*
D13*
X96202500Y-129450000D03*
D12*
X191452500Y-137250000D03*
D13*
X191452500Y-129450000D03*
D12*
X343852500Y-118200000D03*
D13*
X343852500Y-110400000D03*
D12*
X272415000Y-99150000D03*
D13*
X272415000Y-91350000D03*
D12*
X362902500Y-99150000D03*
D13*
X362902500Y-91350000D03*
D12*
X362902500Y-80100000D03*
D13*
X362902500Y-72300000D03*
D12*
X143827500Y-118200000D03*
D13*
X143827500Y-110400000D03*
D12*
X320040000Y-118200000D03*
D13*
X320040000Y-110400000D03*
D12*
X320040000Y-99150000D03*
D13*
X320040000Y-91350000D03*
D12*
X343852500Y-99150000D03*
D13*
X343852500Y-91350000D03*
D12*
X239077500Y-118200000D03*
D13*
X239077500Y-110400000D03*
D12*
X229552500Y-137250000D03*
D13*
X229552500Y-129450000D03*
D12*
X320040000Y-80100000D03*
D13*
X320040000Y-72300000D03*
D12*
X300990000Y-51525000D03*
D13*
X300990000Y-43725000D03*
D12*
X105727500Y-118200000D03*
D13*
X105727500Y-110400000D03*
D12*
X72390000Y-80100000D03*
D13*
X72390000Y-72300000D03*
D12*
X124777500Y-118200000D03*
D13*
X124777500Y-110400000D03*
D12*
X267652500Y-137250000D03*
D13*
X267652500Y-129450000D03*
D12*
X129540000Y-80100000D03*
D13*
X129540000Y-72300000D03*
D12*
X58102500Y-156300000D03*
D13*
X58102500Y-148500000D03*
D12*
X320040000Y-51525000D03*
D13*
X320040000Y-43725000D03*
D12*
X148590000Y-51525000D03*
D13*
X148590000Y-43725000D03*
D12*
X258127500Y-118200000D03*
D13*
X258127500Y-110400000D03*
D12*
X110490000Y-80100000D03*
D13*
X110490000Y-72300000D03*
D12*
X291465000Y-99150000D03*
D13*
X291465000Y-91350000D03*
D12*
X181927500Y-118200000D03*
D13*
X181927500Y-110400000D03*
D12*
X281940000Y-80100000D03*
D13*
X281940000Y-72300000D03*
D12*
X148590000Y-80100000D03*
D13*
X148590000Y-72300000D03*
D12*
X100965000Y-99150000D03*
D13*
X100965000Y-91350000D03*
D12*
X248602500Y-156300000D03*
D13*
X248602500Y-148500000D03*
D12*
X77152500Y-137250000D03*
D13*
X77152500Y-129450000D03*
D12*
X248602500Y-137250000D03*
D13*
X248602500Y-129450000D03*
D12*
X362902500Y-118200000D03*
D13*
X362902500Y-110400000D03*
D12*
X277177500Y-118200000D03*
D13*
X277177500Y-110400000D03*
D12*
X129540000Y-51525000D03*
D13*
X129540000Y-43725000D03*
D12*
X81915000Y-156300000D03*
D13*
X81915000Y-148500000D03*
D12*
X81915000Y-99150000D03*
D13*
X81915000Y-91350000D03*
D12*
X115252500Y-137250000D03*
D13*
X115252500Y-129450000D03*
D12*
X53340000Y-80100000D03*
D13*
X53340000Y-72300000D03*
D12*
X272415000Y-156300000D03*
D13*
X272415000Y-148500000D03*
D12*
X200977500Y-118200000D03*
D13*
X200977500Y-110400000D03*
D12*
X243840000Y-80100000D03*
D13*
X243840000Y-72300000D03*
D12*
X343852500Y-137250000D03*
D13*
X343852500Y-129450000D03*
D12*
X62865000Y-99150000D03*
D13*
X62865000Y-91350000D03*
D12*
X134302500Y-137250000D03*
D13*
X134302500Y-129450000D03*
D12*
X281940000Y-51525000D03*
D13*
X281940000Y-43725000D03*
D12*
X296227500Y-156300000D03*
D13*
X296227500Y-148500000D03*
D12*
X210502500Y-137250000D03*
D13*
X210502500Y-129450000D03*
D12*
X324802500Y-156300000D03*
D13*
X324802500Y-148500000D03*
D12*
X186690000Y-80100000D03*
D13*
X186690000Y-72300000D03*
D12*
X224790000Y-80100000D03*
D13*
X224790000Y-72300000D03*
D12*
X215265000Y-99150000D03*
D13*
X215265000Y-91350000D03*
D12*
X162877500Y-118200000D03*
D13*
X162877500Y-110400000D03*
D12*
X196215000Y-51525000D03*
D13*
X196215000Y-43725000D03*
D12*
X53340000Y-51525000D03*
D13*
X53340000Y-43725000D03*
D12*
X110490000Y-51525000D03*
D13*
X110490000Y-43725000D03*
D12*
X253365000Y-99150000D03*
D13*
X253365000Y-91350000D03*
D12*
X167640000Y-80100000D03*
D13*
X167640000Y-72300000D03*
D12*
X234315000Y-51525000D03*
D13*
X234315000Y-43725000D03*
D12*
X86677500Y-118200000D03*
D13*
X86677500Y-110400000D03*
D12*
X234315000Y-99150000D03*
D13*
X234315000Y-91350000D03*
D12*
X362902500Y-51525000D03*
D13*
X362902500Y-43725000D03*
D12*
X177165000Y-51525000D03*
D13*
X177165000Y-43725000D03*
D12*
X262890000Y-51525000D03*
D13*
X262890000Y-43725000D03*
D12*
X343852500Y-80100000D03*
D13*
X343852500Y-72300000D03*
D12*
X343852500Y-51525000D03*
D13*
X343852500Y-43725000D03*
D12*
X262890000Y-80100000D03*
D13*
X262890000Y-72300000D03*
D12*
X343852500Y-156300000D03*
D13*
X343852500Y-148500000D03*
D12*
X205740000Y-80100000D03*
D13*
X205740000Y-72300000D03*
D12*
X172402500Y-137250000D03*
D13*
X172402500Y-129450000D03*
D12*
X158115000Y-99150000D03*
D13*
X158115000Y-91350000D03*
D12*
X120015000Y-99150000D03*
D13*
X120015000Y-91350000D03*
D12*
X362902500Y-156300000D03*
D13*
X362902500Y-148500000D03*
D12*
X91440000Y-80100000D03*
D13*
X91440000Y-72300000D03*
D12*
X91440000Y-51525000D03*
D13*
X91440000Y-43725000D03*
D12*
X139065000Y-99150000D03*
D13*
X139065000Y-91350000D03*
D12*
X310515000Y-137250000D03*
D13*
X310515000Y-129450000D03*
D12*
X67627500Y-118200000D03*
D13*
X67627500Y-110400000D03*
D12*
X153352500Y-137250000D03*
D13*
X153352500Y-129450000D03*
D12*
X105727500Y-156300000D03*
D13*
X105727500Y-148500000D03*
D12*
X224790000Y-156300000D03*
D13*
X224790000Y-148500000D03*
D12*
X215265000Y-51525000D03*
D13*
X215265000Y-43725000D03*
D12*
X177165000Y-99150000D03*
D13*
X177165000Y-91350000D03*
D12*
X220027500Y-118200000D03*
D13*
X220027500Y-110400000D03*
D12*
X196215000Y-99150000D03*
D13*
X196215000Y-91350000D03*
M02*
