G04 #@! TF.GenerationSoftware,KiCad,Pcbnew,(6.0.7-1)-1*
G04 #@! TF.CreationDate,2022-09-16T02:28:04+09:00*
G04 #@! TF.ProjectId,keyboard,6b657962-6f61-4726-942e-6b696361645f,rev?*
G04 #@! TF.SameCoordinates,Original*
G04 #@! TF.FileFunction,Paste,Top*
G04 #@! TF.FilePolarity,Positive*
%FSLAX46Y46*%
G04 Gerber Fmt 4.6, Leading zero omitted, Abs format (unit mm)*
G04 Created by KiCad (PCBNEW (6.0.7-1)-1) date 2022-09-16 02:28:04*
%MOMM*%
%LPD*%
G01*
G04 APERTURE LIST*
%ADD10R,1.200000X1.200000*%
G04 APERTURE END LIST*
D10*
X96202500Y-134925000D03*
X96202500Y-131775000D03*
X191452500Y-134925000D03*
X191452500Y-131775000D03*
X343852500Y-115875000D03*
X343852500Y-112725000D03*
X272415000Y-96825000D03*
X272415000Y-93675000D03*
X362902500Y-96825000D03*
X362902500Y-93675000D03*
X362902500Y-77775000D03*
X362902500Y-74625000D03*
X143827500Y-115875000D03*
X143827500Y-112725000D03*
X320040000Y-115875000D03*
X320040000Y-112725000D03*
X320040000Y-96825000D03*
X320040000Y-93675000D03*
X343852500Y-96825000D03*
X343852500Y-93675000D03*
X239077500Y-115875000D03*
X239077500Y-112725000D03*
X229552500Y-134925000D03*
X229552500Y-131775000D03*
X320040000Y-77775000D03*
X320040000Y-74625000D03*
X300990000Y-49200000D03*
X300990000Y-46050000D03*
X105727500Y-115875000D03*
X105727500Y-112725000D03*
X72390000Y-77775000D03*
X72390000Y-74625000D03*
X124777500Y-115875000D03*
X124777500Y-112725000D03*
X267652500Y-134925000D03*
X267652500Y-131775000D03*
X129540000Y-77775000D03*
X129540000Y-74625000D03*
X58102500Y-153975000D03*
X58102500Y-150825000D03*
X320040000Y-49200000D03*
X320040000Y-46050000D03*
X148590000Y-49200000D03*
X148590000Y-46050000D03*
X258127500Y-115875000D03*
X258127500Y-112725000D03*
X110490000Y-77775000D03*
X110490000Y-74625000D03*
X291465000Y-96825000D03*
X291465000Y-93675000D03*
X181927500Y-115875000D03*
X181927500Y-112725000D03*
X281940000Y-77775000D03*
X281940000Y-74625000D03*
X148590000Y-77775000D03*
X148590000Y-74625000D03*
X100965000Y-96825000D03*
X100965000Y-93675000D03*
X248602500Y-153975000D03*
X248602500Y-150825000D03*
X77152500Y-134925000D03*
X77152500Y-131775000D03*
X248602500Y-134925000D03*
X248602500Y-131775000D03*
X362902500Y-115875000D03*
X362902500Y-112725000D03*
X277177500Y-115875000D03*
X277177500Y-112725000D03*
X129540000Y-49200000D03*
X129540000Y-46050000D03*
X81915000Y-153975000D03*
X81915000Y-150825000D03*
X81915000Y-96825000D03*
X81915000Y-93675000D03*
X115252500Y-134925000D03*
X115252500Y-131775000D03*
X53340000Y-77775000D03*
X53340000Y-74625000D03*
X272415000Y-153975000D03*
X272415000Y-150825000D03*
X200977500Y-115875000D03*
X200977500Y-112725000D03*
X243840000Y-77775000D03*
X243840000Y-74625000D03*
X343852500Y-134925000D03*
X343852500Y-131775000D03*
X62865000Y-96825000D03*
X62865000Y-93675000D03*
X134302500Y-134925000D03*
X134302500Y-131775000D03*
X281940000Y-49200000D03*
X281940000Y-46050000D03*
X296227500Y-153975000D03*
X296227500Y-150825000D03*
X210502500Y-134925000D03*
X210502500Y-131775000D03*
X324802500Y-153975000D03*
X324802500Y-150825000D03*
X186690000Y-77775000D03*
X186690000Y-74625000D03*
X224790000Y-77775000D03*
X224790000Y-74625000D03*
X215265000Y-96825000D03*
X215265000Y-93675000D03*
X162877500Y-115875000D03*
X162877500Y-112725000D03*
X196215000Y-49200000D03*
X196215000Y-46050000D03*
X53340000Y-49200000D03*
X53340000Y-46050000D03*
X110490000Y-49200000D03*
X110490000Y-46050000D03*
X253365000Y-96825000D03*
X253365000Y-93675000D03*
X167640000Y-77775000D03*
X167640000Y-74625000D03*
X234315000Y-49200000D03*
X234315000Y-46050000D03*
X86677500Y-115875000D03*
X86677500Y-112725000D03*
X234315000Y-96825000D03*
X234315000Y-93675000D03*
X362902500Y-49200000D03*
X362902500Y-46050000D03*
X177165000Y-49200000D03*
X177165000Y-46050000D03*
X262890000Y-49200000D03*
X262890000Y-46050000D03*
X343852500Y-77775000D03*
X343852500Y-74625000D03*
X343852500Y-49200000D03*
X343852500Y-46050000D03*
X262890000Y-77775000D03*
X262890000Y-74625000D03*
X343852500Y-153975000D03*
X343852500Y-150825000D03*
X205740000Y-77775000D03*
X205740000Y-74625000D03*
X172402500Y-134925000D03*
X172402500Y-131775000D03*
X158115000Y-96825000D03*
X158115000Y-93675000D03*
X120015000Y-96825000D03*
X120015000Y-93675000D03*
X362902500Y-153975000D03*
X362902500Y-150825000D03*
X91440000Y-77775000D03*
X91440000Y-74625000D03*
X91440000Y-49200000D03*
X91440000Y-46050000D03*
X139065000Y-96825000D03*
X139065000Y-93675000D03*
X310515000Y-134925000D03*
X310515000Y-131775000D03*
X67627500Y-115875000D03*
X67627500Y-112725000D03*
X153352500Y-134925000D03*
X153352500Y-131775000D03*
X105727500Y-153975000D03*
X105727500Y-150825000D03*
X224790000Y-153975000D03*
X224790000Y-150825000D03*
X215265000Y-49200000D03*
X215265000Y-46050000D03*
X177165000Y-96825000D03*
X177165000Y-93675000D03*
X220027500Y-115875000D03*
X220027500Y-112725000D03*
X196215000Y-96825000D03*
X196215000Y-93675000D03*
M02*
