G04 #@! TF.GenerationSoftware,KiCad,Pcbnew,(6.0.7-1)-1*
G04 #@! TF.CreationDate,2022-09-16T09:39:52+09:00*
G04 #@! TF.ProjectId,keyboard,6b657962-6f61-4726-942e-6b696361645f,rev?*
G04 #@! TF.SameCoordinates,Original*
G04 #@! TF.FileFunction,Soldermask,Top*
G04 #@! TF.FilePolarity,Negative*
%FSLAX46Y46*%
G04 Gerber Fmt 4.6, Leading zero omitted, Abs format (unit mm)*
G04 Created by KiCad (PCBNEW (6.0.7-1)-1) date 2022-09-16 09:39:52*
%MOMM*%
%LPD*%
G01*
G04 APERTURE LIST*
%ADD10C,1.750000*%
%ADD11C,3.987800*%
%ADD12R,1.600000X1.600000*%
%ADD13R,1.200000X1.200000*%
%ADD14C,1.600000*%
%ADD15C,3.048000*%
%ADD16O,1.700000X2.700000*%
G04 APERTURE END LIST*
D10*
X272232500Y-113800000D03*
X262072500Y-113800000D03*
D11*
X267152500Y-113800000D03*
D12*
X96202500Y-137250000D03*
D13*
X96202500Y-134925000D03*
D14*
X96202500Y-129450000D03*
D13*
X96202500Y-131775000D03*
D10*
X86495000Y-47125000D03*
X76335000Y-47125000D03*
D11*
X81415000Y-47125000D03*
D10*
X119832500Y-113800000D03*
D11*
X114752500Y-113800000D03*
D10*
X109672500Y-113800000D03*
D13*
X191452500Y-134925000D03*
D12*
X191452500Y-137250000D03*
D14*
X191452500Y-129450000D03*
D13*
X191452500Y-131775000D03*
D12*
X343852500Y-118200000D03*
D13*
X343852500Y-115875000D03*
D14*
X343852500Y-110400000D03*
D13*
X343852500Y-112725000D03*
D10*
X95385000Y-75700000D03*
D11*
X100465000Y-75700000D03*
D10*
X105545000Y-75700000D03*
D13*
X272415000Y-96825000D03*
D12*
X272415000Y-99150000D03*
D14*
X272415000Y-91350000D03*
D13*
X272415000Y-93675000D03*
D12*
X362902500Y-99150000D03*
D13*
X362902500Y-96825000D03*
D14*
X362902500Y-91350000D03*
D13*
X362902500Y-93675000D03*
D10*
X347797500Y-47125000D03*
D11*
X352877500Y-47125000D03*
D10*
X357957500Y-47125000D03*
X124595000Y-47125000D03*
D11*
X119515000Y-47125000D03*
D10*
X114435000Y-47125000D03*
D13*
X362902500Y-77775000D03*
D12*
X362902500Y-80100000D03*
D14*
X362902500Y-72300000D03*
D13*
X362902500Y-74625000D03*
X143827500Y-115875000D03*
D12*
X143827500Y-118200000D03*
D13*
X143827500Y-112725000D03*
D14*
X143827500Y-110400000D03*
D12*
X320040000Y-118200000D03*
D13*
X320040000Y-115875000D03*
D14*
X320040000Y-110400000D03*
D13*
X320040000Y-112725000D03*
X320040000Y-96825000D03*
D12*
X320040000Y-99150000D03*
D14*
X320040000Y-91350000D03*
D13*
X320040000Y-93675000D03*
X343852500Y-96825000D03*
D12*
X343852500Y-99150000D03*
D14*
X343852500Y-91350000D03*
D13*
X343852500Y-93675000D03*
D10*
X157297500Y-132850000D03*
D11*
X162377500Y-132850000D03*
D10*
X167457500Y-132850000D03*
D12*
X239077500Y-118200000D03*
D13*
X239077500Y-115875000D03*
D14*
X239077500Y-110400000D03*
D13*
X239077500Y-112725000D03*
D12*
X229552500Y-137250000D03*
D13*
X229552500Y-134925000D03*
D14*
X229552500Y-129450000D03*
D13*
X229552500Y-131775000D03*
X320040000Y-77775000D03*
D12*
X320040000Y-80100000D03*
D14*
X320040000Y-72300000D03*
D13*
X320040000Y-74625000D03*
D10*
X138247500Y-132850000D03*
X148407500Y-132850000D03*
D11*
X143327500Y-132850000D03*
D13*
X300990000Y-49200000D03*
D12*
X300990000Y-51525000D03*
D13*
X300990000Y-46050000D03*
D14*
X300990000Y-43725000D03*
D10*
X357957500Y-75700000D03*
D11*
X352877500Y-75700000D03*
D10*
X347797500Y-75700000D03*
X138882500Y-113800000D03*
D11*
X133802500Y-113800000D03*
D10*
X128722500Y-113800000D03*
X219845000Y-75700000D03*
X209685000Y-75700000D03*
D11*
X214765000Y-75700000D03*
D10*
X215082500Y-113800000D03*
X204922500Y-113800000D03*
D11*
X210002500Y-113800000D03*
D13*
X105727500Y-115875000D03*
D12*
X105727500Y-118200000D03*
D14*
X105727500Y-110400000D03*
D13*
X105727500Y-112725000D03*
D10*
X224607500Y-132850000D03*
X214447500Y-132850000D03*
D11*
X219527500Y-132850000D03*
D10*
X110307500Y-132850000D03*
X100147500Y-132850000D03*
D11*
X105227500Y-132850000D03*
D12*
X72390000Y-80100000D03*
D13*
X72390000Y-77775000D03*
X72390000Y-74625000D03*
D14*
X72390000Y-72300000D03*
D11*
X157615000Y-75700000D03*
D10*
X152535000Y-75700000D03*
X162695000Y-75700000D03*
D15*
X300521750Y-125865000D03*
D10*
X283503750Y-132850000D03*
D11*
X288583750Y-132850000D03*
D10*
X293663750Y-132850000D03*
D11*
X300521750Y-141105000D03*
D15*
X276645750Y-125865000D03*
D11*
X276645750Y-141105000D03*
D10*
X328747500Y-113800000D03*
D11*
X333827500Y-113800000D03*
D10*
X338907500Y-113800000D03*
X66810000Y-94750000D03*
X76970000Y-94750000D03*
D11*
X71890000Y-94750000D03*
D12*
X124777500Y-118200000D03*
D13*
X124777500Y-115875000D03*
X124777500Y-112725000D03*
D14*
X124777500Y-110400000D03*
D10*
X295410000Y-75700000D03*
D15*
X312428000Y-68715000D03*
X288552000Y-68715000D03*
D10*
X305570000Y-75700000D03*
D11*
X312428000Y-83955000D03*
X300490000Y-75700000D03*
X288552000Y-83955000D03*
X310046750Y-122055000D03*
D10*
X293028750Y-113800000D03*
D15*
X310046750Y-106815000D03*
D11*
X286170750Y-122055000D03*
D10*
X303188750Y-113800000D03*
D15*
X286170750Y-106815000D03*
D11*
X298108750Y-113800000D03*
X314777500Y-151900000D03*
D10*
X319857500Y-151900000D03*
X309697500Y-151900000D03*
D13*
X267652500Y-134925000D03*
D12*
X267652500Y-137250000D03*
D13*
X267652500Y-131775000D03*
D14*
X267652500Y-129450000D03*
D10*
X253182500Y-113800000D03*
D11*
X248102500Y-113800000D03*
D10*
X243022500Y-113800000D03*
D15*
X214758650Y-144915000D03*
D11*
X114758850Y-160155000D03*
D10*
X159678750Y-151900000D03*
D15*
X114758850Y-144915000D03*
D10*
X169838750Y-151900000D03*
D11*
X214758650Y-160155000D03*
X164758750Y-151900000D03*
D10*
X200160000Y-94750000D03*
X210320000Y-94750000D03*
D11*
X205240000Y-94750000D03*
D10*
X243657500Y-132850000D03*
X233497500Y-132850000D03*
D11*
X238577500Y-132850000D03*
D13*
X129540000Y-77775000D03*
D12*
X129540000Y-80100000D03*
D13*
X129540000Y-74625000D03*
D14*
X129540000Y-72300000D03*
D13*
X58102500Y-153975000D03*
D12*
X58102500Y-156300000D03*
D13*
X58102500Y-150825000D03*
D14*
X58102500Y-148500000D03*
D10*
X176982500Y-113800000D03*
D11*
X171902500Y-113800000D03*
D10*
X166822500Y-113800000D03*
D12*
X320040000Y-51525000D03*
D13*
X320040000Y-49200000D03*
X320040000Y-46050000D03*
D14*
X320040000Y-43725000D03*
D10*
X42997500Y-94750000D03*
X53157500Y-94750000D03*
D11*
X48077500Y-94750000D03*
D10*
X105545000Y-47125000D03*
X95385000Y-47125000D03*
D11*
X100465000Y-47125000D03*
D12*
X148590000Y-51525000D03*
D13*
X148590000Y-49200000D03*
X148590000Y-46050000D03*
D14*
X148590000Y-43725000D03*
D12*
X258127500Y-118200000D03*
D13*
X258127500Y-115875000D03*
X258127500Y-112725000D03*
D14*
X258127500Y-110400000D03*
D11*
X352877500Y-113800000D03*
D10*
X347797500Y-113800000D03*
X357957500Y-113800000D03*
D11*
X200477500Y-132850000D03*
D10*
X195397500Y-132850000D03*
X205557500Y-132850000D03*
D12*
X110490000Y-80100000D03*
D13*
X110490000Y-77775000D03*
X110490000Y-74625000D03*
D14*
X110490000Y-72300000D03*
D11*
X190952500Y-113800000D03*
D10*
X196032500Y-113800000D03*
X185872500Y-113800000D03*
X252547500Y-132850000D03*
X262707500Y-132850000D03*
D11*
X257627500Y-132850000D03*
D13*
X291465000Y-96825000D03*
D12*
X291465000Y-99150000D03*
D14*
X291465000Y-91350000D03*
D13*
X291465000Y-93675000D03*
D10*
X181110000Y-47125000D03*
D11*
X186190000Y-47125000D03*
D10*
X191270000Y-47125000D03*
D12*
X181927500Y-118200000D03*
D13*
X181927500Y-115875000D03*
X181927500Y-112725000D03*
D14*
X181927500Y-110400000D03*
D12*
X281940000Y-80100000D03*
D13*
X281940000Y-77775000D03*
X281940000Y-74625000D03*
D14*
X281940000Y-72300000D03*
D12*
X148590000Y-80100000D03*
D13*
X148590000Y-77775000D03*
X148590000Y-74625000D03*
D14*
X148590000Y-72300000D03*
D10*
X200160000Y-47125000D03*
D11*
X205240000Y-47125000D03*
D10*
X210320000Y-47125000D03*
D12*
X100965000Y-99150000D03*
D13*
X100965000Y-96825000D03*
D14*
X100965000Y-91350000D03*
D13*
X100965000Y-93675000D03*
X248602500Y-153975000D03*
D12*
X248602500Y-156300000D03*
D14*
X248602500Y-148500000D03*
D13*
X248602500Y-150825000D03*
D10*
X278741250Y-151900000D03*
X288901250Y-151900000D03*
D11*
X283821250Y-151900000D03*
D12*
X77152500Y-137250000D03*
D13*
X77152500Y-134925000D03*
X77152500Y-131775000D03*
D14*
X77152500Y-129450000D03*
D11*
X43283250Y-141105000D03*
X55221250Y-132850000D03*
X67159250Y-141105000D03*
D15*
X67159250Y-125865000D03*
X43283250Y-125865000D03*
D10*
X50141250Y-132850000D03*
X60301250Y-132850000D03*
X134120000Y-94750000D03*
X123960000Y-94750000D03*
D11*
X129040000Y-94750000D03*
D12*
X248602500Y-137250000D03*
D13*
X248602500Y-134925000D03*
D14*
X248602500Y-129450000D03*
D13*
X248602500Y-131775000D03*
D10*
X74588750Y-151900000D03*
X64428750Y-151900000D03*
D11*
X69508750Y-151900000D03*
D13*
X362902500Y-115875000D03*
D12*
X362902500Y-118200000D03*
D13*
X362902500Y-112725000D03*
D14*
X362902500Y-110400000D03*
D12*
X277177500Y-118200000D03*
D13*
X277177500Y-115875000D03*
X277177500Y-112725000D03*
D14*
X277177500Y-110400000D03*
D11*
X76652500Y-113800000D03*
D10*
X71572500Y-113800000D03*
X81732500Y-113800000D03*
X276995000Y-47125000D03*
X266835000Y-47125000D03*
D11*
X271915000Y-47125000D03*
D10*
X100782500Y-113800000D03*
X90622500Y-113800000D03*
D11*
X95702500Y-113800000D03*
D12*
X129540000Y-51525000D03*
D13*
X129540000Y-49200000D03*
D14*
X129540000Y-43725000D03*
D13*
X129540000Y-46050000D03*
D10*
X38235000Y-47125000D03*
X48395000Y-47125000D03*
D11*
X43315000Y-47125000D03*
D13*
X81915000Y-153975000D03*
D12*
X81915000Y-156300000D03*
D14*
X81915000Y-148500000D03*
D13*
X81915000Y-150825000D03*
D10*
X338907500Y-75700000D03*
D11*
X333827500Y-75700000D03*
D10*
X328747500Y-75700000D03*
D12*
X81915000Y-99150000D03*
D13*
X81915000Y-96825000D03*
X81915000Y-93675000D03*
D14*
X81915000Y-91350000D03*
D12*
X115252500Y-137250000D03*
D13*
X115252500Y-134925000D03*
X115252500Y-131775000D03*
D14*
X115252500Y-129450000D03*
D13*
X53340000Y-77775000D03*
D12*
X53340000Y-80100000D03*
D14*
X53340000Y-72300000D03*
D13*
X53340000Y-74625000D03*
D10*
X88241250Y-151900000D03*
X98401250Y-151900000D03*
D11*
X93321250Y-151900000D03*
D10*
X266835000Y-75700000D03*
D11*
X271915000Y-75700000D03*
D10*
X276995000Y-75700000D03*
D11*
X224290000Y-94750000D03*
D10*
X229370000Y-94750000D03*
X219210000Y-94750000D03*
D12*
X272415000Y-156300000D03*
D13*
X272415000Y-153975000D03*
X272415000Y-150825000D03*
D14*
X272415000Y-148500000D03*
D13*
X200977500Y-115875000D03*
D12*
X200977500Y-118200000D03*
D14*
X200977500Y-110400000D03*
D13*
X200977500Y-112725000D03*
X243840000Y-77775000D03*
D12*
X243840000Y-80100000D03*
D14*
X243840000Y-72300000D03*
D13*
X243840000Y-74625000D03*
D11*
X352877500Y-151900000D03*
D10*
X357957500Y-151900000D03*
X347797500Y-151900000D03*
X285885000Y-47125000D03*
X296045000Y-47125000D03*
D11*
X290965000Y-47125000D03*
D13*
X343852500Y-134925000D03*
D12*
X343852500Y-137250000D03*
D13*
X343852500Y-131775000D03*
D14*
X343852500Y-129450000D03*
D13*
X62865000Y-96825000D03*
D12*
X62865000Y-99150000D03*
D14*
X62865000Y-91350000D03*
D13*
X62865000Y-93675000D03*
D12*
X134302500Y-137250000D03*
D13*
X134302500Y-134925000D03*
X134302500Y-131775000D03*
D14*
X134302500Y-129450000D03*
D13*
X281940000Y-49200000D03*
D12*
X281940000Y-51525000D03*
D14*
X281940000Y-43725000D03*
D13*
X281940000Y-46050000D03*
D11*
X186190000Y-94750000D03*
D10*
X191270000Y-94750000D03*
X181110000Y-94750000D03*
D12*
X296227500Y-156300000D03*
D13*
X296227500Y-153975000D03*
X296227500Y-150825000D03*
D14*
X296227500Y-148500000D03*
D12*
X210502500Y-137250000D03*
D13*
X210502500Y-134925000D03*
D14*
X210502500Y-129450000D03*
D13*
X210502500Y-131775000D03*
X324802500Y-153975000D03*
D12*
X324802500Y-156300000D03*
D14*
X324802500Y-148500000D03*
D13*
X324802500Y-150825000D03*
X186690000Y-77775000D03*
D12*
X186690000Y-80100000D03*
D13*
X186690000Y-74625000D03*
D14*
X186690000Y-72300000D03*
D13*
X224790000Y-77775000D03*
D12*
X224790000Y-80100000D03*
D13*
X224790000Y-74625000D03*
D14*
X224790000Y-72300000D03*
D13*
X215265000Y-96825000D03*
D12*
X215265000Y-99150000D03*
D14*
X215265000Y-91350000D03*
D13*
X215265000Y-93675000D03*
D11*
X229052500Y-113800000D03*
D10*
X223972500Y-113800000D03*
X234132500Y-113800000D03*
D12*
X162877500Y-118200000D03*
D13*
X162877500Y-115875000D03*
D14*
X162877500Y-110400000D03*
D13*
X162877500Y-112725000D03*
D11*
X86177500Y-132850000D03*
D10*
X91257500Y-132850000D03*
X81097500Y-132850000D03*
D12*
X196215000Y-51525000D03*
D13*
X196215000Y-49200000D03*
X196215000Y-46050000D03*
D14*
X196215000Y-43725000D03*
D12*
X53340000Y-51525000D03*
D13*
X53340000Y-49200000D03*
D14*
X53340000Y-43725000D03*
D13*
X53340000Y-46050000D03*
D10*
X304935000Y-47125000D03*
D11*
X310015000Y-47125000D03*
D10*
X315095000Y-47125000D03*
D12*
X110490000Y-51525000D03*
D13*
X110490000Y-49200000D03*
X110490000Y-46050000D03*
D14*
X110490000Y-43725000D03*
D10*
X310332500Y-94750000D03*
X300172500Y-94750000D03*
D11*
X305252500Y-94750000D03*
D12*
X253365000Y-99150000D03*
D13*
X253365000Y-96825000D03*
D14*
X253365000Y-91350000D03*
D13*
X253365000Y-93675000D03*
D10*
X157932500Y-113800000D03*
D11*
X152852500Y-113800000D03*
D10*
X147772500Y-113800000D03*
D11*
X43315000Y-75700000D03*
D10*
X48395000Y-75700000D03*
X38235000Y-75700000D03*
D11*
X281440000Y-94750000D03*
D10*
X276360000Y-94750000D03*
X286520000Y-94750000D03*
D11*
X333827500Y-132850000D03*
D10*
X338907500Y-132850000D03*
X328747500Y-132850000D03*
D11*
X333827500Y-151900000D03*
D10*
X338907500Y-151900000D03*
X328747500Y-151900000D03*
D12*
X167640000Y-80100000D03*
D13*
X167640000Y-77775000D03*
X167640000Y-74625000D03*
D14*
X167640000Y-72300000D03*
D13*
X234315000Y-49200000D03*
D12*
X234315000Y-51525000D03*
D13*
X234315000Y-46050000D03*
D14*
X234315000Y-43725000D03*
D10*
X241276250Y-151900000D03*
D11*
X236196250Y-151900000D03*
D10*
X231116250Y-151900000D03*
X153170000Y-94750000D03*
D11*
X148090000Y-94750000D03*
D10*
X143010000Y-94750000D03*
D12*
X86677500Y-118200000D03*
D13*
X86677500Y-115875000D03*
D14*
X86677500Y-110400000D03*
D13*
X86677500Y-112725000D03*
D10*
X257945000Y-47125000D03*
X247785000Y-47125000D03*
D11*
X252865000Y-47125000D03*
D10*
X186507500Y-132850000D03*
X176347500Y-132850000D03*
D11*
X181427500Y-132850000D03*
D10*
X172220000Y-94750000D03*
D11*
X167140000Y-94750000D03*
D10*
X162060000Y-94750000D03*
D13*
X234315000Y-96825000D03*
D12*
X234315000Y-99150000D03*
D13*
X234315000Y-93675000D03*
D14*
X234315000Y-91350000D03*
D12*
X362902500Y-51525000D03*
D13*
X362902500Y-49200000D03*
X362902500Y-46050000D03*
D14*
X362902500Y-43725000D03*
D10*
X265088750Y-151900000D03*
D11*
X260008750Y-151900000D03*
D10*
X254928750Y-151900000D03*
D13*
X177165000Y-49200000D03*
D12*
X177165000Y-51525000D03*
D13*
X177165000Y-46050000D03*
D14*
X177165000Y-43725000D03*
D13*
X262890000Y-49200000D03*
D12*
X262890000Y-51525000D03*
D13*
X262890000Y-46050000D03*
D14*
X262890000Y-43725000D03*
D11*
X50458750Y-113800000D03*
D10*
X55538750Y-113800000D03*
X45378750Y-113800000D03*
D11*
X45696250Y-151900000D03*
D10*
X40616250Y-151900000D03*
X50776250Y-151900000D03*
D13*
X343852500Y-77775000D03*
D12*
X343852500Y-80100000D03*
D14*
X343852500Y-72300000D03*
D13*
X343852500Y-74625000D03*
D10*
X172220000Y-47125000D03*
X162060000Y-47125000D03*
D11*
X167140000Y-47125000D03*
D10*
X57285000Y-75700000D03*
X67445000Y-75700000D03*
D11*
X62365000Y-75700000D03*
D12*
X343852500Y-51525000D03*
D13*
X343852500Y-49200000D03*
X343852500Y-46050000D03*
D14*
X343852500Y-43725000D03*
D11*
X224290000Y-47125000D03*
D10*
X229370000Y-47125000D03*
X219210000Y-47125000D03*
D12*
X262890000Y-80100000D03*
D13*
X262890000Y-77775000D03*
X262890000Y-74625000D03*
D14*
X262890000Y-72300000D03*
D11*
X109990000Y-94750000D03*
D10*
X104910000Y-94750000D03*
X115070000Y-94750000D03*
D13*
X343852500Y-153975000D03*
D12*
X343852500Y-156300000D03*
D13*
X343852500Y-150825000D03*
D14*
X343852500Y-148500000D03*
D10*
X247785000Y-75700000D03*
D11*
X252865000Y-75700000D03*
D10*
X257945000Y-75700000D03*
D11*
X124277500Y-132850000D03*
D10*
X119197500Y-132850000D03*
X129357500Y-132850000D03*
X133485000Y-75700000D03*
D11*
X138565000Y-75700000D03*
D10*
X143645000Y-75700000D03*
X238260000Y-94750000D03*
D11*
X243340000Y-94750000D03*
D10*
X248420000Y-94750000D03*
X114435000Y-75700000D03*
D11*
X119515000Y-75700000D03*
D10*
X124595000Y-75700000D03*
X338907500Y-94750000D03*
D11*
X333827500Y-94750000D03*
D10*
X328747500Y-94750000D03*
X267470000Y-94750000D03*
D11*
X262390000Y-94750000D03*
D10*
X257310000Y-94750000D03*
D13*
X205740000Y-77775000D03*
D12*
X205740000Y-80100000D03*
D14*
X205740000Y-72300000D03*
D13*
X205740000Y-74625000D03*
D10*
X238895000Y-75700000D03*
X228735000Y-75700000D03*
D11*
X233815000Y-75700000D03*
D10*
X85860000Y-94750000D03*
D11*
X90940000Y-94750000D03*
D10*
X96020000Y-94750000D03*
D12*
X172402500Y-137250000D03*
D13*
X172402500Y-134925000D03*
X172402500Y-131775000D03*
D14*
X172402500Y-129450000D03*
D13*
X158115000Y-96825000D03*
D12*
X158115000Y-99150000D03*
D13*
X158115000Y-93675000D03*
D14*
X158115000Y-91350000D03*
D12*
X120015000Y-99150000D03*
D13*
X120015000Y-96825000D03*
D14*
X120015000Y-91350000D03*
D13*
X120015000Y-93675000D03*
X362902500Y-153975000D03*
D12*
X362902500Y-156300000D03*
D14*
X362902500Y-148500000D03*
D13*
X362902500Y-150825000D03*
X91440000Y-77775000D03*
D12*
X91440000Y-80100000D03*
D14*
X91440000Y-72300000D03*
D13*
X91440000Y-74625000D03*
D10*
X328747500Y-47125000D03*
D11*
X333827500Y-47125000D03*
D10*
X338907500Y-47125000D03*
D12*
X91440000Y-51525000D03*
D13*
X91440000Y-49200000D03*
X91440000Y-46050000D03*
D14*
X91440000Y-43725000D03*
D13*
X139065000Y-96825000D03*
D12*
X139065000Y-99150000D03*
D13*
X139065000Y-93675000D03*
D14*
X139065000Y-91350000D03*
D13*
X310515000Y-134925000D03*
D12*
X310515000Y-137250000D03*
D13*
X310515000Y-131775000D03*
D14*
X310515000Y-129450000D03*
D13*
X67627500Y-115875000D03*
D12*
X67627500Y-118200000D03*
D13*
X67627500Y-112725000D03*
D14*
X67627500Y-110400000D03*
D13*
X153352500Y-134925000D03*
D12*
X153352500Y-137250000D03*
D13*
X153352500Y-131775000D03*
D14*
X153352500Y-129450000D03*
D12*
X105727500Y-156300000D03*
D13*
X105727500Y-153975000D03*
X105727500Y-150825000D03*
D14*
X105727500Y-148500000D03*
D10*
X357957500Y-94750000D03*
X347797500Y-94750000D03*
D11*
X352877500Y-94750000D03*
D12*
X224790000Y-156300000D03*
D13*
X224790000Y-153975000D03*
D14*
X224790000Y-148500000D03*
D13*
X224790000Y-150825000D03*
D12*
X215265000Y-51525000D03*
D13*
X215265000Y-49200000D03*
D14*
X215265000Y-43725000D03*
D13*
X215265000Y-46050000D03*
D10*
X200795000Y-75700000D03*
X190635000Y-75700000D03*
D11*
X195715000Y-75700000D03*
D10*
X143645000Y-47125000D03*
X133485000Y-47125000D03*
D11*
X138565000Y-47125000D03*
D13*
X177165000Y-96825000D03*
D12*
X177165000Y-99150000D03*
D14*
X177165000Y-91350000D03*
D13*
X177165000Y-93675000D03*
D11*
X176665000Y-75700000D03*
D10*
X171585000Y-75700000D03*
X181745000Y-75700000D03*
D12*
X220027500Y-118200000D03*
D13*
X220027500Y-115875000D03*
D14*
X220027500Y-110400000D03*
D13*
X220027500Y-112725000D03*
D12*
X196215000Y-99150000D03*
D13*
X196215000Y-96825000D03*
X196215000Y-93675000D03*
D14*
X196215000Y-91350000D03*
D10*
X86495000Y-75700000D03*
X76335000Y-75700000D03*
D11*
X81415000Y-75700000D03*
D16*
X204246250Y-38800000D03*
X204246250Y-34300000D03*
X196946250Y-38800000D03*
X196946250Y-34300000D03*
M02*
